<svg id="ejkw2mh1Joa1" xmlns="http://www.w3.org/2000/svg" xmlns:xlink="http://www.w3.org/1999/xlink" viewBox="0 0 1500 1080" shape-rendering="geometricPrecision" text-rendering="geometricPrecision"><style><![CDATA[#ejkw2mh1Joa3_ts {animation: ejkw2mh1Joa3_ts__ts 10000ms linear infinite normal forwards}@keyframes ejkw2mh1Joa3_ts__ts { 0% {transform: translate(754.58138px,456.510109px) scale(0,0)} 3% {transform: translate(754.58138px,456.510109px) scale(0,0);animation-timing-function: cubic-bezier(0.175,0.885,0.32,1.275)} 9% {transform: translate(754.58138px,456.510109px) scale(1.127811,1.127812)} 100% {transform: translate(754.58138px,456.510109px) scale(1.127811,1.127812)}} #ejkw2mh1Joa71_to {animation: ejkw2mh1Joa71_to__to 10000ms linear infinite normal forwards}@keyframes ejkw2mh1Joa71_to__to { 0% {transform: translate(768.07px,710.22px);animation-timing-function: cubic-bezier(0.175,0.885,0.32,1.275)} 4% {transform: translate(768.07px,192.123986px)} 100% {transform: translate(768.07px,192.123986px)}} #ejkw2mh1Joa71_ts {animation: ejkw2mh1Joa71_ts__ts 10000ms linear infinite normal forwards}@keyframes ejkw2mh1Joa71_ts__ts { 0% {transform: scale(1,1);animation-timing-function: cubic-bezier(0.175,0.885,0.32,1.275)} 4% {transform: scale(1.127811,1.127812)} 100% {transform: scale(1.127811,1.127812)}} #ejkw2mh1Joa89_tr {animation: ejkw2mh1Joa89_tr__tr 10000ms linear infinite normal forwards}@keyframes ejkw2mh1Joa89_tr__tr { 0% {transform: translate(472.445159px,86.746412px) rotate(0deg)} 100% {transform: translate(472.445159px,86.746412px) rotate(3600deg)}} #ejkw2mh1Joa90_tr {animation: ejkw2mh1Joa90_tr__tr 10000ms linear infinite normal forwards}@keyframes ejkw2mh1Joa90_tr__tr { 0% {transform: translate(1316.121666px,710.219978px) rotate(0deg)} 100% {transform: translate(1316.121666px,710.219978px) rotate(3600deg)}} #ejkw2mh1Joa91_tr {animation: ejkw2mh1Joa91_tr__tr 10000ms linear infinite normal forwards}@keyframes ejkw2mh1Joa91_tr__tr { 0% {transform: translate(336.62px,741px) rotate(0deg)} 100% {transform: translate(336.62px,741px) rotate(3600deg)}} #ejkw2mh1Joa92_ts {animation: ejkw2mh1Joa92_ts__ts 10000ms linear infinite normal forwards}@keyframes ejkw2mh1Joa92_ts__ts { 0% {transform: translate(756.991791px,442.459058px) scale(0,0)} 2% {transform: translate(756.991791px,442.459058px) scale(0,0);animation-timing-function: cubic-bezier(0.175,0.885,0.32,1.275)} 8% {transform: translate(756.991791px,442.459058px) scale(1.127811,1.127812)} 100% {transform: translate(756.991791px,442.459058px) scale(1.127811,1.127812)}} #ejkw2mh1Joa101_ts {animation: ejkw2mh1Joa101_ts__ts 10000ms linear infinite normal forwards}@keyframes ejkw2mh1Joa101_ts__ts { 0% {transform: translate(263.414986px,238.140007px) scale(0,0)} 8% {transform: translate(263.414986px,238.140007px) scale(0,0);animation-timing-function: cubic-bezier(0.175,0.885,0.32,1.275)} 11% {transform: translate(263.414986px,238.140007px) scale(1.127811,1.127812)} 15% {transform: translate(263.414986px,238.140007px) scale(1.127811,1.127812);animation-timing-function: cubic-bezier(0.6,-0.28,0.735,0.045)} 18% {transform: translate(263.414986px,238.140007px) scale(0,0);animation-timing-function: cubic-bezier(0.175,0.885,0.32,1.275)} 23% {transform: translate(263.414986px,238.140007px) scale(0,0);animation-timing-function: cubic-bezier(0.175,0.885,0.32,1.275)} 26% {transform: translate(263.414986px,238.140007px) scale(1.127811,1.127812)} 30% {transform: translate(263.414986px,238.140007px) scale(1.127811,1.127812);animation-timing-function: cubic-bezier(0.6,-0.28,0.735,0.045)} 33% {transform: translate(263.414986px,238.140007px) scale(0,0);animation-timing-function: cubic-bezier(0.175,0.885,0.32,1.275)} 38% {transform: translate(263.414986px,238.140007px) scale(0,0);animation-timing-function: cubic-bezier(0.175,0.885,0.32,1.275)} 41% {transform: translate(263.414986px,238.140007px) scale(1.127811,1.127812)} 45% {transform: translate(263.414986px,238.140007px) scale(1.127811,1.127812);animation-timing-function: cubic-bezier(0.6,-0.28,0.735,0.045)} 48% {transform: translate(263.414986px,238.140007px) scale(0,0);animation-timing-function: cubic-bezier(0.175,0.885,0.32,1.275)} 53% {transform: translate(263.414986px,238.140007px) scale(0,0);animation-timing-function: cubic-bezier(0.175,0.885,0.32,1.275)} 56% {transform: translate(263.414986px,238.140007px) scale(1.127811,1.127812)} 60% {transform: translate(263.414986px,238.140007px) scale(1.127811,1.127812);animation-timing-function: cubic-bezier(0.6,-0.28,0.735,0.045)} 63% {transform: translate(263.414986px,238.140007px) scale(0,0);animation-timing-function: cubic-bezier(0.175,0.885,0.32,1.275)} 68% {transform: translate(263.414986px,238.140007px) scale(0,0);animation-timing-function: cubic-bezier(0.175,0.885,0.32,1.275)} 71% {transform: translate(263.414986px,238.140007px) scale(1.127811,1.127812)} 75% {transform: translate(263.414986px,238.140007px) scale(1.127811,1.127812);animation-timing-function: cubic-bezier(0.6,-0.28,0.735,0.045)} 78% {transform: translate(263.414986px,238.140007px) scale(0,0);animation-timing-function: cubic-bezier(0.175,0.885,0.32,1.275)} 83% {transform: translate(263.414986px,238.140007px) scale(0,0);animation-timing-function: cubic-bezier(0.175,0.885,0.32,1.275)} 86% {transform: translate(263.414986px,238.140007px) scale(1.127811,1.127812)} 90% {transform: translate(263.414986px,238.140007px) scale(1.127811,1.127812);animation-timing-function: cubic-bezier(0.6,-0.28,0.735,0.045)} 93% {transform: translate(263.414986px,238.140007px) scale(0,0)} 100% {transform: translate(263.414986px,238.140007px) scale(0,0)}} #ejkw2mh1Joa120_ts {animation: ejkw2mh1Joa120_ts__ts 10000ms linear infinite normal forwards}@keyframes ejkw2mh1Joa120_ts__ts { 0% {transform: translate(1258.155029px,398.285004px) scale(0,0)} 3% {transform: translate(1258.155029px,398.285004px) scale(0,0);animation-timing-function: cubic-bezier(0.175,0.885,0.32,1.275)} 6% {transform: translate(1258.155029px,398.285004px) scale(1.127811,1.127812)} 10% {transform: translate(1258.155029px,398.285004px) scale(1.127811,1.127812);animation-timing-function: cubic-bezier(0.6,-0.28,0.735,0.045)} 13% {transform: translate(1258.155029px,398.285004px) scale(0,0);animation-timing-function: cubic-bezier(0.175,0.885,0.32,1.275)} 18% {transform: translate(1258.155029px,398.285004px) scale(0,0);animation-timing-function: cubic-bezier(0.175,0.885,0.32,1.275)} 21% {transform: translate(1258.155029px,398.285004px) scale(1.127811,1.127812)} 25% {transform: translate(1258.155029px,398.285004px) scale(1.127811,1.127812);animation-timing-function: cubic-bezier(0.6,-0.28,0.735,0.045)} 28% {transform: translate(1258.155029px,398.285004px) scale(0,0);animation-timing-function: cubic-bezier(0.175,0.885,0.32,1.275)} 33% {transform: translate(1258.155029px,398.285004px) scale(0,0);animation-timing-function: cubic-bezier(0.175,0.885,0.32,1.275)} 36% {transform: translate(1258.155029px,398.285004px) scale(1.127811,1.127812)} 40% {transform: translate(1258.155029px,398.285004px) scale(1.127811,1.127812);animation-timing-function: cubic-bezier(0.6,-0.28,0.735,0.045)} 43% {transform: translate(1258.155029px,398.285004px) scale(0,0);animation-timing-function: cubic-bezier(0.175,0.885,0.32,1.275)} 48% {transform: translate(1258.155029px,398.285004px) scale(0,0);animation-timing-function: cubic-bezier(0.175,0.885,0.32,1.275)} 51% {transform: translate(1258.155029px,398.285004px) scale(1.127811,1.127812)} 55% {transform: translate(1258.155029px,398.285004px) scale(1.127811,1.127812);animation-timing-function: cubic-bezier(0.6,-0.28,0.735,0.045)} 58% {transform: translate(1258.155029px,398.285004px) scale(0,0);animation-timing-function: cubic-bezier(0.175,0.885,0.32,1.275)} 63% {transform: translate(1258.155029px,398.285004px) scale(0,0);animation-timing-function: cubic-bezier(0.175,0.885,0.32,1.275)} 66% {transform: translate(1258.155029px,398.285004px) scale(1.127811,1.127812)} 70% {transform: translate(1258.155029px,398.285004px) scale(1.127811,1.127812);animation-timing-function: cubic-bezier(0.6,-0.28,0.735,0.045)} 73% {transform: translate(1258.155029px,398.285004px) scale(0,0);animation-timing-function: cubic-bezier(0.175,0.885,0.32,1.275)} 78% {transform: translate(1258.155029px,398.285004px) scale(0,0);animation-timing-function: cubic-bezier(0.175,0.885,0.32,1.275)} 81% {transform: translate(1258.155029px,398.285004px) scale(1.127811,1.127812)} 85% {transform: translate(1258.155029px,398.285004px) scale(1.127811,1.127812);animation-timing-function: cubic-bezier(0.6,-0.28,0.735,0.045)} 88% {transform: translate(1258.155029px,398.285004px) scale(0,0)} 100% {transform: translate(1258.155029px,398.285004px) scale(0,0)}}]]></style><g transform="translate(-6.99179 35.842738)"><g id="ejkw2mh1Joa3_ts" transform="translate(754.58138,456.510109) scale(0,0)"><g transform="translate(-743.305023,-476.879974)" opacity="0.31"><g><path d="M753.73,438.79L865.78,120.96c4.69-13.3-2.9-27.78-16.5-31.5v0c-13.6-3.72-27.5,4.89-30.24,18.72L753.73,438.79Z" clip-rule="evenodd" fill="#ff2c2c" fill-rule="evenodd"/><path d="M732.89,514.97L620.84,832.8c-4.69,13.3,2.9,27.78,16.5,31.5v0c13.6,3.72,27.5-4.89,30.24-18.72l65.31-330.61Z" clip-rule="evenodd" fill="#ff2c2c" fill-rule="evenodd"/></g><g><path d="M702.91,465.83L365.88,347.02c-14.1-4.97-29.46,3.07-33.41,17.5v0c-3.95,14.42,5.18,29.17,19.85,32.06l350.59,69.25Z" clip-rule="evenodd" fill="#ff2c2c" fill-rule="evenodd"/><path d="M783.7,487.93l337.03,118.82c14.1,4.97,29.46-3.07,33.41-17.5v0c3.95-14.42-5.18-29.17-19.85-32.06L783.7,487.93Z" clip-rule="evenodd" fill="#ff2c2c" fill-rule="evenodd"/></g><g><path d="M722.79,497.19L535.69,657.44c-7.83,6.71-8.32,18.65-1.07,25.97v0c7.25,7.33,19.2,6.96,25.98-.8L722.79,497.19Z" clip-rule="evenodd" fill="#38e5c7" fill-rule="evenodd"/><path d="M763.83,456.57L950.92,296.32c7.83-6.71,8.32-18.65,1.07-25.97v0c-7.25-7.33-19.2-6.96-25.98.8L763.83,456.57Z" clip-rule="evenodd" fill="#38e5c7" fill-rule="evenodd"/></g><g><path d="M782.17,469.62l335.19-37.94c14.03-1.59,23.76-14.75,21.17-28.62v0c-2.59-13.88-16.42-22.64-30.07-19.05L782.17,469.62Z" clip-rule="evenodd" fill="#daeae5" fill-rule="evenodd"/><path d="M704.45,484.14L369.26,522.08c-14.03,1.59-23.76,14.75-21.17,28.62v0c2.59,13.88,16.42,22.64,30.07,19.05l326.29-85.61Z" clip-rule="evenodd" fill="#daeae5" fill-rule="evenodd"/></g><g><path d="M736.05,438.02L698.11,102.83c-1.59-14.03-14.75-23.76-28.62-21.17v0c-13.88,2.59-22.64,16.42-19.05,30.07l85.61,326.29Z" clip-rule="evenodd" fill="#daeae5" fill-rule="evenodd"/><path d="M750.57,515.74l37.94,335.19c1.59,14.03,14.75,23.76,28.62,21.17v0c13.88-2.59,22.64-16.42,19.05-30.07L750.57,515.74Z" clip-rule="evenodd" fill="#daeae5" fill-rule="evenodd"/></g><g><path d="M763.61,497.4L949.03,659.58c7.76,6.79,8.13,18.73.8,25.98v0c-7.33,7.25-19.27,6.76-25.97-1.07L763.61,497.4Z" clip-rule="evenodd" fill="#38e5c7" fill-rule="evenodd"/><path d="M723,456.36L537.58,294.18c-7.76-6.79-8.13-18.73-.8-25.98v0c7.33-7.25,19.27-6.76,25.97,1.07L723,456.36Z" clip-rule="evenodd" fill="#38e5c7" fill-rule="evenodd"/></g></g></g><g><g><g><path d="M627.03,709.48h278.41c0,0,.01,0,.01.01v244.99c0,7.24-5.92,13.16-13.16,13.16h-252.1c-7.23,0-13.15-5.92-13.15-13.16v-245Z" clip-rule="evenodd" fill="#fff" fill-rule="evenodd"/><path d="M766.24,709.48h139.2c0,0,.01,0,.01.01v244.99c0,7.23-5.92,13.16-13.15,13.16h-112.9c-7.23,0-13.15-5.92-13.15-13.16v-245Z" clip-rule="evenodd" fill="#ddd" fill-rule="evenodd"/><rect width="278.42" height="15.55" rx="0" ry="0" transform="translate(627.03 710.22)" clip-rule="evenodd" fill="#bfbfbf" fill-rule="evenodd"/><rect width="139.21" height="15.55" rx="0" ry="0" transform="translate(766.24 710.22)" clip-rule="evenodd" fill="#9b9b9b" fill-rule="evenodd"/><path d="M682.74,710.22h27.79v244.25c0,7.23,5.92,13.16,13.15,13.16h-27.78c-7.23,0-13.15-5.92-13.15-13.16v-244.25Z" clip-rule="evenodd" fill="#ff2c2c" fill-rule="evenodd"/><rect width="27.79" height="15.55" rx="0" ry="0" transform="translate(682.74 710.22)" clip-rule="evenodd" fill="#e80000" fill-rule="evenodd"/><path d="M849.74,710.22h-27.79v244.25c0,7.23-5.92,13.16-13.15,13.16h27.79c7.23,0,13.15-5.92,13.15-13.16v-244.25Z" clip-rule="evenodd" fill="#e80000" fill-rule="evenodd"/><rect width="27.79" height="15.55" rx="0" ry="0" transform="translate(821.95 710.22)" clip-rule="evenodd" fill="#ad0000" fill-rule="evenodd"/></g><g><path d="M872.2,831.51h181.48c3.48,0,6.33,2.85,6.33,6.33v15.25c0,3.48-2.85,6.33-6.33,6.33h-181.48c-3.48,0-6.34-2.85-6.34-6.33v-15.25c.01-3.48,2.86-6.33,6.34-6.33" clip-rule="evenodd" fill="#ff2c2c" fill-rule="evenodd"/><path d="M875.9,858.96h174.07c0,0,.01,0,.01,0v99.98c0,4.52-3.7,8.22-8.22,8.22h-157.63c-4.52,0-8.22-3.7-8.22-8.22v-99.98Z" clip-rule="evenodd" fill="#ff2c2c" fill-rule="evenodd"/><path d="M962.94,858.96h87.03c0,0,.01,0,.01,0v99.98c0,4.53-3.7,8.23-8.23,8.23h-70.59c-4.52,0-8.22-3.7-8.22-8.23v-99.98Z" clip-rule="evenodd" fill="#e80000" fill-rule="evenodd"/><path d="M962.94,831.51h90.74c3.48,0,6.33,2.85,6.33,6.33v15.25c0,3.48-2.85,6.33-6.33,6.33h-90.74c-3.48,0-6.34-2.85-6.34-6.33v-15.25c0-3.48,2.86-6.33,6.34-6.33" clip-rule="evenodd" fill="#e80000" fill-rule="evenodd"/><rect width="174.07" height="9.72" rx="0" ry="0" transform="translate(875.9 859.43)" clip-rule="evenodd" fill="#e80000" fill-rule="evenodd"/><rect width="87.04" height="9.72" rx="0" ry="0" transform="translate(962.94 859.43)" clip-rule="evenodd" fill="#ad0000" fill-rule="evenodd"/><path d="M910.74,859.43h17.37v99.98c0,4.53,3.7,8.23,8.23,8.23h-17.37c-4.52,0-8.22-3.7-8.22-8.23v-99.98Z" clip-rule="evenodd" fill="#fff" fill-rule="evenodd"/><rect width="17.37" height="9.72" rx="0" ry="0" transform="translate(910.74 859.43)" clip-rule="evenodd" fill="#bfbfbf" fill-rule="evenodd"/><path d="M1015.14,859.43h-17.37v99.98c0,4.53-3.7,8.23-8.23,8.23h17.37c4.52,0,8.22-3.7,8.22-8.23v-99.98Z" clip-rule="evenodd" fill="#bfbfbf" fill-rule="evenodd"/><rect width="17.37" height="9.72" rx="0" ry="0" transform="translate(997.77 859.43)" clip-rule="evenodd" fill="#9b9b9b" fill-rule="evenodd"/><path d="M910.74,831.51h17.37c-3.48,0-6.33,2.85-6.33,6.33v15.25c0,3.48,2.85,6.33,6.33,6.33h-17.37c-3.48,0-6.34-2.85-6.34-6.33v-15.25c0-3.48,2.85-6.33,6.34-6.33" clip-rule="evenodd" fill="#fff" fill-rule="evenodd"/><path d="M1015.14,831.51h-17.37c3.48,0,6.33,2.85,6.33,6.33v15.25c0,3.48-2.85,6.33-6.33,6.33h17.37c3.48,0,6.33-2.85,6.33-6.33v-15.25c.01-3.48-2.84-6.33-6.33-6.33" clip-rule="evenodd" fill="#bfbfbf" fill-rule="evenodd"/><path d="M961.36,831.51h-34.75c-11.12-6.35-16.45-14.75-16.06-24.59.91-23.16,37.98-32.43,50.81,14.42v10.17Z" clip-rule="evenodd" fill="#fff" fill-rule="evenodd"/><path d="M956.95,831.51c-14.63-9.32-25.48-18.16-26.29-26.08-.84-8.18,5.33-12.39,13.43-6.31c9.93,7.46,13.96,21.96,17.27,32.39h-4.41Z" clip-rule="evenodd" fill="#9b9b9b" fill-rule="evenodd"/><path d="M964.52,831.51h34.75c11.12-6.35,16.45-14.75,16.06-24.59-.91-23.16-37.98-32.43-50.81,14.42v10.17Z" clip-rule="evenodd" fill="#fff" fill-rule="evenodd"/><path d="M968.93,831.51c14.63-9.32,25.48-18.16,26.29-26.08.84-8.18-5.33-12.39-13.43-6.31-9.93,7.46-13.96,21.96-17.28,32.39h4.42Z" clip-rule="evenodd" fill="#9b9b9b" fill-rule="evenodd"/><path d="M950.03,831.51h25.83v-8.97c0-3.38-2.76-6.14-6.14-6.14h-13.55c-3.38,0-6.14,2.76-6.14,6.14v8.97Z" clip-rule="evenodd" fill="#fff" fill-rule="evenodd"/></g><g><path d="M434.96,854.61h239.43c4.6,0,8.36,3.76,8.36,8.36v20.12c0,4.6-3.76,8.35-8.36,8.35h-239.43c-4.6,0-8.36-3.76-8.36-8.35v-20.12c0-4.6,3.76-8.36,8.36-8.36" clip-rule="evenodd" fill="#d7fff9" fill-rule="evenodd"/><path d="M439.84,890.82h229.65c0,0,.01,0,.01.01v65.95c0,5.97-4.88,10.85-10.85,10.85h-207.96c-5.97,0-10.85-4.88-10.85-10.85v-65.96Z" clip-rule="evenodd" fill="#d7fff9" fill-rule="evenodd"/><path d="M554.67,890.82h114.82c0,0,.01,0,.01.01v65.95c0,5.97-4.88,10.85-10.85,10.85h-93.13c-5.97,0-10.85-4.89-10.85-10.85v-65.96Z" clip-rule="evenodd" fill="#12d8b2" fill-rule="evenodd"/><path d="M554.67,854.61h119.71c4.6,0,8.36,3.76,8.36,8.36v20.11c0,4.6-3.76,8.36-8.36,8.36h-119.71c-4.6,0-8.36-3.76-8.36-8.36v-20.11c0-4.6,3.77-8.36,8.36-8.36" clip-rule="evenodd" fill="#12d8b2" fill-rule="evenodd"/><rect width="229.66" height="12.82" rx="0" ry="0" transform="translate(439.84 891.44)" clip-rule="evenodd" fill="#5ce0c7" fill-rule="evenodd"/><rect width="114.83" height="12.82" rx="0" ry="0" transform="translate(554.67 891.44)" clip-rule="evenodd" fill="#00b794" fill-rule="evenodd"/><path d="M485.8,891.44h22.92v65.35c0,5.97,4.88,10.85,10.85,10.85h-22.92c-5.97,0-10.85-4.88-10.85-10.85v-65.35Z" clip-rule="evenodd" fill="#fff" fill-rule="evenodd"/><rect width="22.92" height="12.82" rx="0" ry="0" transform="translate(485.8 891.44)" opacity="0.5" clip-rule="evenodd" fill="#9b9b9b" fill-rule="evenodd"/><path d="M623.55,891.44h-22.92v65.35c0,5.97-4.88,10.85-10.85,10.85h22.92c5.97,0,10.85-4.88,10.85-10.85v-65.35Z" clip-rule="evenodd" fill="#bfbfbf" fill-rule="evenodd"/><rect width="22.92" height="12.82" rx="0" ry="0" transform="translate(600.63 891.44)" clip-rule="evenodd" fill="#9b9b9b" fill-rule="evenodd"/><path d="M485.8,854.61h22.92c-4.6,0-8.36,3.76-8.36,8.36v20.11c0,4.6,3.76,8.36,8.36,8.36h-22.92c-4.6,0-8.36-3.76-8.36-8.36v-20.11c0-4.6,3.76-8.36,8.36-8.36" clip-rule="evenodd" fill="#fff" fill-rule="evenodd"/><path d="M623.55,854.61h-22.92c4.6,0,8.36,3.76,8.36,8.36v20.11c0,4.6-3.76,8.36-8.36,8.36h22.92c4.6,0,8.36-3.76,8.36-8.36v-20.11c-.01-4.6-3.77-8.36-8.36-8.36" clip-rule="evenodd" fill="#bfbfbf" fill-rule="evenodd"/><path d="M553.16,854.61h-33.26c-10.65-6.08-15.75-14.11-15.38-23.54.87-22.17,36.36-31.04,48.64,13.81v9.73Z" clip-rule="evenodd" fill="#fff" fill-rule="evenodd"/><path d="M548.94,854.61c-14.01-8.92-24.39-17.38-25.17-24.96-.8-7.83,5.1-11.86,12.86-6.04c9.51,7.14,13.37,21.02,16.54,31h-4.23Z" clip-rule="evenodd" fill="#9b9b9b" fill-rule="evenodd"/><path d="M556.18,854.61h33.27c10.65-6.08,15.75-14.11,15.38-23.54-.87-22.17-36.36-31.04-48.64,13.81v9.73Z" clip-rule="evenodd" fill="#fff" fill-rule="evenodd"/><path d="M560.41,854.61c14-8.92,24.39-17.38,25.17-24.96.8-7.83-5.1-11.86-12.86-6.04-9.51,7.14-13.37,21.02-16.54,31h4.23Z" clip-rule="evenodd" fill="#9b9b9b" fill-rule="evenodd"/><path d="M542.31,854.61h24.73v-8.58c0-3.23-2.64-5.87-5.88-5.87h-12.97c-3.23,0-5.88,2.64-5.88,5.87v8.58Z" clip-rule="evenodd" fill="#efefef" fill-rule="evenodd"/></g></g><g><path d="M905.44,709.48c0,0,0,0,0,0c.01,0,.01,0,0,0l.01,122.04h5.29h15.87c-11.12-6.35-16.45-14.75-16.06-24.59.44-11.15,9.25-19.08,19.71-19.08c10.47,0,22.58,7.95,29.59,28.56h6.19c7.01-20.61,19.12-28.56,29.59-28.56c10.46,0,19.27,7.93,19.71,19.08.39,9.84-4.94,18.24-16.06,24.59h15.88h38.53c3.48,0,6.33,2.85,6.33,6.33v15.25c0,3.48-2.85,6.33-6.33,6.33h-3.7v99.51c0,1.13-.23,2.21-.65,3.2-.07.16-.15.31-.22.46-.04.09-.08.18-.13.26-1.4,2.56-4.12,4.31-7.23,4.31h-32.14c-.85.3-1.75.47-2.69.47h-17.37c.94,0,1.85-.17,2.69-.47h-21.08-37.52c.85.3,1.75.47,2.69.47h-17.37c-.94,0-1.85-.17-2.69-.47h-20.57c-1.09.29-2.22.46-3.4.46v0h-55.71c-.01,0-.01,0-.02,0h-27.78c.01,0,.01,0,.02,0h-29.42-55.73c.01,0,.01,0,.02,0h-27.79c-.01,0-.01,0-.02,0h-37.21c-.01,0-.01,0-.02,0h-93.13-114.83c-5.97,0-10.85-4.88-10.85-10.85v-52.52v0-12.82v0v0h-4.89c-4.6,0-8.36-3.76-8.36-8.36v-20.12c0-4.6,3.76-8.36,8.36-8.36h50.84h22.92h11.18c-10.65-6.08-15.75-14.11-15.38-23.54.42-10.67,8.86-18.26,18.87-18.26c10.02,0,21.62,7.61,28.32,27.34h5.93c6.71-19.73,18.3-27.34,28.32-27.34c10.01,0,18.45,7.59,18.87,18.26.37,9.42-4.73,17.46-15.38,23.54h11.18h22.92h3.49v-128.83v0-15.55v0-.74h139.21h139.2v0m0-10h-139.2-139.21c-5.52,0-10,4.48-10,10v.74v15.54v118.84h-4.7c2.12-4.99,2.65-9.84,2.49-13.93-.3-7.72-3.48-14.82-8.96-20-5.36-5.07-12.43-7.87-19.9-7.87-12.39,0-23.47,7.27-31.29,20.03-7.81-12.76-18.9-20.03-31.29-20.03-7.48,0-14.55,2.79-19.91,7.86-5.47,5.18-8.65,12.28-8.95,20-.16,4.1.37,8.94,2.49,13.93h-11.21-50.84c-10.12,0-18.36,8.23-18.36,18.36v20.12c0,8.35,5.6,15.41,13.24,17.63v3.55c0,.07,0,.13,0,.2v52.33c0,11.5,9.35,20.85,20.85,20.85h114.83h93.13c.04,0,.09,0,.13,0h36.99c.04,0,.09,0,.13,0h27.79c.04,0,.09,0,.13,0h55.58h29.27c.04,0,.09,0,.13,0h27.79c.04,0,.09,0,.13,0h55.58c1.51,0,3.03-.16,4.55-.46h18.06c1.34.31,2.7.47,4.06.47h17.37c1.05,0,2.07-.16,3.02-.47h31.81h15.36c.95.3,1.97.47,3.02.47h17.37c1.37,0,2.73-.16,4.06-.47h30.77c6.67,0,12.81-3.65,16.01-9.53.12-.21.23-.43.33-.66.1-.19.27-.54.45-.96.95-2.23,1.44-4.63,1.44-7.08v-90.78c5.89-2.47,10.04-8.3,10.04-15.07v-15.25c0-9.01-7.33-16.33-16.33-16.33h-31.2c2.41-5.37,3.01-10.59,2.84-14.98-.31-7.95-3.59-15.26-9.22-20.59-5.51-5.22-12.79-8.1-20.48-8.1-12.98,0-24.58,7.76-32.68,21.34-8.1-13.58-19.7-21.34-32.68-21.34-5.28,0-10.36,1.35-14.81,3.88v-72.25c0-2.05-.63-4.01-1.75-5.65c0,0,0-.01-.01-.01c0,0,0,0,0,0-1.84-2.66-4.91-4.33-8.26-4.33v0Z"/></g></g><g id="ejkw2mh1Joa71_to" transform="translate(768.07,710.22)"><g id="ejkw2mh1Joa71_ts" transform="scale(1,1)"><g transform="translate(-768.07,-710.22)"><g><path d="M621.11,657.63h290.26c5.57,0,10.13,4.56,10.13,10.13v24.39c0,5.57-4.56,10.13-10.13,10.13h-290.26c-5.57,0-10.13-4.56-10.13-10.13v-24.39c0-5.57,4.56-10.13,10.13-10.13" clip-rule="evenodd" fill="#fff" fill-rule="evenodd"/><path d="M766.24,657.63h145.13c5.57,0,10.13,4.56,10.13,10.13v24.39c0,5.57-4.56,10.13-10.13,10.13h-145.13c-5.57,0-10.13-4.56-10.13-10.13v-24.39c0-5.57,4.56-10.13,10.13-10.13" clip-rule="evenodd" fill="#ddd" fill-rule="evenodd"/><path d="M682.74,657.63h27.79c-5.57,0-10.13,4.56-10.13,10.13v24.39c0,5.57,4.56,10.13,10.13,10.13h-27.79c-5.57,0-10.13-4.56-10.13-10.13v-24.39c0-5.57,4.56-10.13,10.13-10.13" clip-rule="evenodd" fill="#ff2c2c" fill-rule="evenodd"/><path d="M849.74,657.63h-27.79c5.57,0,10.13,4.56,10.13,10.13v24.39c0,5.57-4.56,10.13-10.13,10.13h27.79c5.57,0,10.13-4.56,10.13-10.13v-24.39c0-5.57-4.56-10.13-10.13-10.13" clip-rule="evenodd" fill="#e80000" fill-rule="evenodd"/><path d="M764.41,657.63h-40.33c-12.91-7.37-19.09-17.12-18.64-28.54c1.06-26.88,44.08-37.63,58.97,16.74v11.8Z" clip-rule="evenodd" fill="#ff2c2c" fill-rule="evenodd"/><path d="M759.29,657.63c-16.98-10.81-29.57-21.08-30.52-30.27-.97-9.49,6.18-14.38,15.59-7.32c11.53,8.65,16.21,25.49,20.05,37.58h-5.12Z" clip-rule="evenodd" fill="#ad0000" fill-rule="evenodd"/><path d="M768.07,657.63h40.33c12.91-7.37,19.09-17.12,18.64-28.54-1.06-26.88-44.08-37.63-58.97,16.74v11.8Z" clip-rule="evenodd" fill="#ff2c2c" fill-rule="evenodd"/><path d="M773.19,657.63c16.98-10.81,29.57-21.08,30.51-30.27.97-9.49-6.18-14.38-15.58-7.32-11.53,8.65-16.21,25.49-20.05,37.58h5.12Z" clip-rule="evenodd" fill="#ad0000" fill-rule="evenodd"/><path d="M751.25,657.63h29.98v-10.41c0-3.92-3.21-7.12-7.12-7.12h-15.73c-3.92,0-7.12,3.2-7.12,7.12v10.41Z" clip-rule="evenodd" fill="#ff2c2c" fill-rule="evenodd"/></g><g><path d="M804.17,606.96c12.13,0,22.36,9.2,22.87,22.13.45,11.42-5.74,21.16-18.64,28.54h13.55h27.79h61.63c.38,0,.75.03,1.12.07c5.05.56,9.01,4.87,9.01,10.06v24.39c0,.7-.07,1.38-.21,2.04-.95,4.61-5.05,8.1-9.92,8.1h-61.63-27.79-55.71-55.71-27.79-61.63c-5.57,0-10.13-4.56-10.13-10.13v-24.39c0-5.57,4.56-10.13,10.13-10.13h61.63h27.79h13.55c-12.91-7.37-19.09-17.12-18.64-28.54.51-12.94,10.74-22.14,22.87-22.13c12.15,0,26.21,9.22,34.34,33.14h7.19c8.12-23.93,22.18-33.15,34.33-33.15m0-10c-15.22,0-28.78,9.64-37.93,26.4-9.15-16.76-22.71-26.4-37.93-26.4c0,0,0,0-.01,0-8.52,0-16.57,3.18-22.67,8.95-6.22,5.89-9.84,13.99-10.19,22.79-.22,5.5.66,12.17,4.29,18.93h-16.99-61.63c-11.1,0-20.13,9.03-20.13,20.13v24.39c0,11.1,9.03,20.13,20.13,20.13h61.63h27.79h55.71h55.71h27.79h61.63c9.51,0,17.8-6.76,19.72-16.08.27-1.33.41-2.7.41-4.05v-24.39c0-10.26-7.69-18.86-17.9-20-.77-.09-1.5-.13-2.23-.13h-61.63-16.99c3.63-6.76,4.51-13.43,4.29-18.93-.35-8.8-3.97-16.89-10.2-22.79-6.1-5.77-14.15-8.95-22.67-8.95v0Z"/></g></g></g></g><circle r="28.41" transform="translate(185.501829 859.92)" fill="#daeae5"/><circle r="46.69" transform="translate(1158.920811 181.643918)" fill="none" stroke="#00c58d" stroke-width="10" stroke-miterlimit="10"/><circle r="28.96" transform="translate(1228.671553 917.29)" fill="#daeae5"/><circle r="19.45" transform="translate(227.885892 563.078472)" fill="none" stroke="#00c58d" stroke-width="10" stroke-miterlimit="10"/><circle r="16.8" transform="translate(1080.241707 717.316307)" fill="none" stroke="#00c58d" stroke-width="10" stroke-miterlimit="10"/><g id="ejkw2mh1Joa89_tr" transform="translate(472.445159,86.746412) rotate(0)"><polygon points="528.83,165.87 538.26,184.97 559.34,188.03 544.08,202.9 547.68,223.89 528.83,213.98 509.98,223.89 513.58,202.9 498.32,188.03 519.4,184.97" transform="translate(-528.830017,-194.879997)" fill="#ff2c2c"/></g><g id="ejkw2mh1Joa90_tr" transform="translate(1316.121666,710.219978) rotate(0)"><polygon points="1258.15,678.48 1270.75,704.01 1298.92,708.1 1278.54,727.97 1283.35,756.03 1258.15,742.78 1232.96,756.03 1237.77,727.97 1217.38,708.1 1245.55,704.01" transform="translate(-1258.150024,-717.255005)" fill="#ff2c2c"/></g><g id="ejkw2mh1Joa91_tr" transform="translate(336.62,741) rotate(0)"><polygon points="336.62,712.74 345.8,731.34 366.34,734.33 351.48,748.81 354.99,769.26 336.62,759.61 318.25,769.26 321.76,748.81 306.9,734.33 327.44,731.34" transform="translate(-336.62,-741)" fill="#ff2c2c"/></g><g id="ejkw2mh1Joa92_ts" transform="translate(756.991791,442.459058) scale(0,0)"><g transform="translate(-743.290009,-481.349884)"><path d="M539.28,431.88c6.09,2.18,9.14,5.1,9.14,8.73c0,1.18-.55,3.41-1.64,6.69l-26.2,75.74c-.18.64-.5,1.41-.96,2.32s-1.66,2.12-3.62,3.62-4.28,2.25-6.96,2.25-5-.75-6.96-2.25-3.25-2.98-3.89-4.44l-15.97-47.08c-10.1,29.84-15.24,45.04-15.42,45.58-.18.55-.59,1.32-1.23,2.32s-1.37,1.91-2.18,2.73c-2.09,2.09-4.6,3.14-7.51,3.14s-5.3-.68-7.17-2.05c-1.87-1.36-3.12-2.73-3.75-4.09l-.96-2.05-26.34-75.74c-1-3-1.5-5.23-1.5-6.69c0-3.64,3.05-6.5,9.14-8.6c2.64-.91,5.03-1.36,7.17-1.36s3.77.73,4.91,2.18c1.14,1.46,2.16,3.68,3.07,6.69l15.01,45.58l14.88-44.9c1.27-3.82,3.59-6.46,6.96-7.92c1.45-.64,3.34-.96,5.66-.96s4.48.75,6.48,2.25s3.28,2.98,3.82,4.44l15.69,47.36L524,439.52c.73-2.09,1.32-3.64,1.77-4.64.46-1,1.3-1.98,2.53-2.93c1.23-.96,2.75-1.43,4.57-1.43c1.82-.01,3.96.45,6.41,1.36Z"/><path d="M562.76,443.34c0-2.09.07-3.66.21-4.71.14-1.04.57-2.25,1.3-3.62c1.27-2.46,4.82-3.69,10.64-3.69c6.37,0,10.14,1.68,11.33,5.05.46,1.55.68,3.91.68,7.1v75.88c0,2.18-.07,3.78-.2,4.78-.14,1-.57,2.18-1.3,3.55-1.28,2.46-4.82,3.68-10.64,3.68-6.37,0-10.1-1.73-11.19-5.19-.55-1.45-.82-3.77-.82-6.96v-75.87Z"/><path d="M669.27,435.49c.86-1.59,2.16-2.66,3.89-3.21s3.89-.82,6.48-.82s4.68.23,6.28.68c1.59.46,2.77,1,3.55,1.64.77.64,1.34,1.59,1.71,2.87.55,1.46.82,3.78.82,6.96v75.74c0,2.18-.07,3.78-.2,4.78-.14,1-.57,2.18-1.3,3.55-1.28,2.46-4.82,3.68-10.64,3.68-3.55,0-6-.27-7.37-.82-1.36-.55-2.5-1.41-3.41-2.59-20.47-27.29-33.94-45.13-40.4-53.5v44.9c0,2.18-.07,3.78-.2,4.78-.14,1-.57,2.18-1.3,3.55-1.28,2.46-4.82,3.68-10.64,3.68-5.64,0-9.1-1.23-10.37-3.68-.73-1.36-1.16-2.59-1.3-3.69-.14-1.09-.21-2.68-.21-4.78v-76.15c0-3.46.43-5.98,1.3-7.57.86-1.59,2.16-2.66,3.89-3.21s3.96-.82,6.69-.82s4.89.25,6.48.75s2.71,1.07,3.34,1.71c.36.27,1.41,1.46,3.14,3.55c19.2,26.11,32.02,43.35,38.49,51.72v-46.13c-.01-3.45.42-5.97,1.28-7.57Z"/><path d="M774.35,435.49c.86-1.59,2.16-2.66,3.89-3.21s3.89-.82,6.48-.82s4.68.23,6.28.68c1.59.46,2.77,1,3.55,1.64.77.64,1.34,1.59,1.71,2.87.55,1.46.82,3.78.82,6.96v75.74c0,2.18-.07,3.78-.2,4.78-.14,1-.57,2.18-1.3,3.55-1.28,2.46-4.82,3.68-10.64,3.68-3.55,0-6-.27-7.37-.82-1.36-.55-2.5-1.41-3.41-2.59-20.47-27.29-33.94-45.13-40.4-53.5v44.9c0,2.18-.07,3.78-.2,4.78-.14,1-.57,2.18-1.3,3.55-1.28,2.46-4.82,3.68-10.64,3.68-5.64,0-9.1-1.23-10.37-3.68-.73-1.36-1.16-2.59-1.3-3.69-.14-1.09-.21-2.68-.21-4.78v-76.15c0-3.46.43-5.98,1.3-7.57.86-1.59,2.16-2.66,3.89-3.21s3.96-.82,6.69-.82s4.89.25,6.48.75s2.71,1.07,3.34,1.71c.36.27,1.41,1.46,3.14,3.55c19.2,26.11,32.02,43.35,38.49,51.72v-46.13c-.01-3.45.42-5.97,1.28-7.57Z"/><path d="M838.97,507.21h42.03c2.09,0,3.66.07,4.71.21c1.04.14,2.25.57,3.62,1.3c2.46,1.27,3.68,4.82,3.68,10.64c0,6.37-1.68,10.1-5.05,11.19-1.55.55-3.91.82-7.1.82h-54.04c-6.37,0-10.1-1.73-11.19-5.19-.55-1.45-.82-3.77-.82-6.96v-75.88c0-4.64.86-7.8,2.59-9.48s5-2.52,9.83-2.52h53.77c2.09,0,3.66.07,4.71.2c1.04.14,2.25.57,3.62,1.3c2.46,1.27,3.68,4.82,3.68,10.64c0,6.37-1.68,10.1-5.05,11.19-1.55.55-3.91.82-7.1.82h-41.9v13.78h27.02c2.09,0,3.66.07,4.71.2c1.04.14,2.25.57,3.62,1.3c2.46,1.28,3.68,4.82,3.68,10.65c0,6.37-1.73,10.1-5.19,11.19-1.55.55-3.91.82-7.1.82h-26.75v13.78Z"/><path d="M985.27,514.44c1.37,3.27,2.05,5.64,2.05,7.1c0,3.46-2.82,6.37-8.46,8.73-2.91,1.27-5.25,1.91-7.03,1.91s-3.23-.43-4.37-1.3c-1.14-.86-1.98-1.75-2.52-2.66-.91-1.73-4.46-9.96-10.64-24.7l-4.23.27h-17.2v15.42c0,2.09-.07,3.66-.2,4.71-.14,1.05-.57,2.25-1.3,3.62-1.28,2.46-4.82,3.69-10.64,3.69-6.37,0-10.1-1.68-11.19-5.05-.55-1.55-.82-3.91-.82-7.1v-75.74c0-2.09.07-3.66.21-4.71.14-1.04.57-2.25,1.3-3.62c1.27-2.46,4.82-3.69,10.64-3.69h29.48c8,0,15.78,2.91,23.34,8.73c3.64,2.82,6.64,6.64,9.01,11.46s3.55,10.19,3.55,16.1c0,10.28-3.41,18.74-10.24,25.38c1.98,4.85,5.07,11.99,9.26,21.45Zm-52.41-34.8h17.47c2.64,0,5.28-1,7.92-3s3.96-5,3.96-9.01c0-4-1.32-7.03-3.96-9.08s-5.37-3.07-8.19-3.07h-17.2v24.16Z"/><path d="M1003.01,510.55c.91-1.77,2.3-2.98,4.16-3.62s4.78-.96,8.73-.96c3.96,0,6.82.87,8.6,2.59c1.77,1.73,2.66,4.46,2.66,8.19v2.18c0,2.18-.07,3.8-.21,4.84-.14,1.05-.57,2.3-1.3,3.75-1.46,2.64-4.94,3.96-10.44,3.96-5.51,0-9.14-.89-10.92-2.66-1.77-1.77-2.66-5.21-2.66-10.3.01-3.53.47-6.19,1.38-7.97Zm18.29-15.89c-1.73.46-4.05.68-6.96.68s-5.23-.23-6.96-.68-2.93-1.27-3.62-2.46c-.68-1.18-1.09-2.23-1.23-3.14s-.2-2.32-.2-4.23v-43.26c0-1.91.07-3.34.2-4.3.14-.96.57-2.02,1.3-3.21.73-1.18,1.96-2.02,3.68-2.52c1.73-.5,4.05-.75,6.96-.75s5.23.25,6.96.75s2.93,1.36,3.62,2.59c.68,1.23,1.09,2.32,1.23,3.28s.21,2.39.21,4.3v43.26c0,1.91-.07,3.32-.21,4.23s-.57,1.93-1.3,3.07-1.96,1.93-3.68,2.39Z"/><path d="M1046.27,510.55c.91-1.77,2.3-2.98,4.16-3.62s4.78-.96,8.73-.96c3.96,0,6.82.87,8.6,2.59c1.77,1.73,2.66,4.46,2.66,8.19v2.18c0,2.18-.07,3.8-.21,4.84-.14,1.05-.57,2.3-1.3,3.75-1.46,2.64-4.94,3.96-10.44,3.96-5.51,0-9.14-.89-10.92-2.66-1.77-1.77-2.66-5.21-2.66-10.3.01-3.53.47-6.19,1.38-7.97Zm18.29-15.89c-1.73.46-4.05.68-6.96.68s-5.23-.23-6.96-.68-2.93-1.27-3.62-2.46c-.68-1.18-1.09-2.23-1.23-3.14s-.2-2.32-.2-4.23v-43.26c0-1.91.07-3.34.2-4.3.14-.96.57-2.02,1.3-3.21.73-1.18,1.96-2.02,3.68-2.52c1.73-.5,4.05-.75,6.96-.75s5.23.25,6.96.75s2.93,1.36,3.62,2.59c.68,1.23,1.09,2.32,1.23,3.28s.21,2.39.21,4.3v43.26c0,1.91-.07,3.32-.21,4.23s-.57,1.93-1.3,3.07-1.96,1.93-3.68,2.39Z"/></g></g><g id="ejkw2mh1Joa101_ts" transform="translate(263.414986,238.140007) scale(0,0)"><g transform="translate(-263.414986,-238.140007)"><g><path d="M264.12,224.81L278.27,111.8c.59-4.73-2.95-8.97-7.71-9.22v0c-4.76-.25-8.73,3.59-8.64,8.36l2.2,113.87Z" clip-rule="evenodd" fill="#ff2c2c" fill-rule="evenodd"/><path d="M262.71,251.47L248.56,364.48c-.59,4.73,2.95,8.97,7.71,9.22v0c4.76.25,8.73-3.59,8.64-8.36l-2.2-113.87Z" clip-rule="evenodd" fill="#ff2c2c" fill-rule="evenodd"/></g><g><path d="M249.28,237.4l-119.83-15c-5.01-.63-9.51,3.13-9.77,8.18v0c-.27,5.05,3.81,9.26,8.86,9.16l120.74-2.34Z" clip-rule="evenodd" fill="#ff2c2c" fill-rule="evenodd"/><path d="M277.55,238.88l119.83,15c5.01.63,9.51-3.13,9.77-8.18v0c.27-5.05-3.81-9.26-8.86-9.16l-120.74,2.34Z" clip-rule="evenodd" fill="#ff2c2c" fill-rule="evenodd"/></g><g><path d="M258.1,246.32l-50.26,66.37c-2.1,2.78-1.41,6.76,1.51,8.65v0c2.92,1.9,6.84.92,8.52-2.13l40.23-72.89Z" clip-rule="evenodd" fill="#38e5c7" fill-rule="evenodd"/><path d="M268.73,229.96l50.26-66.37c2.1-2.78,1.41-6.76-1.51-8.65v0c-2.92-1.9-6.84-.92-8.52,2.13l-40.23,72.89Z" clip-rule="evenodd" fill="#38e5c7" fill-rule="evenodd"/></g><g><path d="M275.72,232.95l107.96-36.63c4.52-1.53,6.78-6.58,4.93-10.97v0c-1.85-4.4-7.05-6.29-11.3-4.13L275.72,232.95Z" clip-rule="evenodd" fill="#daeae5" fill-rule="evenodd"/><path d="M251.1,243.33L143.14,279.96c-4.52,1.53-6.78,6.58-4.93,10.97v0c1.85,4.4,7.05,6.29,11.3,4.13L251.1,243.33Z" clip-rule="evenodd" fill="#daeae5" fill-rule="evenodd"/></g><g><path d="M258.22,225.83L221.6,117.87c-1.53-4.52-6.58-6.78-10.97-4.93v0c-4.4,1.85-6.29,7.05-4.13,11.3l51.72,101.59Z" clip-rule="evenodd" fill="#daeae5" fill-rule="evenodd"/><path d="M268.61,250.45l36.63,107.96c1.53,4.52,6.58,6.78,10.97,4.93v0c4.4-1.85,6.29-7.05,4.13-11.3L268.61,250.45Z" clip-rule="evenodd" fill="#daeae5" fill-rule="evenodd"/></g><g><path d="M271.6,243.46l72.89,40.22c3.05,1.68,4.03,5.6,2.13,8.52v0c-1.9,2.92-5.88,3.62-8.65,1.51L271.6,243.46Z" clip-rule="evenodd" fill="#38e5c7" fill-rule="evenodd"/><path d="M255.23,232.82L182.34,192.6c-3.05-1.68-4.03-5.6-2.13-8.52v0c1.9-2.92,5.88-3.62,8.65-1.51l66.37,50.25Z" clip-rule="evenodd" fill="#38e5c7" fill-rule="evenodd"/></g></g></g><g id="ejkw2mh1Joa120_ts" transform="translate(1258.155029,398.285004) scale(0,0)"><g transform="translate(-1258.155029,-398.285004)"><g><path d="M1250.23,390.58l-62.73-70.43c-2.62-2.95-7.2-3.05-9.95-.22v0c-2.75,2.83-2.52,7.4.5,9.94l72.18,60.71Z" clip-rule="evenodd" fill="#ff2c2c" fill-rule="evenodd"/><path d="M1266.08,405.99l62.73,70.43c2.62,2.95,7.2,3.05,9.95.22v0c2.75-2.83,2.52-7.4-.5-9.94l-72.18-60.71Z" clip-rule="evenodd" fill="#ff2c2c" fill-rule="evenodd"/></g><g><path d="M1249.98,406.69l-74.69,66.52c-3.13,2.78-3.23,7.63-.23,10.55v0c3,2.92,7.85,2.67,10.54-.53l64.38-76.54Z" clip-rule="evenodd" fill="#ff2c2c" fill-rule="evenodd"/><path d="M1266.32,389.88l74.69-66.52c3.13-2.78,3.23-7.63.23-10.55v0c-3-2.92-7.85-2.67-10.54.53l-64.38,76.54Z" clip-rule="evenodd" fill="#ff2c2c" fill-rule="evenodd"/></g><g><path d="M1260.35,406.06l13.97,67.51c.58,2.83,3.44,4.56,6.22,3.77v0c2.78-.79,4.3-3.76,3.32-6.47l-23.51-64.81Z" clip-rule="evenodd" fill="#38e5c7" fill-rule="evenodd"/><path d="M1255.95,390.51L1241.98,323c-.58-2.83-3.44-4.56-6.22-3.77v0c-2.78.79-4.3,3.76-3.32,6.47l23.51,64.81Z" clip-rule="evenodd" fill="#38e5c7" fill-rule="evenodd"/></g><g><path d="M1261.63,387.78l36.03-87.26c1.51-3.65-.4-7.82-4.15-9.06v0c-3.75-1.24-7.77.96-8.73,4.79l-23.15,91.53Z" clip-rule="evenodd" fill="#daeae5" fill-rule="evenodd"/><path d="M1254.68,408.79l-36.03,87.26c-1.51,3.65.4,7.82,4.15,9.06v0c3.75,1.24,7.77-.96,8.73-4.79l23.15-91.53Z" clip-rule="evenodd" fill="#daeae5" fill-rule="evenodd"/></g><g><path d="M1247.65,394.81l-87.26-36.03c-3.65-1.51-7.82.4-9.06,4.15v0c-1.24,3.75.96,7.77,4.79,8.73l91.53,23.15Z" clip-rule="evenodd" fill="#daeae5" fill-rule="evenodd"/><path d="M1268.66,401.76l87.26,36.03c3.65,1.51,7.82-.4,9.06-4.15v0c1.24-3.75-.96-7.77-4.79-8.73l-91.53-23.15Z" clip-rule="evenodd" fill="#daeae5" fill-rule="evenodd"/></g><g><path d="M1265.93,396.08l64.81-23.5c2.71-.98,5.69.54,6.47,3.32v0c.79,2.78-.95,5.64-3.77,6.22l-67.51,13.96Z" clip-rule="evenodd" fill="#38e5c7" fill-rule="evenodd"/><path d="M1250.38,400.49l-64.81,23.5c-2.71.98-5.69-.54-6.47-3.32v0c-.79-2.78.95-5.64,3.77-6.22l67.51-13.96Z" clip-rule="evenodd" fill="#38e5c7" fill-rule="evenodd"/></g></g></g></g></svg>