<svg width="28" height="28" viewBox="0 0 28 28" fill="none" xmlns="http://www.w3.org/2000/svg">
<path d="M0 5C0 2.23858 2.23858 0 5 0H23C25.7614 0 28 2.23858 28 5V23C28 25.7614 25.7614 28 23 28H5C2.23858 28 0 25.7614 0 23V5Z" fill="#F2502D"/>
<path fill-rule="evenodd" clip-rule="evenodd" d="M6.37657 6.67333C6.37657 6.30146 6.68473 6 7.06486 6H9.15656C9.84783 6 10.4615 6.43273 10.6801 7.07428L11.1795 8.53985C11.2107 8.6315 11.2984 8.69332 11.3972 8.69332H21.3928C22.489 8.69332 23.263 9.74391 22.9164 10.7612L20.775 17.0457C20.5564 17.6872 19.9427 18.1199 19.2514 18.1199H11.6534C11.2733 18.1199 10.9652 17.8185 10.9652 17.4466C10.9652 17.0747 11.2733 16.7733 11.6534 16.7733H19.2514C19.3502 16.7733 19.4379 16.7114 19.4691 16.6198L21.6104 10.3354C21.6599 10.1901 21.5494 10.04 21.3928 10.04H11.3972C10.7059 10.04 10.0922 9.60725 9.87359 8.9657L9.37421 7.50013C9.34298 7.40848 9.25531 7.34666 9.15656 7.34666H7.06486C6.68473 7.34666 6.37657 7.0452 6.37657 6.67333ZM7.29429 12.06C7.29429 11.6881 7.60245 11.3866 7.98258 11.3866H13.4889C13.869 11.3866 14.1772 11.6881 14.1772 12.06C14.1772 12.4318 13.869 12.7333 13.4889 12.7333H7.98258C7.60245 12.7333 7.29429 12.4318 7.29429 12.06ZM5 14.3044C5 13.9325 5.30816 13.6311 5.68829 13.6311H11.6534C12.0336 13.6311 12.3417 13.9325 12.3417 14.3044C12.3417 14.6763 12.0336 14.9777 11.6534 14.9777H5.68829C5.30816 14.9777 5 14.6763 5 14.3044ZM11.6892 19.9749C11.6204 20.0207 11.5477 20.1077 11.5129 20.2348C11.4781 20.3618 11.4966 20.4727 11.5328 20.5461C11.5682 20.6177 11.6108 20.6403 11.6374 20.6473C11.664 20.6543 11.7125 20.6556 11.7798 20.6108C11.8486 20.565 11.9213 20.478 11.9561 20.3509C11.9909 20.2239 11.9724 20.113 11.9362 20.0396C11.9008 19.968 11.8582 19.9454 11.8316 19.9384C11.805 19.9314 11.7565 19.9301 11.6892 19.9749ZM10.1832 19.8862C10.4081 19.0653 11.2426 18.3899 12.1879 18.6376C13.1332 18.8854 13.5106 19.8786 13.2858 20.6995C13.0609 21.5204 12.2264 22.1959 11.2811 21.9481C10.3358 21.7003 9.95837 20.7071 10.1832 19.8862ZM19.1938 19.9749C19.125 20.0207 19.0523 20.1077 19.0175 20.2348C18.9827 20.3618 19.0012 20.4727 19.0374 20.5461C19.0728 20.6177 19.1154 20.6403 19.142 20.6473C19.1686 20.6543 19.2171 20.6556 19.2844 20.6108C19.3532 20.565 19.4259 20.478 19.4607 20.3509C19.4955 20.2239 19.4771 20.113 19.4408 20.0396C19.4054 19.968 19.3628 19.9454 19.3362 19.9384C19.3096 19.9314 19.2611 19.9301 19.1938 19.9749ZM17.6878 19.8862C17.9127 19.0653 18.7472 18.3899 19.6925 18.6376C20.6378 18.8854 21.0152 19.8786 20.7904 20.6995C20.5655 21.5204 19.731 22.1959 18.7857 21.9481C17.8404 21.7003 17.463 20.7071 17.6878 19.8862Z" fill="white"/>
</svg>
