<?xml version="1.0" encoding="utf-8"?>
<!-- Generator: Adobe Illustrator 26.3.1, SVG Export Plug-In . SVG Version: 6.00 Build 0)  -->
<svg version="1.1" id="圖層_1" xmlns="http://www.w3.org/2000/svg" xmlns:xlink="http://www.w3.org/1999/xlink" x="0px" y="0px"
	 viewBox="0 0 200 200" style="enable-background:new 0 0 200 200;" xml:space="preserve">
<style type="text/css">
	.st0{fill:none;stroke:#FFFFFF;stroke-width:2.042;stroke-linecap:round;stroke-linejoin:round;stroke-miterlimit:10;}
	.st1{fill:#FF0000;}
	.st2{fill:#FFFFFF;}
</style>
<g>
	<path class="st0" d="M60.62,111.63"/>
	<g>
		<path class="st1" d="M100,2.24L100,2.24C46.01,2.24,2.24,46.01,2.24,100v0c0,53.99,43.77,97.76,97.76,97.76h0
			c53.99,0,97.76-43.77,97.76-97.76v0C197.76,46.01,153.99,2.24,100,2.24z"/>
		<circle class="st2" cx="100" cy="69.61" r="27.18"/>
		<path class="st2" d="M100,175.9c25.5,0,48.08-12.65,61.85-32c-10.89-23.25-34.48-39.37-61.85-39.37s-50.97,16.11-61.85,39.37
			C51.92,163.24,74.5,175.9,100,175.9z"/>
	</g>
</g>
</svg>
