<?xml version="1.0" encoding="utf-8"?>
<!-- Generator: Adobe Illustrator 26.2.1, SVG Export Plug-In . SVG Version: 6.00 Build 0)  -->
<svg version="1.1" id="圖層_1" xmlns="http://www.w3.org/2000/svg" xmlns:xlink="http://www.w3.org/1999/xlink" x="0px" y="0px"
	 viewBox="0 0 1080 1080" style="enable-background:new 0 0 1080 1080;" xml:space="preserve">
<style type="text/css">
	.st0{fill-rule:evenodd;clip-rule:evenodd;fill:#E2E2E2;}
	.st1{fill-rule:evenodd;clip-rule:evenodd;fill:#FFFFFF;}
	.st2{fill-rule:evenodd;clip-rule:evenodd;fill:#FF2C2C;}
	.st3{fill-rule:evenodd;clip-rule:evenodd;fill:url(#SVGID_1_);}
	.st4{fill:none;stroke:#000000;stroke-width:3;stroke-linecap:round;stroke-linejoin:round;stroke-miterlimit:10;}
	.st5{fill-rule:evenodd;clip-rule:evenodd;fill:url(#SVGID_00000052062685819264045030000004350786576933611453_);}
	.st6{fill-rule:evenodd;clip-rule:evenodd;fill:#FFD2D2;}
	.st7{fill-rule:evenodd;clip-rule:evenodd;}
	.st8{fill:#A0A0A0;stroke:#000000;stroke-width:3;stroke-linecap:round;stroke-linejoin:round;stroke-miterlimit:10;}
	.st9{fill:#FFFFFF;stroke:#000000;stroke-width:3;stroke-linecap:round;stroke-linejoin:round;stroke-miterlimit:10;}
	.st10{fill-rule:evenodd;clip-rule:evenodd;fill:url(#SVGID_00000038399710970973310660000002275333888980531369_);}
	
		.st11{fill-rule:evenodd;clip-rule:evenodd;stroke:#000000;stroke-width:3;stroke-linecap:round;stroke-linejoin:round;stroke-miterlimit:10;}
	.st12{fill-rule:evenodd;clip-rule:evenodd;fill:url(#SVGID_00000078008596435286236280000010729456738904057524_);}
	.st13{fill:#FFFFFF;}
	.st14{fill-rule:evenodd;clip-rule:evenodd;fill:#E0883F;}
	.st15{fill-rule:evenodd;clip-rule:evenodd;fill:#CC722F;}
	.st16{fill-rule:evenodd;clip-rule:evenodd;fill:#F49A56;}
	.st17{fill-rule:evenodd;clip-rule:evenodd;fill:#00A51B;}
	.st18{fill-rule:evenodd;clip-rule:evenodd;fill:#FFE4AE;}
</style>
<g>
	<g>
		<g>
			<g>
				<g>
					<g>
						<path class="st0" d="M549.9,691.5c-3.5,0-6.9-0.8-10.1-2.2c-0.1-0.1-0.3-0.1-0.4-0.3l-17.6-8.7l-33.4-16.5
							c-3.4-1.7-6.3-4.1-8.5-7.1c-0.1-0.3-0.4-0.5-0.7-0.8c-4.8-7.1-5.5-16.3-1.7-24c0.4-0.7,0.7-1.3,1-2
							c4.3-6.9,12.1-11.3,20.3-11.3c3.7,0,7.2,0.8,10.5,2.5l48.2,23.7l2.9,1.4c5.8,2.8,10,7.7,12.1,13.6c2.1,6,1.6,12.5-1.2,18.2
							C567.2,686.4,559.1,691.5,549.9,691.5z"/>
						<path d="M498.8,620.6c3.3,0,6.6,0.8,9.6,2.2l2.6,1.3l45.6,22.4l2.9,1.4c10.9,5.4,15.3,18.5,10,29.2
							c-3.8,7.7-11.5,12.2-19.7,12.2c-3.1,0-6.3-0.7-9.3-2.1c-0.1,0-0.3-0.1-0.3-0.1l-12.1-5.9l-5.6-2.8L489.1,662
							c-3.1-1.6-5.9-3.8-7.9-6.6c-0.3-0.3-0.4-0.5-0.5-0.8c-4.3-6.3-5.1-14.7-1.6-22c0.3-0.7,0.7-1.3,1-1.8
							C484.2,624.4,491.3,620.6,498.8,620.6 M498.8,616.6L498.8,616.6c-8.9,0-17.3,4.7-22,12.2c-0.4,0.8-0.8,1.4-1.2,2.2
							c-4.1,8.3-3.4,18.2,1.8,26c0.1,0.3,0.4,0.7,0.7,0.9c2.4,3.3,5.6,5.9,9.2,7.6l33.4,16.5l5.6,2.8l11.9,5.9
							c0.1,0.1,0.3,0.1,0.4,0.3c3.5,1.7,7.2,2.5,11,2.5c10,0,18.7-5.5,23.2-14.4c3-6.2,3.5-13.2,1.3-19.7c-2.2-6.6-6.8-11.8-13-14.8
							l-2.9-1.4l-45.5-22.4l-2.6-1.3C506.5,617.6,502.7,616.6,498.8,616.6L498.8,616.6z"/>
					</g>
				</g>
				<path class="st1" d="M569.5,677.3c-5.2,10.7-18.2,15.2-29,10.1c-0.1,0-0.3-0.1-0.3-0.1l-12.1-5.9
					c-11.9-17.6-17.4-37.5-17.2-57.1l45.6,22.4l2.9,1.4C570.3,653.3,574.8,666.4,569.5,677.3z"/>
				<path class="st2" d="M569.5,677.3c-5.2,10.7-18.2,15.2-29,10.1l16-40.8l2.9,1.4C570.3,653.3,574.8,666.4,569.5,677.3z"/>
			</g>
			<g>
				<g>
					<path class="st0" d="M429,751.3c-21.6,0-41.9-8.5-57.3-24c-15.3-15.5-23.7-36-23.7-57.9c0-4.1,0.3-8.1,0.9-12.2
						c2.6-17.4,10.5-33.3,22.8-45.9c15.3-15.5,35.7-24,57.3-24c39.8,0,74.2,30,80,69.9c0.5,3.9,0.9,8,0.9,12.2
						c0,21.9-8.4,42.5-23.7,57.9C471,742.7,450.7,751.3,429,751.3z"/>
					<path d="M429,589.2c39.6,0,72.5,29.6,78.1,68.2c0.5,3.8,0.9,7.9,0.9,11.9c0,22.2-8.8,42.1-23.1,56.6
						c-14.3,14.4-34.1,23.5-55.8,23.5c-21.8,0-41.6-8.9-55.8-23.5c-14.3-14.4-23.1-34.5-23.1-56.6c0-4.1,0.3-8,0.9-11.9
						c2.5-17.3,10.6-32.9,22.3-44.7C387.6,598.2,407.3,589.2,429,589.2 M429,585.3c-22.2,0-43,8.8-58.6,24.6
						c-12.7,12.8-20.7,29.1-23.3,46.9c-0.7,4.1-0.9,8.3-0.9,12.5c0,22.4,8.7,43.5,24.2,59.4c15.6,15.9,36.4,24.6,58.6,24.6
						s43-8.8,58.6-24.6c15.6-15.9,24.2-37,24.2-59.4c0-4.2-0.3-8.4-0.9-12.5c-2.9-19.7-12.7-37.7-27.5-50.9
						C468.3,592.7,449.1,585.3,429,585.3L429,585.3z"/>
				</g>
				<path class="st1" d="M508.1,669.2c0,22.2-8.8,42.1-23.1,56.6c-4.7,4.8-10.1,9-15.9,12.5c-13.4,2.8-27.4,4.2-41.9,4.2
					c-12.3,0-24.4-1-35.9-3c-6.6-3.7-12.6-8.3-17.8-13.6c-14.3-14.4-23.1-34.5-23.1-56.6c0-4.1,0.3-8,0.9-11.9
					c22.9-10,49.7-15.7,78.1-15.7c28.4,0,55.1,5.8,78.1,15.7C507.7,661.2,508.1,665.3,508.1,669.2z"/>
				<g>
					
						<linearGradient id="SVGID_1_" gradientUnits="userSpaceOnUse" x1="1351.1387" y1="1676.3182" x2="1355.4349" y2="1532.392" gradientTransform="matrix(-3.464102e-07 1 -1 -3.464102e-07 1994.9233 -694.4708)">
						<stop  offset="0" style="stop-color:#FFFFFF"/>
						<stop  offset="1" style="stop-color:#FF2C2C"/>
					</linearGradient>
					<path class="st3" d="M431.3,676.1h18.9c8.5,0,15.5,6.9,15.5,15.6l0,0c0,8.7-6.9,15.6-15.5,15.6h-34.3
						c-8.5,0-15.5-6.9-15.5-15.6v-13.9v-1.7v-48.8c0-8.7,6.9-15.6,15.5-15.6l0,0c8.5,0,15.5,6.9,15.5,15.6V676.1L431.3,676.1z"/>
				</g>
			</g>
			<g>
				<g>
					<g>
						<path class="st0" d="M406.7,704.5c-4.7,0-9.3-1.4-13.2-4.1l-2.8-1.8l-42.2-28.3l-2.5-1.6c-10.2-6.9-13.5-20.3-7.6-31.1
							c0.4-0.7,0.8-1.3,1.2-2c4.5-6.6,11.8-10.5,19.8-10.5c0.7,0,1.2,0,1.8,0.1c0.4,0,0.8,0,1.2,0.1c3.7,0.4,7.2,1.7,10.4,3.8
							l30.9,20.8l16.4,11c0,0,0.1,0.1,0.3,0.1c10.6,7.5,13.4,22.2,6.2,32.9C422.1,700.5,414.6,704.5,406.7,704.5L406.7,704.5z"/>
						<path d="M359.4,626.9c0.5,0,1.2,0,1.7,0.1c0.3,0,0.7,0,0.9,0.1c3.3,0.4,6.6,1.6,9.6,3.5l30.9,20.8l5.2,3.5l11.1,7.5
							c0.1,0,0.3,0.1,0.3,0.3c9.7,6.8,12.3,20.2,5.6,30.1c-4.2,6.3-11.1,9.7-18.1,9.7c-4.2,0-8.4-1.2-12.2-3.7l-2.8-1.8l-42.2-28.3
							l-2.5-1.7c-9.4-6.3-12.3-18.7-6.9-28.6c0.4-0.7,0.7-1.2,1-1.8C345.5,630.3,352.5,626.9,359.4,626.9 M359.4,622.9
							c-8.7,0-16.6,4.2-21.4,11.4c-0.5,0.7-0.9,1.4-1.3,2.1c-6.4,11.8-2.8,26.2,8.3,33.7l2.5,1.7l42.2,28.3l2.8,1.8
							c4.3,2.9,9.3,4.5,14.4,4.5c8.7,0,16.6-4.2,21.4-11.4c7.9-11.5,4.8-27.5-6.7-35.5c-0.1-0.1-0.3-0.1-0.4-0.3l-11-7.5l-5.2-3.5
							l-31.1-20.8c-3.3-2.2-7.2-3.7-11.1-4.2c-0.4-0.1-0.9-0.1-1.2-0.1C360.9,623.1,360.1,622.9,359.4,622.9L359.4,622.9z"/>
					</g>
				</g>
				<path class="st1" d="M424.8,692.8c6.7-10,4.2-23.3-5.6-30.1c-0.1,0-0.1-0.1-0.3-0.3l-11.1-7.5c-21.1-1.6-41.2,3.5-58.2,13.5
					l42.2,28.3l2.8,1.8C404.5,705.5,418.1,702.9,424.8,692.8z"/>
				<path class="st2" d="M424.8,692.8c6.7-10,4.2-23.3-5.6-30.1l-27.4,34.2l2.8,1.8C404.5,705.5,418.1,702.9,424.8,692.8z"/>
			</g>
			<g>
				<path class="st4" d="M457.9,380.4c-15.7,7.3-29.9,29.8-30.1,52.7"/>
				<g>
					<path class="st2" d="M461.4,390.9c-9.4,0-17-7.6-17-17s7.6-17,17-17c9.4,0,17,7.6,17,17C478.4,383.3,470.8,390.9,461.4,390.9z"
						/>
					<path d="M461.4,358.9c8.3,0,15.1,6.7,15.1,15.1c0,8.3-6.7,15.1-15.1,15.1c-8.3,0-15.1-6.7-15.1-15.1S453.1,358.9,461.4,358.9
						 M461.4,355c-10.5,0-19,8.5-19,19c0,10.5,8.5,19,19,19c10.5,0,19-8.5,19-19C480.4,363.5,471.9,355,461.4,355L461.4,355z"/>
				</g>
				<g>
					<ellipse class="st1" cx="461.4" cy="366.3" rx="6.4" ry="4.2"/>
				</g>
			</g>
			<g>
				<g>
					<g>
						<path class="st1" d="M338.1,580.1c-0.5,0-1,0-1.4,0c-12.6-0.5-23.9-7.3-30.1-18.5c-3-5.4-4.7-11.5-4.7-17.8v-10.2
							c0-9.2,3.4-17.8,9.6-24.6c6.8-7.5,16.6-11.8,26.7-11.8h218.2c10.5,0,20.4,4.6,27.4,12.5c5.8,6.6,8.9,15.1,8.9,23.9v10.2
							c0,5.9-1.4,11.9-4.3,17c-6.2,11.4-18,18.9-30.9,19.3c-0.3,0-0.7,0-1,0L338.1,580.1L338.1,580.1z"/>
						<g>
							<path d="M556.3,499.1c10.4,0,19.5,4.6,25.8,11.8c5.2,6,8.5,13.9,8.5,22.7v10.2c0,5.9-1.4,11.4-4.1,16.1
								c-5.6,10.5-16.6,17.8-29.2,18.2c-0.4,0-0.7,0-1,0H338.1c-0.5,0-0.9,0-1.4,0c-12.3-0.5-22.8-7.3-28.6-17.4
								c-2.9-5-4.5-10.7-4.5-16.9v-10.2c0-9,3.4-17.2,9-23.3c6.3-6.8,15.3-11.1,25.3-11.1H556.3 M556.3,495.1H338.1
								c-10.6,0-21,4.5-28.2,12.3c-6.6,7.1-10.1,16.3-10.1,26v10.2c0,6.6,1.7,13.1,5,18.9c6.6,11.7,18.5,18.9,31.9,19.4
								c0.5,0,1,0,1.6,0h218.2c0.4,0,0.8,0,1.2,0c13.6-0.4,26.1-8.1,32.5-20.2c2.9-5.5,4.5-11.8,4.5-18.1v-10.2
								c0-9.3-3.4-18.2-9.4-25.2C577.8,499.9,567.3,495.1,556.3,495.1L556.3,495.1z"/>
						</g>
					</g>
					<g>
						<path class="st0" d="M303.7,533.4v10.2c0,6.2,1.6,11.9,4.5,16.9c3.7-8.9,5.9-21,5.9-34.1c0-5.8-0.4-11.1-1.2-16.3
							C307.1,516.2,303.7,524.5,303.7,533.4z"/>
					</g>
					<g>
						<path class="st0" d="M581.1,526.5c0,12.8,2.1,24.5,5.5,33.4c2.6-4.8,4.1-10.4,4.1-16.1v-10.2c0-8.7-3.1-16.6-8.5-22.7
							C581.5,515.7,581.1,521,581.1,526.5z"/>
					</g>
				</g>
				<g>
					<path class="st1" d="M364.4,626.7c-40.5,0-73.4-32.9-73.4-73.4c0-76.2,62-138.2,138.2-138.2s138.2,62,138.2,138.2
						c0,40.5-32.9,73.4-73.4,73.4H364.4z"/>
					<g>
						<path d="M429.2,417.3c75.2,0,136.2,61,136.2,136.2l0,0c0,39.5-32,71.4-71.4,71.4H364.5c-39.5,0-71.4-32-71.4-71.4l0,0
							C293,478.2,353.9,417.3,429.2,417.3L429.2,417.3 M429.2,413.3c-37.4,0-72.6,14.5-99.1,41c-26.5,26.5-41,61.6-41,99.1
							c0,41.6,33.8,75.4,75.4,75.4h129.4c41.6,0,75.4-33.8,75.4-75.4c0-37.4-14.5-72.6-41-99.1C501.8,427.9,466.5,413.3,429.2,413.3
							L429.2,413.3z"/>
					</g>
				</g>
				<g>
					<g>
						
							<linearGradient id="SVGID_00000146465321601936450950000010023467177046627205_" gradientUnits="userSpaceOnUse" x1="1683.6031" y1="204.7287" x2="1696.4661" y2="427.3568" gradientTransform="matrix(-1 0 0 1 2142.0156 154)">
							<stop  offset="0" style="stop-color:#FFFFFF"/>
							<stop  offset="1" style="stop-color:#FF2C2C"/>
						</linearGradient>
						
							<path style="fill-rule:evenodd;clip-rule:evenodd;fill:url(#SVGID_00000146465321601936450950000010023467177046627205_);" d="
							M335,549.4c0,17.3,6.6,33,17.3,44.4s25.4,18.4,41.7,18.4h106.8c15.9,0,30.3-6.7,40.9-17.6c2.9-3,5.5-6.2,7.7-9.7
							c2.6-3.9,4.7-8.4,6.4-13c0.9-2.6,1.7-5.2,2.4-8c1-4.6,1.6-9.4,1.6-14.4c0-8.8-0.9-17.4-2.6-25.7c-4.7-22.7-15.5-43-30.3-58.9
							c-20.3-21.6-48.4-35-79.4-35c-17.7,0-34.5,4.3-49.4,12.2c-1,0.5-2.1,1-3,1.7c-6.8,3.8-13.1,8.3-19,13.5
							c-2.8,2.5-5.5,5.1-8,7.7C347.6,486.5,335,516.4,335,549.4z"/>
					</g>
					<g>
						<path class="st6" d="M528.6,544c0,12.2,9.3,22,20.7,22c3.1,0,6.3-0.8,8.9-2.1c1-4.6,1.6-9.4,1.6-14.4c0-8.8-0.9-17.4-2.6-25.7
							c-2.5-1-5.1-1.7-7.9-1.7C537.8,522,528.6,531.8,528.6,544z"/>
					</g>
					<g>
						<ellipse class="st6" cx="427.7" cy="544" rx="20.7" ry="22"/>
					</g>
				</g>
			</g>
			<g>
				<ellipse class="st7" cx="537.9" cy="528.8" rx="11.9" ry="15.3"/>
				<ellipse class="st1" cx="541.2" cy="524.9" rx="4.7" ry="6.2"/>
			</g>
			<g>
				<circle class="st7" cx="444.8" cy="528.8" r="15.3"/>
				<circle class="st1" cx="449.1" cy="524.9" r="6.2"/>
			</g>
			<g>
				<path class="st1" d="M295.9,577.7c-0.4,0-0.7,0-1,0c-7.2-0.4-14.2-3.8-19.4-9.4c-6.7-7.3-10.2-17.7-9.6-28.4l0.8-13.8
					c0.7-10.7,5.4-20.7,12.8-27.1c5.5-4.7,12.1-7.2,18.9-7.2c0.5,0,1,0,1.6,0c10.7,0.7,18.9,11.1,18.1,23.5l-2.4,41.3
					c-0.4,5.9-2.6,11.4-6.6,15.3C305.4,575.6,300.7,577.7,295.9,577.7L295.9,577.7z"/>
				<g>
					<path d="M298.2,493.6c0.5,0,1,0,1.4,0c9.7,0.5,16.9,10.2,16.3,21.5l-2.4,41.3c-0.4,5.6-2.6,10.6-5.9,14.2
						c-3.1,3.3-7.3,5.2-11.8,5.2c-0.3,0-0.7,0-0.9,0c-7.1-0.4-13.4-3.7-18.1-8.9c-6.2-6.7-9.7-16.4-9-27l0.8-13.8
						c0.7-10.6,5.4-19.9,12.2-25.7C285.6,496.1,291.7,493.6,298.2,493.6 M298.2,489.6c-7.3,0-14.3,2.6-20.1,7.7
						c-8,6.8-12.8,17.2-13.5,28.6l-0.8,13.8c-0.7,11.3,3,22.2,10.1,29.9c5.6,6,13,9.7,20.8,10.1c0.4,0,0.8,0,1.2,0
						c5.4,0,10.6-2.4,14.7-6.6c4.2-4.3,6.7-10.2,7.1-16.6l2.4-41.3c0.8-13.4-8.1-24.9-19.9-25.6
						C299.4,489.6,298.7,489.6,298.2,489.6L298.2,489.6z"/>
				</g>
			</g>
			<g>
				<path class="st0" d="M293.2,534.5c0.7-11.3-2.6-21.9-8.7-29.6c-1.2-1.6-2.6-3.1-4.1-4.5c-6.8,5.9-11.5,15.1-12.2,25.7l-0.8,13.8
					c-0.7,10.6,3,20.3,9,27C286,559.9,292.4,548.1,293.2,534.5z"/>
			</g>
		</g>
		<path class="st4" d="M507.9,541.8c-0.5,0.7-4.6,5.4-11.4,5.1c-6.6-0.3-10.4-4.8-10.9-5.5"/>
	</g>
	<g>
		<g>
			<path class="st8" d="M564.4,665.8h151c5.9,0,10.6,4.7,10.6,10.6v0.7c0,5.9-4.7,10.6-10.6,10.6h-151c-5.9,0-10.6-4.7-10.6-10.6
				v-0.7C553.7,670.5,558.5,665.8,564.4,665.8z"/>
			<path class="st8" d="M723.3,672.6H588.7c-4.5,0-8-3.5-8-8v-72.7c0-12.3,10.1-22.4,22.4-22.4h105.6c12.3,0,22.4,10.1,22.4,22.4
				v72.7C731.2,668.9,727.6,672.6,723.3,672.6z"/>
		</g>
		<circle class="st9" cx="655.9" cy="622.7" r="16.1"/>
	</g>
	<g>
		<g>
			<g>
				<path class="st1" d="M537.3,431.3c-0.8,0-1.6-0.5-1.8-1.2c-0.3-0.8-0.1-1.6,0.4-2.1l16.9-16.9c-11.3-11.9-17.4-27.5-17.4-44
					c0-35.4,28.8-64.2,64.2-64.2s64.2,28.8,64.2,64.2s-28.8,64.2-64.2,64.2H537.3z"/>
				<g>
					<path d="M599.6,304.8c34.3,0,62.3,27.9,62.3,62.3s-27.9,62.3-62.3,62.3h-62.3l18.2-18.2c-11.3-11.3-18.2-26.9-18.2-44
						C537.3,332.7,565.2,304.8,599.6,304.8 M599.6,300.9c-36.4,0-66.2,29.8-66.2,66.2c0,16.4,5.9,31.9,16.6,43.9l-15.6,15.6
						c-1.2,1.2-1.4,2.8-0.9,4.3c0.7,1.4,2.1,2.5,3.7,2.5h62.3c36.4,0,66.2-29.8,66.2-66.2S636,300.9,599.6,300.9L599.6,300.9z"/>
				</g>
			</g>
		</g>
		<g>
			<g>
				
					<linearGradient id="SVGID_00000085210769924167856880000006355020105538492827_" gradientUnits="userSpaceOnUse" x1="696.6769" y1="-152.6376" x2="686.6043" y2="58.8878" gradientTransform="matrix(0.9356 -0.353 0.353 0.9356 -48.4759 600.8416)">
					<stop  offset="0" style="stop-color:#FFFFFF"/>
					<stop  offset="1" style="stop-color:#FF2C2C"/>
				</linearGradient>
				<path style="fill-rule:evenodd;clip-rule:evenodd;fill:url(#SVGID_00000085210769924167856880000006355020105538492827_);" d="
					M650.8,366.8c0,16-7.3,30.3-18.7,39.6c-8.8,7.2-20.1,11.5-32.5,11.5c-12.5,0-23.6-4.3-32.5-11.5c-11.4-9.3-18.7-23.6-18.7-39.6
					c0-28.3,22.9-51.3,51.3-51.3C627.9,315.6,650.8,338.5,650.8,366.8z"/>
			</g>
			<circle class="st1" cx="599.6" cy="351.1" r="12.2"/>
			<path class="st1" d="M628.1,395.9c0,0.7,0,1.4-0.1,2.1c-7.7,6.3-17.6,10.1-28.3,10.1c-10.7,0-20.6-3.8-28.3-10.1
				c-0.1-0.7-0.1-1.4-0.1-2.1c0-15.7,12.7-28.4,28.4-28.4C615.4,367.5,628.1,380,628.1,395.9z"/>
		</g>
	</g>
	<g>
		<g>
			<path class="st1" d="M757.6,613.1c-41.3,0-74.8-33.6-74.8-74.8s33.6-74.8,74.8-74.8s74.8,33.6,74.8,74.8
				C832.3,579.5,798.8,613.1,757.6,613.1z M757.6,480.3c-32,0-57.9,26-57.9,57.9s26,57.9,57.9,57.9c32,0,57.9-26,57.9-57.9
				C815.6,506.3,789.6,480.3,757.6,480.3z"/>
			<path d="M757.6,465.5c40.1,0,72.9,32.6,72.9,72.9c0,40.1-32.6,72.9-72.9,72.9c-40.1,0-72.9-32.6-72.9-72.9
				C684.8,498.1,717.5,465.5,757.6,465.5 M757.6,598.3c33,0,59.9-26.9,59.9-59.9s-26.9-59.9-59.9-59.9s-59.9,26.9-59.9,59.9
				S724.5,598.3,757.6,598.3 M757.6,461.6c-42.3,0-76.8,34.5-76.8,76.8c0,42.3,34.5,76.8,76.8,76.8c42.3,0,76.8-34.5,76.8-76.8
				S800,461.6,757.6,461.6L757.6,461.6z M757.6,594.4c-30.9,0-56-25.2-56-56s25.2-56,56-56s56,25.2,56,56S788.4,594.4,757.6,594.4
				L757.6,594.4z"/>
		</g>
		<path class="st11" d="M773.6,558.8h-44c-3.3,0-6-2.8-6-6v-24.4c0-3.3,2.8-6,6-6h44c3.3,0,6,2.8,6,6v24.4
			C779.7,556.1,776.9,558.8,773.6,558.8z"/>
		<g>
			<path class="st1" d="M737.1,560.8c-4.5,0-8-3.5-8-8v-24.4c0-4.5,3.5-8,8-8h44c4.5,0,8,3.5,8,8v24.4c0,4.5-3.5,8-8,8H737.1z"/>
			<path d="M781.2,522.4c3.3,0,6,2.8,6,6v24.4c0,3.3-2.8,6-6,6h-44c-3.3,0-6-2.8-6-6v-24.4c0-3.3,2.8-6,6-6H781.2 M781.2,518.5h-44
				c-5.5,0-10,4.5-10,10v24.4c0,5.5,4.5,10,10,10h44c5.5,0,10-4.5,10-10v-24.4C791.2,522.9,786.7,518.5,781.2,518.5L781.2,518.5z"/>
		</g>
		<g>
			<circle class="st1" cx="761.4" cy="540.6" r="9.6"/>
			<path d="M761.4,533c4.2,0,7.6,3.4,7.6,7.6s-3.4,7.6-7.6,7.6c-4.2,0-7.6-3.4-7.6-7.6C753.8,536.4,757.2,533,761.4,533
				 M761.4,529.1c-6.3,0-11.5,5.1-11.5,11.5s5.1,11.5,11.5,11.5S773,547,773,540.6S767.7,529.1,761.4,529.1L761.4,529.1z"/>
		</g>
		<rect x="758.4" y="558.8" class="st11" width="6" height="27.3"/>
		<g>
			
				<linearGradient id="SVGID_00000074439526028929313780000017251113434378379660_" gradientUnits="userSpaceOnUse" x1="694.6252" y1="479.1522" x2="774.8441" y2="477.5316" gradientTransform="matrix(1 0 0 1 0 154)">
				<stop  offset="0" style="stop-color:#FFFFFF"/>
				<stop  offset="0.1875" style="stop-color:#FFFCFC"/>
				<stop  offset="0.3296" style="stop-color:#FFF2F2"/>
				<stop  offset="0.4567" style="stop-color:#FFE2E2"/>
				<stop  offset="0.5751" style="stop-color:#FFCBCB"/>
				<stop  offset="0.6874" style="stop-color:#FFADAD"/>
				<stop  offset="0.7952" style="stop-color:#FF8989"/>
				<stop  offset="0.8977" style="stop-color:#FF5F5F"/>
				<stop  offset="0.9966" style="stop-color:#FF2E2E"/>
				<stop  offset="1" style="stop-color:#FF2C2C"/>
			</linearGradient>
			<path style="fill-rule:evenodd;clip-rule:evenodd;fill:url(#SVGID_00000074439526028929313780000017251113434378379660_);" d="
				M752.3,689.8c-1,0-2-0.9-2-2V584.7c0-6.2,5-11,11-11s11,5,11,11v103.2c0,1-0.9,2-2,2H752.3z"/>
			<path d="M761.4,575.5c5,0,9,4.1,9,9v103.2h-18.2V584.5C752.3,579.5,756.3,575.5,761.4,575.5L761.4,575.5 M761.4,571.6
				c-7.2,0-13,5.9-13,13v103.2c0,2.2,1.7,3.9,3.9,3.9h18.2c2.2,0,3.9-1.7,3.9-3.9V584.5C774.4,577.4,768.6,571.6,761.4,571.6
				L761.4,571.6z"/>
		</g>
	</g>
	<g>
		<rect x="287.6" y="712.3" width="23.7" height="37.2"/>
		<rect x="793.2" y="712.3" width="23.7" height="37.2"/>
		<g>
			<path class="st13" d="M284.2,949.3c-1,0-2-0.9-2-2V742.7c0-1,0.9-2,2-2h30.4c1,0,2,0.9,2,2v204.6c0,1-0.9,2-2,2L284.2,949.3
				L284.2,949.3z"/>
			<g>
				<path d="M314.6,742.7v204.6h-30.4V742.7H314.6 M314.6,738.8h-30.4c-2.2,0-3.9,1.7-3.9,3.9v204.6c0,2.2,1.7,3.9,3.9,3.9h30.4
					c2.2,0,3.9-1.7,3.9-3.9V742.7C318.5,740.5,316.8,738.8,314.6,738.8L314.6,738.8z"/>
			</g>
		</g>
		<g>
			<path class="st13" d="M789.7,949.3c-1,0-2-0.9-2-2V742.7c0-1,0.9-2,2-2h30.4c1,0,2,0.9,2,2v204.6c0,1-0.9,2-2,2L789.7,949.3
				L789.7,949.3z"/>
			<g>
				<path d="M820.2,742.7v204.6h-30.4V742.7H820.2 M820.2,738.8h-30.4c-2.2,0-3.9,1.7-3.9,3.9v204.6c0,2.2,1.7,3.9,3.9,3.9h30.4
					c2.2,0,3.9-1.7,3.9-3.9V742.7C824.1,740.5,822.4,738.8,820.2,738.8L820.2,738.8z"/>
			</g>
		</g>
		<g>
			<path class="st13" d="M264.1,724.4c-5.9,0-10.6-4.7-10.6-10.6V699c0-5.9,4.7-10.6,10.6-10.6h577.8c5.9,0,10.6,4.7,10.6,10.6v14.8
				c0,5.9-4.7,10.6-10.6,10.6H264.1z"/>
			<g>
				<path d="M841.9,690.3c4.8,0,8.7,3.9,8.7,8.7v14.8c0,4.8-3.9,8.7-8.7,8.7H264.1c-4.8,0-8.7-3.9-8.7-8.7V699
					c0-4.8,3.9-8.7,8.7-8.7L841.9,690.3 M841.9,686.4H264.1c-6.9,0-12.6,5.6-12.6,12.6v14.8c0,6.9,5.6,12.6,12.6,12.6h577.8
					c6.9,0,12.6-5.6,12.6-12.6V699C854.5,692,848.9,686.4,841.9,686.4L841.9,686.4z"/>
			</g>
		</g>
	</g>
	<g>
		<line class="st4" x1="152.8" y1="948.7" x2="912.2" y2="948.7"/>
		<line class="st4" x1="924.9" y1="948.7" x2="947" y2="948.7"/>
	</g>
	<g>
		<g>
			<path class="st14" d="M226.6,946.8c-11.4,0-20.7-9.3-20.7-20.7v-56h85.2v56c0,11.4-9.3,20.7-20.7,20.7H226.6z"/>
			<path d="M289.2,872.1v54c0,10.4-8.4,18.7-18.7,18.7h-43.8c-10.4,0-18.7-8.4-18.7-18.7v-54H289.2 M293.1,868.2H204v57.9
				c0,12.6,10.1,22.7,22.7,22.7h43.8c12.6,0,22.7-10.1,22.7-22.7V868.2L293.1,868.2z"/>
		</g>
		<g>
			<rect x="206.6" y="868.2" class="st15" width="83.9" height="27.8"/>
		</g>
		<g>
			<path class="st16" d="M203.2,880.8c-3.8,0-6.9-3.1-6.9-6.9v-10c0-3.8,3.1-6.9,6.9-6.9h92c3.8,0,6.9,3.1,6.9,6.9v10
				c0,3.8-3.1,6.9-6.9,6.9H203.2z"/>
			<path d="M295.2,858.9c2.8,0,5,2.2,5,5v10c0,2.8-2.2,5-5,5h-92c-2.8,0-5-2.2-5-5v-10c0-2.8,2.2-5,5-5H295.2 M295.2,854.9h-92
				c-5,0-8.9,4.1-8.9,8.9v10c0,5,4.1,8.9,8.9,8.9h92c5,0,8.9-4.1,8.9-8.9v-10C304.2,858.9,300.2,854.9,295.2,854.9L295.2,854.9z"/>
		</g>
		<path class="st4" d="M279.3,915.2c0.7,13.6-2.2,19.5-16.9,19.5"/>
	</g>
	<g>
		<g>
			<path class="st17" d="M234,855.9V846c0-3-2.5-5.4-5.4-5.4h-4.2c-6.6,0-11.9-5.4-11.9-11.9v-2.6c0-2.8,2.2-5,5-5
				c0.4,0,0.7,0,1,0.1c2.2,0.4,3.9,2.6,3.9,5.1c0,2.4,1.8,4.2,4.2,4.2h2.4c2.8,0,5-2.2,5-5v-31.5c0-9,7.3-16.5,16.5-16.5
				c0.9,0,1.8,0.1,2.8,0.3c7.9,1.3,13.8,8.5,13.8,16.8v10.7c0,3.3,2.8,6,6,6s5.9-2.6,5.9-6c0-4.7,3.9-8.7,8.7-8.7
				c0.4,0,0.8,0,1.2,0.1c4.3,0.5,7.6,4.5,7.6,9v3.5c0,10.7-8.7,19.4-19.4,19.4h-2.9c-3.9,0-7.1,3.1-7.1,7.1v19.9L234,855.9
				L234,855.9z"/>
			<path d="M250.4,779.7L250.4,779.7c0.8,0,1.6,0,2.4,0.1c6.9,1,12.1,7.5,12.1,14.8v10.7c0,4.5,3.5,8,8,8c4.3,0,7.9-3.5,7.9-8
				c0-3.7,3-6.7,6.7-6.7c0.3,0,0.7,0,0.9,0c3.3,0.4,5.9,3.5,5.9,7.1v3.5c0,9.6-7.9,17.4-17.4,17.4h-2.9c-5,0-9,4.1-9,9v18h-29v-7.9
				c0-4.1-3.3-7.3-7.3-7.3h-4.1c-5.5,0-10-4.5-10-10V826c0-0.8,0.3-1.6,0.9-2.1c0.5-0.5,1.3-0.9,2.1-0.9c0.3,0,0.4,0,0.7,0
				c1.3,0.3,2.4,1.7,2.4,3.3c0,3.4,2.8,6.2,6.2,6.2h2.4c3.8,0,6.9-3.1,6.9-6.9V794c0-3.9,1.6-7.5,4.2-10.2
				C242.9,781.3,246.6,779.7,250.4,779.7 M250.4,775.8c-10.2,0-18.5,8.3-18.5,18.5v31.5c0,1.7-1.3,3-3,3h-2.4c-1.3,0-2.2-1-2.2-2.2
				c0-3.4-2.2-6.4-5.5-7.1c-0.5-0.1-0.9-0.1-1.4-0.1c-3.8,0-6.9,3.1-6.9,6.9v2.6c0,7.7,6.2,13.9,13.9,13.9h4.1c2,0,3.4,1.6,3.4,3.4
				V858h36.8v-21.9c0-2.9,2.4-5.1,5.1-5.1h2.9c11.8,0,21.4-9.6,21.4-21.4V806c0-5.5-3.9-10.4-9.3-11c-0.5,0-0.9-0.1-1.4-0.1
				c-5.9,0-10.6,4.7-10.6,10.6c0,2.2-1.7,4.1-3.9,4.1s-4.1-1.8-4.1-4.1v-10.7c0-9.2-6.4-17.3-15.5-18.7
				C252.5,775.9,251.4,775.8,250.4,775.8L250.4,775.8z"/>
		</g>
		<line class="st4" x1="256.5" y1="792.7" x2="256.5" y2="798.4"/>
		<line class="st4" x1="241.8" y1="805.8" x2="241.8" y2="811.7"/>
		<line class="st4" x1="258" y1="820.5" x2="258" y2="826.4"/>
		<line class="st4" x1="246.3" y1="835.1" x2="246.3" y2="841"/>
	</g>
	<g>
		<ellipse class="st7" cx="268.9" cy="203.4" rx="72.6" ry="72.6"/>
		<g>
			<path d="M268.9,132.8c38.9,0,70.6,31.6,70.6,70.6s-31.6,70.6-70.6,70.6s-70.6-31.7-70.6-70.8S229.9,132.8,268.9,132.8
				 M268.9,128.9c-41.2,0-74.6,33.4-74.6,74.6s33.4,74.6,74.6,74.6s74.6-33.4,74.6-74.6S310,128.9,268.9,128.9L268.9,128.9z"/>
		</g>
	</g>
	<g>
		<circle class="st18" cx="281.8" cy="203.4" r="72.6"/>
		<g>
			<path d="M281.8,132.8c38.9,0,70.6,31.6,70.6,70.6s-31.6,70.6-70.6,70.6s-70.6-31.6-70.6-70.6S242.9,132.8,281.8,132.8
				 M281.8,128.9c-41.2,0-74.6,33.4-74.6,74.6s33.4,74.6,74.6,74.6s74.6-33.4,74.6-74.6S323,128.9,281.8,128.9L281.8,128.9z"/>
		</g>
	</g>
	<g>
		<circle class="st1" cx="281.8" cy="203.4" r="54.7"/>
		<g>
			<path d="M281.8,150.7c29.1,0,52.7,23.7,52.7,52.7s-23.7,52.7-52.7,52.7c-29,0-52.7-23.7-52.7-52.7S252.7,150.7,281.8,150.7
				 M281.8,146.7c-31.2,0-56.6,25.4-56.6,56.6s25.4,56.6,56.6,56.6s56.6-25.4,56.6-56.6S313.2,146.7,281.8,146.7L281.8,146.7z"/>
		</g>
	</g>
	<polyline class="st4" points="281.8,167.2 281.8,203.4 304.2,185.3 	"/>
</g>
</svg>
