<svg id="eBwCkR4Z0mI1" xmlns="http://www.w3.org/2000/svg" xmlns:xlink="http://www.w3.org/1999/xlink" viewBox="0 0 1080 1080" shape-rendering="geometricPrecision" text-rendering="geometricPrecision"><style><![CDATA[#eBwCkR4Z0mI3_to {animation: eBwCkR4Z0mI3_to__to 3000ms linear infinite normal forwards}@keyframes eBwCkR4Z0mI3_to__to { 0% {transform: translate(490.634186px,408.499201px);animation-timing-function: cubic-bezier(0.785,0.135,0.15,0.86)} 50% {transform: translate(490.634186px,489.08667px);animation-timing-function: cubic-bezier(0.785,0.135,0.15,0.86)} 100% {transform: translate(490.634186px,408.499201px)}} #eBwCkR4Z0mI19 {animation: eBwCkR4Z0mI19__m 3000ms linear infinite normal forwards}@keyframes eBwCkR4Z0mI19__m { 0% {d: path('M436.44,186.93C466.17,199.9,493.06,239.75,493.69,280.62');animation-timing-function: cubic-bezier(0.785,0.135,0.15,0.86)} 16.666667% {d: path('M571.99,180.89C538.524041,192.54936,493.06,239.75,493.69,280.62');animation-timing-function: cubic-bezier(0.785,0.135,0.15,0.86)} 33.333333% {d: path('M436.44,186.93C466.17,199.9,493.06,239.75,493.69,280.62');animation-timing-function: cubic-bezier(0.785,0.135,0.15,0.86)} 50% {d: path('M571.99,180.89C538.524041,192.54936,493.06,239.75,493.69,280.62');animation-timing-function: cubic-bezier(0.785,0.135,0.15,0.86)} 66.666667% {d: path('M436.44,186.93C466.17,199.9,493.06,239.75,493.69,280.62');animation-timing-function: cubic-bezier(0.785,0.135,0.15,0.86)} 83.333333% {d: path('M571.99,180.89C538.524041,192.54936,493.06,239.75,493.69,280.62');animation-timing-function: cubic-bezier(0.785,0.135,0.15,0.86)} 100% {d: path('M436.44,186.93C466.17,199.9,493.06,239.75,493.69,280.62')}} #eBwCkR4Z0mI20_to {animation: eBwCkR4Z0mI20_to__to 3000ms linear infinite normal forwards}@keyframes eBwCkR4Z0mI20_to__to { 0% {transform: translate(425.979996px,180.890007px);animation-timing-function: cubic-bezier(0.785,0.135,0.15,0.86)} 16.666667% {transform: translate(560.525955px,180.890007px);animation-timing-function: cubic-bezier(0.785,0.135,0.15,0.86)} 33.333333% {transform: translate(425.979996px,180.890007px);animation-timing-function: cubic-bezier(0.785,0.135,0.15,0.86)} 50% {transform: translate(560.525955px,180.890007px);animation-timing-function: cubic-bezier(0.785,0.135,0.15,0.86)} 66.666667% {transform: translate(425.979996px,180.890007px);animation-timing-function: cubic-bezier(0.785,0.135,0.15,0.86)} 83.333333% {transform: translate(560.525955px,180.890007px);animation-timing-function: cubic-bezier(0.785,0.135,0.15,0.86)} 100% {transform: translate(425.979996px,180.890007px)}} #eBwCkR4Z0mI65_tr {animation: eBwCkR4Z0mI65_tr__tr 3000ms linear infinite normal forwards}@keyframes eBwCkR4Z0mI65_tr__tr { 0% {transform: translate(641.159193px,636.28px) rotate(0deg);animation-timing-function: cubic-bezier(0.785,0.135,0.15,0.86)} 10% {transform: translate(641.159193px,636.28px) rotate(-14.578929deg);animation-timing-function: cubic-bezier(0.785,0.135,0.15,0.86)} 20% {transform: translate(641.159193px,636.28px) rotate(-0.957737deg);animation-timing-function: cubic-bezier(0.785,0.135,0.15,0.86)} 30% {transform: translate(641.159193px,636.28px) rotate(-11.399274deg);animation-timing-function: cubic-bezier(0.785,0.135,0.15,0.86)} 40% {transform: translate(641.159193px,636.28px) rotate(7.130272deg);animation-timing-function: cubic-bezier(0.785,0.135,0.15,0.86)} 50% {transform: translate(641.159193px,636.28px) rotate(0deg);animation-timing-function: cubic-bezier(0.785,0.135,0.15,0.86)} 60% {transform: translate(641.159193px,636.28px) rotate(-14.578929deg);animation-timing-function: cubic-bezier(0.785,0.135,0.15,0.86)} 70% {transform: translate(641.159193px,636.28px) rotate(-0.957737deg);animation-timing-function: cubic-bezier(0.785,0.135,0.15,0.86)} 80% {transform: translate(641.159193px,636.28px) rotate(-11.399274deg);animation-timing-function: cubic-bezier(0.785,0.135,0.15,0.86)} 90% {transform: translate(641.159193px,636.28px) rotate(7.130272deg);animation-timing-function: cubic-bezier(0.785,0.135,0.15,0.86)} 100% {transform: translate(641.159193px,636.28px) rotate(0deg)}} #eBwCkR4Z0mI76_ts {animation: eBwCkR4Z0mI76_ts__ts 3000ms linear infinite normal forwards}@keyframes eBwCkR4Z0mI76_ts__ts { 0% {transform: translate(496.640015px,911.369995px) scale(1,1);animation-timing-function: cubic-bezier(0.785,0.135,0.15,0.86)} 50% {transform: translate(496.640015px,911.369995px) scale(1.424187,1.424191);animation-timing-function: cubic-bezier(0.785,0.135,0.15,0.86)} 100% {transform: translate(496.640015px,911.369995px) scale(1,1)}}]]></style><circle r="317.53" transform="translate(563.6 471.39)" clip-rule="evenodd" fill="#e2e2e2" fill-rule="evenodd"/><g id="eBwCkR4Z0mI3_to" transform="translate(490.634186,408.499201)"><g transform="translate(-490.634186,-468.620011)"><g><g><g><g><path d="M323.77,725.95c-9.92,0-19.27-3.83-26.33-10.78-7.16-7.04-11.15-16.44-11.23-26.48s3.75-19.5,10.79-26.66l3.43-3.47l53.08-54.01l3.06-3.13c7.13-7.24,16.64-11.23,26.8-11.23c8.6,0,17,2.97,23.66,8.37.96.78,1.85,1.57,2.71,2.42c9.63,9.48,13.44,23.49,9.93,36.57-.13.47-.28,1.05-.5,1.66-1.8,5.67-4.83,10.69-9,14.92l-38.98,39.66-6.61,6.71-13.94,14.16c-.15.16-.3.31-.46.45-7.11,7.01-16.48,10.84-26.41,10.84c0,0,0,0,0,0Z" clip-rule="evenodd" fill="#e2e2e2" fill-rule="evenodd"/><path d="M383.38,595.2c7.27,0,14.54,2.41,20.51,7.25.81.65,1.58,1.34,2.34,2.09c8.67,8.53,11.56,20.73,8.61,31.72-.12.45-.25.92-.41,1.35-1.5,4.75-4.1,9.23-7.82,13.02L367.62,690.3l-6.61,6.7-14,14.22c-.13.14-.27.26-.39.38-6.33,6.23-14.6,9.36-22.86,9.36-8.24,0-16.49-3.11-22.82-9.35-12.84-12.62-13-33.25-.39-46.07l3.42-3.47l53.09-54.01l3.07-3.13c6.39-6.48,14.81-9.73,23.25-9.73m0-10c-11.51,0-22.29,4.51-30.36,12.71l-3.08,3.14-53.08,54-3.41,3.46c-7.98,8.11-12.33,18.84-12.23,30.21.09,11.37,4.61,22.03,12.73,30.01c7.99,7.87,18.59,12.22,29.83,12.22c11.23,0,21.83-4.33,29.84-12.19.15-.14.38-.35.64-.63l13.89-14.11l6.6-6.7l39-39.68c4.63-4.71,8.15-10.52,10.17-16.83.27-.76.45-1.44.59-1.96c3.98-14.82-.33-30.7-11.25-41.44-.96-.95-1.97-1.85-3.06-2.74-7.56-6.1-17.08-9.47-26.82-9.47v0Z"/></g></g><path d="M300.95,711.61c12.68,12.49,33.04,12.43,45.68-.01.12-.12.26-.24.39-.38l14-14.22c8.08-30.51,6.08-61.35-3.94-88.95l-53.09,54.01-3.42,3.47c-12.62,12.83-12.46,33.45.38,46.08Z" clip-rule="evenodd" fill="#fff" fill-rule="evenodd"/><path d="M300.95,711.61c12.68,12.49,33.04,12.43,45.68-.01l-42.65-49.53-3.42,3.47c-12.61,12.82-12.45,33.44.39,46.07Z" clip-rule="evenodd" fill="#ff2c2c" fill-rule="evenodd"/></g><g><path d="M301.61,672.77c.71-1.57,13.16-30.44-7.42-45.46-1.96-1.43-16.84-11.89-36.75-6.73-14.72,3.81-29.27,15.41-27.83,20.99.7,2.7,4.77,2.55,10.49,4.38c19.31,6.17,16.16,21.69,31.45,27.52c5.33,2.02,14.35,3.42,30.06-.7Z" clip-rule="evenodd" fill="#fff" fill-rule="evenodd" stroke="#000" stroke-width="10" stroke-linecap="round" stroke-linejoin="round" stroke-miterlimit="10"/><g><path d="M256.48,725.95c-2.01,0-3.91-1.22-4.67-3.22l-18.49-48.47c-.47-1.24-.43-2.62.11-3.83s1.54-2.16,2.78-2.63l85.6-32.65c.59-.22,1.19-.33,1.78-.33c2.01,0,3.91,1.22,4.67,3.22l18.49,48.47c.47,1.24.43,2.62-.11,3.83s-1.54,2.16-2.78,2.63l-85.6,32.65c-.58.23-1.18.33-1.78.33Z" clip-rule="evenodd" fill="#ffbe2e" fill-rule="evenodd"/><g><path d="M323.59,639.83l18.49,48.47-85.6,32.65-18.49-48.47l85.6-32.65m0-10c-1.18,0-2.39.21-3.56.66l-85.6,32.65c-2.48.95-4.48,2.84-5.56,5.26s-1.16,5.17-.22,7.65l18.49,48.47c1.52,3.99,5.32,6.44,9.35,6.44c1.18,0,2.39-.21,3.56-.66l85.6-32.65c2.48-.95,4.48-2.84,5.56-5.26s1.16-5.17.22-7.65l-18.49-48.47c-1.53-3.99-5.32-6.44-9.35-6.44v0Z"/></g></g></g></g><g><path id="eBwCkR4Z0mI19" d="M436.44,186.93c29.73,12.97,56.62,52.82,57.25,93.69" clip-rule="evenodd" fill="none" fill-rule="evenodd" stroke="#000" stroke-width="10" stroke-linecap="round" stroke-linejoin="round" stroke-miterlimit="10"/><g id="eBwCkR4Z0mI20_to" transform="translate(425.979996,180.890007)"><g transform="translate(-425.979996,-180.890007)"><g><path d="M425.98,208.32c-15.13,0-27.43-12.31-27.43-27.43s12.31-27.43,27.43-27.43c15.13,0,27.43,12.31,27.43,27.43s-12.31,27.43-27.43,27.43Z" clip-rule="evenodd" fill="#ff2c2c" fill-rule="evenodd"/><path d="M425.98,158.46c12.39,0,22.43,10.04,22.43,22.43s-10.04,22.43-22.43,22.43-22.43-10.04-22.43-22.43s10.04-22.43,22.43-22.43m0-10c-17.88,0-32.43,14.55-32.43,32.43s14.55,32.43,32.43,32.43s32.43-14.55,32.43-32.43-14.55-32.43-32.43-32.43v0Z"/></g><g><ellipse rx="11.04" ry="7.07" transform="translate(425.98 169.84)" clip-rule="evenodd" fill="#fff" fill-rule="evenodd"/></g></g></g></g><g><g><path d="M496.85,783.78c-33.19,0-64.39-12.93-87.87-36.4-23.46-23.49-36.38-54.68-36.38-87.85c0-6.2.46-12.4,1.36-18.42c3.93-26.45,16.04-50.46,35.02-69.44c23.49-23.46,54.69-36.38,87.87-36.38c29.97,0,58.92,10.82,81.5,30.46c22.36,19.45,37.06,46.22,41.39,75.38.9,6.02,1.36,12.21,1.36,18.41c0,33.16-12.92,64.36-36.38,87.84-23.47,23.47-54.68,36.4-87.87,36.4Z" clip-rule="evenodd" fill="#e2e2e2" fill-rule="evenodd"/><path d="M496.85,540.28c59.86,0,109.42,44.1,117.94,101.57.87,5.76,1.31,11.67,1.31,17.68c0,32.94-13.36,62.73-34.92,84.31-21.58,21.58-51.4,34.94-84.33,34.94-32.94,0-62.75-13.36-84.33-34.94-21.56-21.58-34.92-51.38-34.92-84.31c0-6.01.44-11.92,1.31-17.68c3.84-25.85,15.97-49.01,33.61-66.65c21.59-21.56,51.4-34.92,84.33-34.92m0-10c-34.51,0-66.97,13.44-91.4,37.84-19.75,19.75-32.35,44.73-36.43,72.26-.94,6.25-1.42,12.7-1.42,19.15c0,34.5,13.44,66.95,37.84,91.38c24.42,24.42,56.88,37.87,91.41,37.87c34.52,0,66.98-13.45,91.4-37.87c24.41-24.43,37.85-56.88,37.85-91.38c0-6.45-.48-12.9-1.42-19.17-4.5-30.32-19.79-58.17-43.05-78.4-23.49-20.43-53.6-31.68-84.78-31.68v0Z"/></g><path d="M616.1,659.53c0,32.94-13.36,62.73-34.92,84.31-7.17,7.15-15.23,13.42-24.03,18.59-20.15,4.07-41.37,6.25-63.34,6.25-18.69,0-36.88-1.58-54.29-4.56-9.96-5.49-19.03-12.32-27.01-20.28-21.56-21.58-34.92-51.38-34.92-84.31c0-6.01.44-11.92,1.31-17.68c34.75-14.94,75.03-23.46,117.94-23.46s83.19,8.52,117.94,23.46c.88,5.76,1.32,11.67,1.32,17.68Z" clip-rule="evenodd" fill="#fff" fill-rule="evenodd"/><polygon points="525.57,675.27 525.57,644.22 553.44,644.22 553.44,703.14 527.06,703.14 525.57,703.14 468.14,703.14 468.14,675.27" clip-rule="evenodd" fill="#ff2c2c" fill-rule="evenodd"/><polygon points="468.14,675.31 468.14,706.37 440.27,706.37 440.27,647.44 466.65,647.44 468.14,647.44 525.57,647.44 525.57,675.31" clip-rule="evenodd" fill="#33ffe1" fill-rule="evenodd"/></g><g><g><g><path d="M303.34,535.23c-.62,0-1.33,0-2.06-.05-23.13-.72-44.26-13.85-55.16-34.29-4.99-9.33-7.64-19.89-7.64-30.52v-17.85c0-15.72,5.69-30.88,16.03-42.68c12.31-14.09,30.11-22.17,48.83-22.17h380.07c18.07,0,35.46,7.63,47.73,20.94c11.04,11.99,17.13,27.59,17.13,43.92v17.85c0,11.19-2.89,22.22-8.37,31.88-11.14,19.71-31.27,32.02-53.84,32.91-.82.04-1.73.07-2.64.07h-380.08Z" clip-rule="evenodd" fill="#fff" fill-rule="evenodd"/><path d="M683.41,392.67c17.43,0,33.1,7.45,44.05,19.33c9.81,10.65,15.8,24.88,15.8,40.53v17.85c0,10.7-2.81,20.74-7.72,29.41-9.9,17.51-28.34,29.54-49.69,30.38-.8.04-1.62.06-2.45.06h-380.06c-.61,0-1.22,0-1.81-.04-22.11-.65-41.21-13.29-51-31.65-4.49-8.4-7.05-17.98-7.05-28.17v-17.85c0-15.09,5.59-28.88,14.79-39.39c10.97-12.55,27.09-20.47,45.07-20.47h380.07m0-9.99h-380.07c-20.16,0-39.33,8.71-52.6,23.89-11.13,12.71-17.26,29.04-17.26,45.97v17.85c0,11.45,2.85,22.82,8.23,32.89c11.72,21.98,34.45,36.12,59.33,36.92.86.05,1.65.05,2.3.05h380.07c.98,0,1.96-.02,2.91-.07c12.03-.49,23.77-4.1,33.96-10.44c9.93-6.18,18.21-14.83,23.97-25.01c5.9-10.4,9.02-22.28,9.02-34.33v-17.85c0-17.59-6.55-34.39-18.45-47.3-13.21-14.35-31.95-22.57-51.41-22.57v0Z"/></g><g><path d="M743.27,452.53v17.85c0,10.7-2.81,20.74-7.72,29.41-6.31-15.61-10.17-36.48-10.17-59.39c0-9.94.72-19.5,2.09-28.4c9.81,10.65,15.8,24.87,15.8,40.53Z" clip-rule="evenodd" fill="#e2e2e2" fill-rule="evenodd"/></g><g><path d="M260.19,440.4c0,22.3-3.65,42.68-9.66,58.15-4.49-8.4-7.05-17.98-7.05-28.17v-17.85c0-15.09,5.59-28.88,14.79-39.39c1.25,8.58,1.92,17.74,1.92,27.26Z" clip-rule="evenodd" fill="#e2e2e2" fill-rule="evenodd"/></g></g><g><path d="M397.3,595.04c-61.49,0-111.52-50.03-111.52-111.52c0-114.64,93.27-207.91,207.91-207.91s207.91,93.27,207.91,207.91c0,61.49-50.03,111.52-111.52,111.52h-192.78Z" clip-rule="evenodd" fill="#fff" fill-rule="evenodd"/><path d="M493.69,280.62c112.06,0,202.91,90.84,202.91,202.91v0c0,58.83-47.69,106.52-106.52,106.52h-192.78c-58.83,0-106.52-47.69-106.52-106.52v0c0-112.07,90.85-202.91,202.91-202.91v0m0-10c-28.74,0-56.62,5.63-82.88,16.74-25.35,10.72-48.12,26.07-67.67,45.62s-34.9,42.32-45.62,67.67c-11.1,26.25-16.74,54.14-16.74,82.88c0,31.12,12.12,60.38,34.13,82.39s51.27,34.13,82.39,34.13h192.78c31.12,0,60.38-12.12,82.39-34.13s34.13-51.27,34.13-82.39c0-28.74-5.63-56.62-16.74-82.88-10.72-25.35-26.07-48.12-45.62-67.67s-42.32-34.9-67.67-45.62c-26.26-11.11-54.14-16.74-82.88-16.74v0Z"/></g><g><path d="M671.87,477.66c0,25.82-10.47,49.2-27.39,66.14-16.94,16.92-40.32,27.39-66.14,27.39h-169.28c-25.17,0-48.04-9.94-64.86-26.14-4.58-4.41-8.71-9.26-12.32-14.54-4.09-5.95-7.51-12.43-10.15-19.28-4.01-10.42-6.2-21.73-6.2-33.57c0-49.2,19.94-93.74,52.18-125.98c32.24-32.26,76.78-52.2,125.98-52.2c28.1,0,54.67,6.5,78.3,18.1c1.65.78,3.25,1.6,4.85,2.47c10.72,5.65,20.78,12.36,30.07,20.02c4.43,3.65,8.69,7.53,12.76,11.6c32.26,32.25,52.2,76.79,52.2,125.99Z" clip-rule="evenodd" fill="#e80000" fill-rule="evenodd"/><path d="M647.52,453.31c0,25.82-10.46,49.18-27.39,66.12-16.94,16.94-40.32,27.39-66.14,27.39h-169.28c-19.6,0-37.79-6.01-52.83-16.31-4.09-5.95-7.51-12.43-10.15-19.28-4.01-10.42-6.2-21.73-6.2-33.57c0-49.2,19.94-93.74,52.18-125.98c32.24-32.26,76.78-52.2,125.98-52.2c28.1,0,54.67,6.5,78.3,18.1c1.65.78,3.25,1.6,4.85,2.47c10.72,5.65,20.78,12.36,30.07,20.02c25.38,30.79,40.61,70.24,40.61,113.24Z" clip-rule="evenodd" fill="#ff2c2c" fill-rule="evenodd"/><g><circle r="32.79" transform="translate(398.38 469.65)" clip-rule="evenodd" fill="#ffd2d2" fill-rule="evenodd"/></g><g><circle r="32.79" transform="translate(591.07 469.65)" clip-rule="evenodd" fill="#ffd2d2" fill-rule="evenodd"/></g><path d="M433.98,329.03c-8.49,1.81-21.74,8.03-30.44,16.92" clip-rule="evenodd" fill="none" fill-rule="evenodd" stroke="#fff" stroke-width="5" stroke-linecap="round" stroke-linejoin="round" stroke-miterlimit="10"/><path d="M432.51,450.24h-19.97c-6.01,0-10.89-4.88-10.89-10.89v0c0-6.01,4.88-10.89,10.89-10.89h19.97c6.01,0,10.89,4.88,10.89,10.89v0c0,6.01-4.88,10.89-10.89,10.89Z" clip-rule="evenodd" fill-rule="evenodd"/><path d="M573.58,450.24h-19.97c-6.01,0-10.89-4.88-10.89-10.89v0c0-6.01,4.88-10.89,10.89-10.89h19.97c6.01,0,10.89,4.88,10.89,10.89v0c0,6.01-4.87,10.89-10.89,10.89Z" clip-rule="evenodd" fill-rule="evenodd"/><circle r="5.25" transform="translate(393.13 355.41)" clip-rule="evenodd" fill="#fff" fill-rule="evenodd"/><path d="M431.84,437.52h-5.72c-1.54,0-2.79-1.25-2.79-2.79v0c0-1.54,1.25-2.79,2.79-2.79h5.72c1.54,0,2.79,1.25,2.79,2.79v0c0,1.54-1.25,2.79-2.79,2.79Z" clip-rule="evenodd" fill="#fff" fill-rule="evenodd"/><path d="M574.08,437.52h-5.72c-1.54,0-2.79-1.25-2.79-2.79v0c0-1.54,1.25-2.79,2.79-2.79h5.72c1.54,0,2.79,1.25,2.79,2.79v0c0,1.54-1.25,2.79-2.79,2.79Z" clip-rule="evenodd" fill="#fff" fill-rule="evenodd"/></g></g><path d="M464.1,465.65c-1.26-8.84,13.12-19.19,26.32-20.13c15.72-1.12,32.4,10.91,31.48,19.61-.79,7.47-6.52,10.84-14.58,11.16-4.44.18-10.58-4.33-13.62-4.9-3.67-.69-8.89,3.54-15.47,4.45-6.52.9-13.13-3.15-14.13-10.19Z" clip-rule="evenodd" fill-rule="evenodd"/><path d="M395.29,450.64c-10.46-.98-18.59,5.39-19.35,12.39-.6,5.44,3.14,12.24,8.52,13.16c5.66.97,12.96-4.59,13.94-13.94" clip-rule="evenodd" fill="#88b9ff" fill-rule="evenodd" stroke="#000" stroke-width="10" stroke-linecap="round" stroke-linejoin="round" stroke-miterlimit="10"/><path d="M598.77,453.59c1.72,10.36,9.96,16.59,16.92,15.55c5.41-.81,11.03-6.16,10.55-11.6-.51-5.72-7.75-11.35-17.03-9.91" clip-rule="evenodd" fill="#88b9ff" fill-rule="evenodd" stroke="#000" stroke-width="10" stroke-linecap="round" stroke-linejoin="round" stroke-miterlimit="10"/><path d="M627.41,493.81c1.72,10.36,9.96,16.59,16.92,15.55c5.41-.81,11.03-6.16,10.55-11.6-.51-5.72-7.75-11.35-17.03-9.91" clip-rule="evenodd" fill="#88b9ff" fill-rule="evenodd" stroke="#000" stroke-width="10" stroke-linecap="round" stroke-linejoin="round" stroke-miterlimit="10"/><path d="M680.06,484.13c1.72,10.36,9.96,16.59,16.92,15.55c5.41-.81,11.03-6.16,10.55-11.6-.51-5.72-7.75-11.35-17.03-9.91" clip-rule="evenodd" fill="#88b9ff" fill-rule="evenodd" stroke="#000" stroke-width="10" stroke-linecap="round" stroke-linejoin="round" stroke-miterlimit="10"/><path d="M362.07,495.49c-9.32,4.84-12.7,14.6-9.55,20.9c2.45,4.9,9.27,8.58,14.29,6.44c5.28-2.25,8.4-10.88,4.16-19.26" clip-rule="evenodd" fill="#88b9ff" fill-rule="evenodd" stroke="#000" stroke-width="10" stroke-linecap="round" stroke-linejoin="round" stroke-miterlimit="10"/><path d="M327.56,476.64c-10.34-1.85-18.97,3.81-20.32,10.73-1.05,5.37,2.11,12.46,7.39,13.83c5.56,1.44,13.29-3.49,15.05-12.72" clip-rule="evenodd" fill="#88b9ff" fill-rule="evenodd" stroke="#000" stroke-width="10" stroke-linecap="round" stroke-linejoin="round" stroke-miterlimit="10"/><g id="eBwCkR4Z0mI65_tr" transform="translate(641.159193,636.28) rotate(0)"><g transform="translate(-641.159193,-636.28)"><g><g><g><path d="M611.12,631.29c-14.57,0-27.95-8.52-34.1-21.7l-1.85-3.98-31.97-68.65-2.06-4.41c-4.25-9.1-4.69-19.3-1.26-28.73s10.34-16.96,19.44-21.21c5.01-2.34,10.34-3.53,15.84-3.53c14.29,0,27.57,8.3,33.82,21.15.12.23.22.43.31.63l8.41,18.01l3.98,8.52l23.49,50.42c2.48,5.31,3.68,11.21,3.49,17.07c0,.64-.05,1.24-.08,1.72-1.06,13.51-9.33,25.45-21.59,31.17-1.08.51-2.18.96-3.35,1.37-4.05,1.42-8.25,2.15-12.52,2.15Z" clip-rule="evenodd" fill="#e2e2e2" fill-rule="evenodd"/><path d="M575.16,484.08c12.1,0,23.7,6.79,29.32,18.34.07.15.17.31.24.48l8.44,18.08l3.99,8.52l23.48,50.42c2.25,4.81,3.2,9.9,3.02,14.88.01.47-.03.95-.07,1.41-.89,11.34-7.69,21.87-18.72,27.01-.97.45-1.93.84-2.91,1.19-3.56,1.26-7.22,1.86-10.83,1.86-12.28,0-24.04-6.97-29.57-18.82l-1.85-3.98-31.98-68.65-2.07-4.42c-7.61-16.3-.56-35.68,15.76-43.29c4.46-2.05,9.14-3.03,13.75-3.03m0-10c0,0,0,0,0,0-6.24,0-12.28,1.35-17.96,4-10.31,4.8-18.13,13.33-22.02,24.02s-3.38,22.25,1.43,32.55l2.07,4.42l31.97,68.64l1.84,3.96c6.98,14.95,22.14,24.61,38.64,24.61c4.83,0,9.6-.82,14.17-2.44c1.32-.47,2.57-.98,3.81-1.56c13.87-6.47,23.24-19.99,24.44-35.29.04-.53.1-1.24.1-2.04.21-6.62-1.16-13.27-3.96-19.27l-23.48-50.41-3.99-8.54-8.37-17.94c-.16-.36-.31-.64-.39-.81-7.1-14.52-22.13-23.9-38.3-23.9v0Z"/></g></g><path d="M561.43,487.14c16.13-7.54,35.29-.67,43.05,15.28.07.15.17.31.24.48l8.44,18.08c-2.58,31.46-14.78,59.85-33.45,82.51l-31.98-68.65-2.07-4.42c-7.6-16.3-.55-35.68,15.77-43.28Z" clip-rule="evenodd" fill="#fff" fill-rule="evenodd"/><path d="M561.43,487.14c16.13-7.54,35.29-.67,43.05,15.28l-56.75,32.43-2.07-4.42c-7.6-16.31-.55-35.69,15.77-43.29Z" clip-rule="evenodd" fill="#ff2c2c" fill-rule="evenodd"/></g><g><path d="M581.77,572.47c-1.14,0-2.23-.26-3.25-.77-5.86-2.95-4.49-9.84-2.75-18.58c1.3-6.52,2.91-14.62,2.79-23.89-.23-17.78-6.86-31.1-11.7-40.83-4.47-8.98-8.33-16.74-2.9-22.73c2-2.2,4.95-3.31,8.79-3.31c6.74,0,16.66,3.15,35.06,9.19c26,8.53,40.32,13.23,47.66,23.58c8.74,12.32,10.28,28.49,7.93,39.05-1.51,6.81-4.58,11.69-8.85,14.12-1.87,1.06-3.91,1.59-6.07,1.59-2.76,0-5.28-.83-7.94-1.71-3.01-.99-6.12-2.02-10.05-2.02-1.52,0-3.1.16-4.7.47-4.73.93-9.33,3.87-18.5,9.71-6.85,4.37-11.51,7.93-14.91,10.53-4.72,3.62-7.31,5.6-10.61,5.6Z" clip-rule="evenodd" fill="#fff" fill-rule="evenodd"/><path d="M572.74,467.35c6.08,0,16.81,3.46,33.5,8.94c25.83,8.48,38.88,12.9,45.14,21.73c11.25,15.86,9.88,40.72.69,45.94-1.19.68-2.38.94-3.6.94-4.58,0-9.73-3.73-17.99-3.73-1.74,0-3.62.17-5.67.57-5.66,1.11-10.51,4.21-20.22,10.41-14.88,9.49-19.76,15.32-22.82,15.32-.36,0-.69-.08-1.01-.24-4.71-2.37,3.06-17.58,2.79-38.07-.44-34.23-22.91-52.41-15.9-60.14c1.04-1.14,2.71-1.67,5.09-1.67m0-10c-5.31,0-9.51,1.67-12.49,4.95-2.67,2.94-5.37,8.16-3.07,16.26c1.06,3.73,2.98,7.59,5.2,12.05c4.88,9.81,10.96,22.03,11.18,38.67.11,8.74-1.44,16.56-2.69,22.85-.78,3.91-1.45,7.29-1.59,10.27-.41,8.7,4.21,12.35,7,13.75c1.72.87,3.57,1.31,5.5,1.31c5,0,8.44-2.63,13.64-6.6c3.33-2.55,7.89-6.03,14.57-10.29c9.23-5.89,13.12-8.3,16.77-9.02c1.3-.26,2.52-.38,3.74-.38c3.13,0,5.73.86,8.49,1.77c2.79.92,5.94,1.96,9.51,1.96c3.04,0,5.91-.76,8.54-2.25c5.54-3.14,9.44-9.16,11.27-17.39c2.59-11.64.89-29.46-8.74-43.03-8.3-11.7-23.18-16.58-50.18-25.44-18.93-6.2-29.15-9.44-36.65-9.44v0Z"/></g></g></g></g></g><g id="eBwCkR4Z0mI76_ts" transform="translate(496.640015,911.369995) scale(1,1)"><ellipse rx="110.26" ry="20.69" transform="translate(-0.000015,0.000005)" clip-rule="evenodd" fill="#8dfff1" fill-rule="evenodd"/></g></svg>