<svg width="484" height="418" viewBox="0 0 484 418" fill="none" xmlns="http://www.w3.org/2000/svg">
<g clip-path="url(#clip0_280_455)">
<path fill-rule="evenodd" clip-rule="evenodd" d="M188.435 415.898C168.996 415.898 149.85 412.819 131.528 406.745C93.9493 394.3 61.5945 370.227 37.953 337.132C13.8412 303.388 1.10205 263.264 1.10205 221.093C1.10205 169.059 20.5854 120.142 55.967 83.3492C91.3486 46.5564 138.389 26.2959 188.427 26.2959C238.466 26.2959 285.506 46.5564 320.895 83.3492C356.277 120.142 375.76 169.059 375.76 221.093C375.76 260.514 364.498 298.483 343.185 330.891C322.379 362.542 293.411 386.928 259.426 401.405C236.886 411.016 213.002 415.89 188.427 415.89L188.435 415.898Z" fill="white"/>
<path fill-rule="evenodd" clip-rule="evenodd" d="M256.266 325.748C260.288 324.32 264.588 324.24 268.722 325.507L271.223 326.277L314.38 339.609L317.159 340.459C322.406 342.074 326.764 345.689 329.436 350.632C332.108 355.574 332.77 361.255 331.298 366.634C329.543 373.093 324.808 378.263 318.644 380.454C314.733 381.843 310.539 381.958 306.501 380.786L306.416 380.768C306.322 380.745 306.219 380.717 306.12 380.679L289.435 375.544L257.74 365.755C254.617 364.793 251.826 363.13 249.437 360.815C249.237 360.643 249.013 360.407 248.792 360.178C243.605 354.713 241.609 346.811 243.591 339.576C243.762 338.932 243.972 338.307 244.213 337.663C246.33 332.055 250.726 327.717 256.273 325.746L256.266 325.748Z" fill="#E2E2E2"/>
<path d="M318.258 379.377C314.694 380.643 310.713 380.836 306.779 379.692C306.682 379.662 306.574 379.644 306.466 379.601L295.089 376.1L289.723 374.455L258.027 364.666C255.001 363.734 252.346 362.104 250.178 359.993C249.965 359.81 249.763 359.59 249.569 359.392C244.823 354.385 242.708 347.011 244.642 339.906C244.812 339.279 245.008 338.683 245.233 338.102C247.293 332.643 251.541 328.641 256.638 326.83C260.292 325.532 264.382 325.365 268.413 326.604L270.907 327.377L314.064 340.709L316.845 341.566C327.095 344.722 333.092 355.799 330.219 366.314C328.486 372.683 323.888 377.377 318.251 379.379L318.258 379.377ZM319.009 381.538C325.513 379.227 330.502 373.78 332.353 366.972C333.903 361.306 333.203 355.315 330.388 350.099C327.575 344.891 322.976 341.079 317.449 339.376L314.668 338.519L271.513 325.195L269.019 324.422C264.664 323.08 260.123 323.164 255.886 324.669C250.041 326.746 245.412 331.329 243.175 337.239C242.92 337.912 242.707 338.57 242.517 339.253C240.439 346.879 242.537 355.205 248.001 360.969C248.21 361.186 248.445 361.434 248.711 361.68C251.217 364.107 254.151 365.841 257.431 366.853L289.126 376.641L294.493 378.287L305.827 381.779C305.942 381.819 306.046 381.847 306.156 381.872L306.198 381.881C310.462 383.118 314.888 382.994 319.013 381.528L319.009 381.538Z" fill="black"/>
<path fill-rule="evenodd" clip-rule="evenodd" d="M330.222 366.345C327.398 376.749 316.933 382.676 306.771 379.726C306.674 379.696 306.566 379.677 306.458 379.635L295.079 376.129C281.937 362.171 273.879 345.081 270.885 327.374L314.05 340.726L316.832 341.585C327.084 344.746 333.085 355.83 330.215 366.348L330.222 366.345Z" fill="white"/>
<path fill-rule="evenodd" clip-rule="evenodd" d="M330.222 366.359C327.398 376.763 316.933 382.69 306.772 379.74L314.058 340.739L316.84 341.598C327.091 344.759 333.092 355.842 330.222 366.359Z" fill="#FF2C2C"/>
<path fill-rule="evenodd" clip-rule="evenodd" d="M188.435 415.897C168.995 415.897 149.85 412.819 131.527 406.745C131.248 406.653 131.02 406.447 130.881 406.18C125.577 395.568 122.895 384.078 122.895 372.038C122.895 368.287 123.16 364.582 123.681 361.029C125.937 345.245 132.894 330.898 143.789 319.561C157.27 305.55 175.189 297.833 194.246 297.833C211.459 297.833 228.085 304.297 241.052 316.024C253.894 327.636 262.335 343.626 264.818 361.037C265.34 364.635 265.604 368.34 265.604 372.038C265.604 382.008 263.731 391.68 260.043 400.786C259.932 401.069 259.712 401.283 259.448 401.405C236.908 411.016 213.024 415.89 188.442 415.89L188.435 415.897Z" fill="#E2E2E2"/>
<path d="M194.239 298.987C229.503 298.987 258.706 326.001 263.723 361.205C264.23 364.734 264.495 368.356 264.495 372.038C264.495 382.076 262.548 391.634 259.021 400.343C237.253 409.625 213.421 414.744 188.435 414.744C168.701 414.744 149.703 411.558 131.858 405.645C126.833 395.583 123.99 384.154 123.99 372.03C123.99 368.348 124.247 364.727 124.761 361.197C127.024 345.368 134.172 331.181 144.56 320.363C157.27 307.154 174.836 298.972 194.239 298.972V298.987ZM194.239 296.68C174.887 296.68 156.69 304.511 143.003 318.743C131.939 330.256 124.879 344.825 122.586 360.861C122.057 364.459 121.793 368.226 121.793 372.03C121.793 384.086 124.599 396.072 129.904 406.699C130.176 407.234 130.638 407.639 131.189 407.83C149.622 413.942 168.885 417.036 188.435 417.036C213.156 417.036 237.18 412.131 259.852 402.459C260.388 402.23 260.821 401.787 261.049 401.229C264.796 391.978 266.699 382.153 266.699 372.03C266.699 368.272 266.434 364.513 265.905 360.853C263.385 343.175 254.812 326.941 241.771 315.153C228.599 303.242 211.724 296.68 194.239 296.68Z" fill="black"/>
<path fill-rule="evenodd" clip-rule="evenodd" d="M264.495 372.046C264.495 382.084 262.548 391.641 259.022 400.351C237.253 409.633 213.421 414.751 188.435 414.751C168.702 414.751 149.703 411.566 131.858 405.653C126.833 395.591 123.99 384.162 123.99 372.038C123.99 368.356 124.247 364.734 124.761 361.205C138.198 355.2 153.046 350.884 168.812 348.63C177.062 347.446 185.555 346.827 194.231 346.827C194.9 346.827 195.554 346.827 196.222 346.842C220.76 347.11 243.777 352.289 263.709 361.197C264.216 364.727 264.48 368.348 264.48 372.03L264.495 372.046Z" fill="white"/>
<path fill-rule="evenodd" clip-rule="evenodd" d="M196.229 378.325H213.068C220.642 378.325 226.777 384.705 226.777 392.581C226.777 400.458 220.642 406.837 213.068 406.837H182.52C174.946 406.837 168.812 400.458 168.812 392.581V333.832C168.812 325.955 174.946 319.576 182.52 319.576C190.095 319.576 196.229 325.955 196.229 333.832V378.325Z" fill="url(#paint0_linear_280_455)"/>
<path d="M167.195 106.375C180.948 113.037 193.394 133.527 193.68 154.529" stroke="black" stroke-width="3" stroke-linecap="round" stroke-linejoin="round"/>
<path d="M164.051 115.299C171.959 115.299 178.37 108.632 178.37 100.409C178.37 92.1854 171.959 85.519 164.051 85.519C156.143 85.519 149.732 92.1854 149.732 100.409C149.732 108.632 156.143 115.299 164.051 115.299Z" fill="#FF2C2C"/>
<path d="M164.051 86.665C171.346 86.665 177.268 92.8149 177.268 100.409C177.268 108.003 171.354 114.153 164.051 114.153C156.748 114.153 150.834 108.003 150.834 100.409C150.834 92.8149 156.748 86.665 164.051 86.665ZM164.051 84.373C155.551 84.373 148.63 91.5696 148.63 100.409C148.63 109.248 155.551 116.444 164.051 116.444C172.551 116.444 179.472 109.248 179.472 100.409C179.472 91.5696 172.551 84.373 164.051 84.373Z" fill="black"/>
<path d="M164.051 97.1388C167.179 97.1388 169.715 95.4492 169.715 93.3648C169.715 91.2805 167.179 89.5908 164.051 89.5908C160.923 89.5908 158.387 91.2805 158.387 93.3648C158.387 95.4492 160.923 97.1388 164.051 97.1388Z" fill="white"/>
<path fill-rule="evenodd" clip-rule="evenodd" d="M80.2405 293.983C79.8512 293.983 79.4691 293.983 79.0945 293.952C66.1496 293.555 54.2774 285.892 48.1576 273.959C45.3585 268.52 43.8745 262.362 43.8745 256.166V245.234C43.8745 236.066 47.063 227.227 52.8595 220.344C59.7654 212.131 69.7421 207.417 80.2405 207.417H304.152C314.283 207.417 324.04 211.864 330.916 219.626C337.11 226.616 340.518 235.715 340.518 245.234V256.166C340.518 262.691 338.895 269.116 335.824 274.746C329.579 286.244 318.295 293.418 305.636 293.937C305.159 293.96 304.652 293.975 304.152 293.975H80.2405V293.983Z" fill="white"/>
<path d="M304.152 208.563C314.416 208.563 323.658 213.124 330.108 220.405C335.89 226.929 339.416 235.646 339.416 245.234V256.166C339.416 262.721 337.763 268.871 334.869 274.181C329.043 284.907 318.177 292.279 305.6 292.791C305.129 292.814 304.645 292.829 304.16 292.829H80.2405C79.8805 292.829 79.5205 292.829 79.1679 292.806C66.1422 292.409 54.8945 284.663 49.1273 273.417C46.4825 268.275 44.9765 262.408 44.9765 256.159V245.226C44.9765 235.982 48.2678 227.533 53.6896 221.093C60.1547 213.399 69.6466 208.556 80.2405 208.556H304.152V208.563ZM304.152 206.264H80.2405C69.4262 206.264 59.1482 211.123 52.0293 219.588C46.0564 226.677 42.7725 235.784 42.7725 245.226V256.159C42.7725 262.546 44.3006 268.887 47.1878 274.494C53.4839 286.771 65.6941 294.663 79.065 295.091C79.4764 295.121 79.8658 295.121 80.2405 295.121H304.152C304.681 295.121 305.203 295.106 305.71 295.083C318.721 294.548 330.351 287.153 336.786 275.312C339.945 269.513 341.62 262.889 341.62 256.166V245.234C341.62 235.425 338.109 226.058 331.724 218.854C324.635 210.863 314.585 206.272 304.152 206.272V206.264Z" fill="black"/>
<path fill-rule="evenodd" clip-rule="evenodd" d="M339.409 245.234V256.167C339.409 262.721 337.756 268.871 334.862 274.181C331.144 264.616 328.874 251.835 328.874 237.793C328.874 231.704 329.3 225.852 330.101 220.397C335.883 226.922 339.409 235.639 339.409 245.226V245.234Z" fill="#E2E2E2"/>
<path fill-rule="evenodd" clip-rule="evenodd" d="M54.8211 237.801C54.8211 251.46 52.6685 263.951 49.1274 273.425C46.4826 268.283 44.9766 262.416 44.9766 256.167V245.234C44.9766 235.99 48.2679 227.541 53.6897 221.1C54.4244 226.364 54.8211 231.972 54.8211 237.801Z" fill="#E2E2E2"/>
<path fill-rule="evenodd" clip-rule="evenodd" d="M135.598 330.623C100.385 330.623 71.7402 300.836 71.7402 264.219C71.7402 195.041 125.856 138.767 192.38 138.767C258.904 138.767 313.02 195.041 313.02 264.219C313.02 300.836 284.375 330.623 249.162 330.623H135.598Z" fill="white"/>
<path d="M192.38 139.921C258.397 139.921 311.918 195.576 311.918 264.226C311.918 300.263 283.824 329.485 249.162 329.485H135.597C100.943 329.485 72.8422 300.27 72.8422 264.226C72.8422 195.576 126.363 139.921 192.38 139.921ZM192.38 137.629C159.864 137.629 129.287 150.8 106.299 174.704C83.3038 198.617 70.6382 230.405 70.6382 264.219C70.6382 301.462 99.7751 331.769 135.597 331.769H249.17C284.985 331.769 314.129 301.47 314.129 264.219C314.129 230.405 301.463 198.609 278.476 174.704C255.48 150.792 224.911 137.629 192.395 137.629H192.38Z" fill="black"/>
<path fill-rule="evenodd" clip-rule="evenodd" d="M297.349 260.628C297.349 276.45 291.185 290.767 281.216 301.149C271.232 311.516 257.464 317.926 242.249 317.926H142.525C127.7 317.926 114.226 311.837 104.315 301.913C101.619 299.209 99.18 296.237 97.0568 293.005C94.6471 289.361 92.6341 285.388 91.0766 281.194C88.7183 274.807 87.4253 267.878 87.4253 260.628C87.4253 230.49 99.1726 203.201 118.164 183.452C137.155 163.688 163.397 151.472 192.38 151.472C208.939 151.472 224.588 155.452 238.51 162.565C239.479 163.046 240.427 163.551 241.367 164.078C247.678 167.538 253.614 171.649 259.08 176.347C261.688 178.585 264.201 180.961 266.603 183.46C285.609 203.208 297.356 230.497 297.356 260.636L297.349 260.628Z" fill="url(#paint1_linear_280_455)"/>
<path d="M136.237 275.816C146.908 275.816 155.559 266.82 155.559 255.724C155.559 244.627 146.908 235.631 136.237 235.631C125.566 235.631 116.915 244.627 116.915 255.724C116.915 266.82 125.566 275.816 136.237 275.816Z" fill="#FFD2D2"/>
<path d="M249.743 275.816C260.414 275.816 269.064 266.82 269.064 255.724C269.064 244.627 260.414 235.631 249.743 235.631C239.072 235.631 230.421 244.627 230.421 255.724C230.421 266.82 239.072 275.816 249.743 275.816Z" fill="#FFD2D2"/>
<path d="M157.204 169.578C152.201 170.686 144.392 174.498 139.271 179.945" stroke="white" stroke-width="5" stroke-linecap="round" stroke-linejoin="round"/>
<path d="M133.136 188.953C134.845 188.953 136.229 187.513 136.229 185.736C136.229 183.96 134.845 182.52 133.136 182.52C131.428 182.52 130.043 183.96 130.043 185.736C130.043 187.513 131.428 188.953 133.136 188.953Z" fill="white"/>
<path d="M158.174 258.441C166.963 258.441 174.087 251.033 174.087 241.894C174.087 232.755 166.963 225.346 158.174 225.346C149.386 225.346 142.261 232.755 142.261 241.894C142.261 251.033 149.386 258.441 158.174 258.441Z" fill="black"/>
<path d="M223.911 258.441C232.7 258.441 239.824 251.033 239.824 241.894C239.824 232.755 232.7 225.346 223.911 225.346C215.123 225.346 207.999 232.755 207.999 241.894C207.999 251.033 215.123 258.441 223.911 258.441Z" fill="black"/>
<path d="M162.827 243.397C166.467 243.397 169.417 240.329 169.417 236.544C169.417 232.76 166.467 229.691 162.827 229.691C159.188 229.691 156.237 232.76 156.237 236.544C156.237 240.329 159.188 243.397 162.827 243.397Z" fill="white"/>
<path d="M228.121 243.04C231.761 243.04 234.711 239.971 234.711 236.187C234.711 232.402 231.761 229.334 228.121 229.334C224.482 229.334 221.531 232.402 221.531 236.187C221.531 239.971 224.482 243.04 228.121 243.04Z" fill="white"/>
<path fill-rule="evenodd" clip-rule="evenodd" d="M162.89 198.732C164.477 200.634 161.539 206.539 157.711 209.694C150.835 215.355 140.432 212.682 139.851 209.878C138.955 205.584 159.812 195.034 162.898 198.732H162.89Z" fill="black"/>
<path fill-rule="evenodd" clip-rule="evenodd" d="M219.107 198.732C217.52 200.634 220.459 206.539 224.287 209.694C231.163 215.355 241.566 212.682 242.146 209.878C243.043 205.584 222.186 195.034 219.1 198.732H219.107Z" fill="black"/>
<path fill-rule="evenodd" clip-rule="evenodd" d="M174.066 277.541C178.301 278.683 181.967 281.158 184.67 284.708C188.02 289.088 189.499 294.576 188.827 300.163C188.161 305.752 185.433 310.769 181.145 314.29L178.866 316.156L143.583 345.176L141.545 346.855C136.485 351.013 129.772 352.49 123.576 350.818C120.01 349.856 116.776 347.901 114.236 345.17C113.774 344.674 113.352 344.173 112.958 343.648C108.45 337.754 107.4 329.711 110.215 322.655C110.331 322.363 110.46 322.05 110.602 321.772C111.944 318.76 113.933 316.152 116.488 314.051L142.402 292.737L156.093 281.496C156.126 281.457 156.209 281.401 156.288 281.335L156.355 281.282C161.446 277.234 167.903 275.863 174.063 277.525L174.066 277.541Z" fill="#E2E2E2"/>
<path d="M123.878 349.714C120.588 348.827 117.517 347.035 115.041 344.376C114.621 343.922 114.214 343.449 113.831 342.943C109.41 337.151 108.662 329.546 111.234 323.088C111.342 322.825 111.447 322.545 111.575 322.295C112.817 319.517 114.688 316.979 117.162 314.952L143.075 293.638L147.467 290.042L156.772 282.406C156.854 282.325 156.945 282.271 157.023 282.205C161.979 278.263 168.185 277.148 173.77 278.655C177.613 279.691 181.156 281.975 183.793 285.428C190.345 293.999 188.847 306.522 180.457 313.409L178.186 315.278L142.903 344.297L140.863 345.983C135.864 350.087 129.549 351.268 123.872 349.737L123.878 349.714ZM123.283 351.948C129.813 353.71 136.893 352.143 142.224 347.765L144.264 346.079L179.547 317.059L181.817 315.198C186.34 311.48 189.216 306.195 189.917 300.299C190.618 294.404 189.066 288.62 185.529 284C182.678 280.26 178.811 277.652 174.349 276.448C167.855 274.697 161.051 276.141 155.682 280.405L155.635 280.44C155.548 280.511 155.453 280.58 155.363 280.659L146.095 288.273L141.71 291.871L115.797 313.185C113.117 315.386 111.025 318.125 109.585 321.332C109.421 321.659 109.298 321.981 109.186 322.259C106.217 329.692 107.327 338.17 112.075 344.389C112.493 344.937 112.938 345.468 113.425 345.986C116.108 348.867 119.513 350.923 123.271 351.937L123.283 351.948Z" fill="black"/>
<path fill-rule="evenodd" clip-rule="evenodd" d="M183.802 285.384C177.343 276.908 165.412 275.512 157.036 282.172C156.958 282.238 156.865 282.3 156.785 282.373L147.477 290.016C140.371 307.969 139.16 326.829 142.891 344.286L178.184 315.24L180.457 313.37C188.842 306.475 190.345 293.946 183.804 285.377L183.802 285.384Z" fill="white"/>
<path fill-rule="evenodd" clip-rule="evenodd" d="M183.805 285.376C177.348 276.902 165.421 275.506 157.048 282.165L178.189 315.224L180.461 313.355C188.843 306.461 190.346 293.936 183.807 285.369L183.805 285.376Z" fill="#FF2C2C"/>
<ellipse cx="192.5" cy="251" rx="6.5" ry="9" fill="black"/>
</g>
<path fill-rule="evenodd" clip-rule="evenodd" d="M338.298 377.626C337.786 377.626 337.282 377.531 336.792 377.349L300.698 363.774C298.497 362.943 297.378 360.486 298.212 358.292L325.25 286.875C325.872 285.228 327.481 284.119 329.244 284.119C329.756 284.119 330.26 284.214 330.75 284.396L366.844 297.971C369.045 298.802 370.164 301.259 369.33 303.454L342.299 374.87C341.677 376.518 340.068 377.626 338.305 377.626H338.298Z" fill="white"/>
<path d="M329.244 285.213C329.624 285.213 329.997 285.279 330.363 285.417L366.456 298.992C368.094 299.604 368.921 301.434 368.306 303.067L341.275 374.484C340.814 375.709 339.622 376.533 338.306 376.533C337.925 376.533 337.552 376.467 337.187 376.328L301.093 362.754C300.304 362.455 299.675 361.872 299.324 361.099C298.972 360.326 298.951 359.473 299.243 358.678L326.275 287.262C326.735 286.037 327.927 285.213 329.244 285.213ZM329.244 283.026C327.079 283.026 325.031 284.345 324.227 286.489L297.188 357.906C296.142 360.669 297.539 363.753 300.311 364.795L336.404 378.37C337.026 378.603 337.669 378.712 338.298 378.712C340.463 378.712 342.511 377.393 343.316 375.25L370.347 303.833C371.393 301.07 369.996 297.986 367.224 296.943L331.131 283.369C330.509 283.135 329.866 283.026 329.237 283.026H329.244Z" fill="black"/>
<path d="M361.749 294.891L325.666 281.321C322.892 280.278 319.795 281.674 318.748 284.439L291.721 355.849C290.675 358.614 292.075 361.701 294.849 362.745L330.932 376.314C333.706 377.357 336.803 375.962 337.849 373.196L364.876 301.786C365.923 299.021 364.522 295.934 361.749 294.891Z" fill="black"/>
<path d="M318.948 292.66L296.906 350.899C296.535 351.878 297.031 352.972 298.014 353.341L334.774 367.166C335.757 367.535 336.854 367.041 337.225 366.061L359.267 307.822C359.637 306.843 359.141 305.749 358.159 305.38L321.398 291.556C320.416 291.186 319.319 291.68 318.948 292.66Z" fill="white"/>
<path d="M336.053 290.299C335.535 290.104 334.957 290.365 334.762 290.881C334.567 291.397 334.828 291.973 335.346 292.168L343.215 295.127C343.733 295.322 344.311 295.061 344.506 294.545C344.702 294.029 344.44 293.453 343.922 293.258L336.053 290.299Z" fill="url(#paint2_linear_280_455)"/>
<path d="M347.008 294.422C346.49 294.227 345.912 294.488 345.716 295.004C345.521 295.52 345.783 296.096 346.3 296.291L347.286 296.662C347.803 296.856 348.381 296.596 348.577 296.08C348.772 295.564 348.511 294.987 347.993 294.793L347.008 294.422Z" fill="url(#paint3_linear_280_455)"/>
<path fill-rule="evenodd" clip-rule="evenodd" d="M357.901 278.806C357.496 278.806 357.139 278.562 356.98 278.192C356.827 277.822 356.913 277.393 357.198 277.115L365.951 268.39C360.107 262.221 356.907 254.19 356.907 245.663C356.907 227.387 371.822 212.519 390.156 212.519C408.49 212.519 423.405 227.387 423.405 245.663C423.405 263.938 408.49 278.806 390.156 278.806H357.901Z" fill="white"/>
<path d="M390.156 213.51C407.974 213.51 422.412 227.902 422.412 245.663C422.412 263.423 407.974 277.815 390.156 277.815H357.901L367.35 268.397C361.512 262.578 357.901 254.54 357.901 245.663C357.901 227.902 372.339 213.51 390.156 213.51ZM390.156 211.529C371.272 211.529 355.913 226.839 355.913 245.663C355.913 254.117 358.974 262.102 364.58 268.357L356.496 276.415C355.926 276.983 355.761 277.835 356.065 278.575C356.37 279.315 357.099 279.797 357.901 279.797H390.156C409.04 279.797 424.4 264.487 424.4 245.663C424.4 226.839 409.04 211.529 390.156 211.529V211.529Z" fill="black"/>
<path d="M413.611 255.346C418.976 242.435 412.825 227.634 399.873 222.286C386.921 216.938 372.072 223.069 366.707 235.98C361.342 248.891 367.492 263.692 380.445 269.04C393.397 274.388 408.246 268.257 413.611 255.346Z" fill="url(#paint4_linear_280_455)"/>
<path d="M390.156 221.35C403.627 221.35 414.546 232.235 414.546 245.663C414.546 259.09 403.627 269.975 390.156 269.975C376.685 269.975 365.766 259.09 365.766 245.663C365.766 232.235 376.685 221.35 390.156 221.35ZM390.156 219.368C375.612 219.368 363.778 231.165 363.778 245.663C363.778 260.16 375.612 271.957 390.156 271.957C404.7 271.957 416.534 260.16 416.534 245.663C416.534 231.165 404.7 219.368 390.156 219.368Z" fill="black"/>
<path d="M390.043 241.165C393.026 241.165 395.443 238.755 395.443 235.782C395.443 232.809 393.026 230.399 390.043 230.399C387.061 230.399 384.643 232.809 384.643 235.782C384.643 238.755 387.061 241.165 390.043 241.165Z" fill="white"/>
<path d="M390.044 231.389C392.475 231.389 394.45 233.358 394.45 235.782C394.45 238.206 392.475 240.174 390.044 240.174C387.612 240.174 385.637 238.206 385.637 235.782C385.637 233.358 387.612 231.389 390.044 231.389ZM390.044 229.408C386.518 229.408 383.649 232.268 383.649 235.782C383.649 239.295 386.518 242.155 390.044 242.155C393.569 242.155 396.438 239.295 396.438 235.782C396.438 232.268 393.569 229.408 390.044 229.408Z" fill="black"/>
<path fill-rule="evenodd" clip-rule="evenodd" d="M383.869 260.927C380.708 260.927 378.137 258.364 378.137 255.213C378.137 249.097 383.133 244.117 389.269 244.117H391.051C397.187 244.117 402.183 249.097 402.183 255.213C402.183 258.364 399.612 260.927 396.452 260.927H383.875H383.869Z" fill="white"/>
<path d="M391.051 245.108C396.65 245.108 401.189 249.632 401.189 255.213C401.189 257.822 399.068 259.936 396.451 259.936H383.875C381.258 259.936 379.137 257.822 379.137 255.213C379.137 249.632 383.676 245.108 389.275 245.108H391.057H391.051ZM391.057 243.126H389.275C382.589 243.126 377.149 248.549 377.149 255.213C377.149 258.912 380.164 261.917 383.875 261.917H396.451C400.162 261.917 403.176 258.906 403.176 255.213C403.176 248.549 397.736 243.126 391.051 243.126H391.057Z" fill="black"/>
<path fill-rule="evenodd" clip-rule="evenodd" d="M338.364 337.29L315.462 328.218C313.979 327.636 313.26 325.952 313.842 324.469L314.592 322.569C315.175 321.086 316.858 320.367 318.341 320.949L341.244 330.021C342.727 330.603 343.446 332.287 342.864 333.77L342.113 335.67C341.531 337.153 339.85 337.884 338.364 337.29Z" fill="#E2E2E2"/>
<path fill-rule="evenodd" clip-rule="evenodd" d="M334.526 346.985L311.624 337.914C310.141 337.331 309.421 335.648 310.004 334.165L310.754 332.265C311.336 330.782 313.02 330.062 314.503 330.645L337.405 339.716C338.888 340.299 339.608 341.982 339.025 343.465L338.275 345.365C337.692 346.848 336.012 347.58 334.526 346.985Z" fill="#E2E2E2"/>
<path fill-rule="evenodd" clip-rule="evenodd" d="M340.225 318.458C339.439 320.429 337.837 321.844 335.962 322.438C334.518 322.904 332.91 322.882 331.385 322.283C329.86 321.684 328.679 320.593 327.943 319.257C326.986 317.534 326.786 315.411 327.56 313.443C328.946 309.947 332.904 308.233 336.4 309.618C339.896 311.004 341.608 314.95 340.225 318.458Z" fill="url(#paint5_linear_280_455)"/>
<path d="M334.995 315.588C335.871 315.406 336.433 314.548 336.251 313.672C336.068 312.796 335.211 312.233 334.335 312.416C333.459 312.598 332.896 313.456 333.079 314.332C333.261 315.208 334.119 315.77 334.995 315.588Z" fill="white"/>
<path fill-rule="evenodd" clip-rule="evenodd" d="M335.993 320.93C335.959 321.013 335.925 321.097 335.88 321.182C334.614 321.586 333.211 321.572 331.88 321.047C330.549 320.522 329.51 319.567 328.873 318.401C328.892 318.308 328.925 318.225 328.959 318.142C329.726 316.2 331.933 315.244 333.875 316.012C335.816 316.779 336.76 318.988 335.993 320.93Z" fill="white"/>
<defs>
<linearGradient id="paint0_linear_280_455" x1="95.9693" y1="360.525" x2="224.016" y2="364.199" gradientUnits="userSpaceOnUse">
<stop stop-color="white"/>
<stop offset="1" stop-color="#FF2C2C"/>
</linearGradient>
<linearGradient id="paint1_linear_280_455" x1="182.748" y1="86.4125" x2="194.972" y2="289.887" gradientUnits="userSpaceOnUse">
<stop stop-color="white"/>
<stop offset="1" stop-color="#FF2C2C"/>
</linearGradient>
<linearGradient id="paint2_linear_280_455" x1="338.115" y1="286.812" x2="340.226" y2="295.063" gradientUnits="userSpaceOnUse">
<stop stop-color="white"/>
<stop offset="0.38" stop-color="#FBFCFC"/>
<stop offset="0.67" stop-color="#F2F2F2"/>
<stop offset="0.93" stop-color="#E2E3E3"/>
<stop offset="1" stop-color="#DCDDDD"/>
</linearGradient>
<linearGradient id="paint3_linear_280_455" x1="346.571" y1="293.284" x2="347.375" y2="296.433" gradientUnits="userSpaceOnUse">
<stop stop-color="white"/>
<stop offset="0.38" stop-color="#FBFCFC"/>
<stop offset="0.67" stop-color="#F2F2F2"/>
<stop offset="0.93" stop-color="#E2E3E3"/>
<stop offset="1" stop-color="#DCDDDD"/>
</linearGradient>
<linearGradient id="paint4_linear_280_455" x1="354.295" y1="209.039" x2="397.91" y2="253.86" gradientUnits="userSpaceOnUse">
<stop stop-color="white"/>
<stop offset="0.19" stop-color="#FFFBFB"/>
<stop offset="0.33" stop-color="#FFF2F2"/>
<stop offset="0.46" stop-color="#FFE2E2"/>
<stop offset="0.58" stop-color="#FFCBCB"/>
<stop offset="0.69" stop-color="#FFADAD"/>
<stop offset="0.8" stop-color="#FF8888"/>
<stop offset="0.9" stop-color="#FF5E5E"/>
<stop offset="1" stop-color="#FF2C2C"/>
</linearGradient>
<linearGradient id="paint5_linear_280_455" x1="335.309" y1="294.38" x2="333.512" y2="322.489" gradientUnits="userSpaceOnUse">
<stop stop-color="white"/>
<stop offset="1" stop-color="#FF2C2C"/>
</linearGradient>
<clipPath id="clip0_280_455">
<rect width="376.87" height="417.043" fill="white"/>
</clipPath>
</defs>
</svg>
