<svg width="285" height="226" viewBox="0 0 285 226" fill="none" xmlns="http://www.w3.org/2000/svg">
<path d="M118.37 19.7751C131.498 25.8856 143.369 44.6658 143.647 63.9179" stroke="black" stroke-width="3" stroke-linecap="round" stroke-linejoin="round"/>
<path fill-rule="evenodd" clip-rule="evenodd" d="M115.372 27.7557C107.946 27.7557 101.908 21.7191 101.908 14.3071C101.908 6.89499 107.952 0.852783 115.372 0.852783C122.792 0.852783 128.836 6.8893 128.836 14.3014C128.836 21.7135 122.792 27.75 115.372 27.75V27.7557Z" fill="#FF2C2C"/>
<path d="M115.373 1.70523C122.338 1.70523 127.983 7.34386 127.983 14.3012C127.983 21.2586 122.338 26.8972 115.373 26.8972C108.408 26.8972 102.763 21.2586 102.763 14.3012C102.763 7.34386 108.408 1.70523 115.373 1.70523ZM115.373 0C107.475 0 101.056 6.41736 101.056 14.3012C101.056 22.1851 107.48 28.6024 115.373 28.6024C123.266 28.6024 129.69 22.1851 129.69 14.3012C129.69 6.41736 123.271 0 115.373 0Z" fill="black"/>
<path d="M115.372 11.3003C118.357 11.3003 120.778 9.75303 120.778 7.84436C120.778 5.9357 118.357 4.38843 115.372 4.38843C112.386 4.38843 109.966 5.9357 109.966 7.84436C109.966 9.75303 112.386 11.3003 115.372 11.3003Z" fill="white"/>
<path fill-rule="evenodd" clip-rule="evenodd" d="M35.3833 191.554C35.0305 191.554 34.6663 191.554 34.3021 191.526C22.0106 191.162 10.7433 184.182 4.93901 173.303C2.28154 168.34 0.875977 162.736 0.875977 157.08V147.053C0.875977 138.698 3.90334 130.643 9.40038 124.368C15.9502 116.876 25.4249 112.585 35.3833 112.585H249.074C258.685 112.585 267.944 116.643 274.471 123.714C280.349 130.086 283.581 138.374 283.581 147.053V157.08C283.581 163.031 282.039 168.886 279.126 174.019C273.196 184.5 262.486 191.037 250.479 191.514C250.024 191.537 249.546 191.549 249.068 191.549H35.3833V191.554Z" fill="white"/>
<path d="M249.075 113.449C258.874 113.449 267.689 117.633 273.846 124.3C279.36 130.285 282.729 138.272 282.729 147.059V157.086C282.729 163.094 281.153 168.733 278.387 173.604C272.822 183.437 262.453 190.19 250.452 190.668C250.003 190.69 249.542 190.702 249.075 190.702H35.3844C35.0429 190.702 34.6958 190.702 34.3658 190.679C21.932 190.309 11.1996 183.216 5.69689 172.905C3.1703 168.187 1.73629 162.81 1.73629 157.086V147.059C1.73629 138.59 4.87746 130.837 10.0501 124.937C16.2187 117.888 25.2837 113.443 35.3901 113.443H249.075V113.449ZM249.075 111.738H35.3844C25.1813 111.738 15.4732 116.138 8.7584 123.817C3.12478 130.246 0.0234375 138.499 0.0234375 147.059V157.086C0.0234375 162.878 1.46314 168.625 4.1889 173.706C10.1355 184.841 21.6645 191.992 34.2804 192.379C34.6617 192.401 35.0259 192.401 35.3844 192.401H249.075C249.57 192.401 250.065 192.39 250.543 192.361C262.829 191.878 273.8 185.177 279.878 174.434C282.86 169.176 284.442 163.174 284.442 157.08V147.053C284.442 138.164 281.124 129.666 275.104 123.135C268.417 115.888 258.931 111.732 249.081 111.732L249.075 111.738Z" fill="black"/>
<path fill-rule="evenodd" clip-rule="evenodd" d="M282.729 147.065V157.092C282.729 163.1 281.153 168.739 278.387 173.61C274.842 164.839 272.668 153.124 272.668 140.256C272.668 134.674 273.072 129.308 273.84 124.306C279.354 130.291 282.723 138.277 282.723 147.065H282.729Z" fill="#E2E2E2"/>
<path fill-rule="evenodd" clip-rule="evenodd" d="M11.1265 140.25C11.1265 152.772 9.07222 164.219 5.69205 172.905C3.16546 168.187 1.73145 162.81 1.73145 157.086V147.059C1.73145 138.59 4.87262 130.837 10.0453 124.937C10.7452 129.757 11.1265 134.901 11.1265 140.244V140.25Z" fill="#E2E2E2"/>
<path fill-rule="evenodd" clip-rule="evenodd" d="M88.2114 225.141C54.7169 225.141 27.4707 197.926 27.4707 164.469C27.4707 101.165 79.0326 49.6614 142.408 49.6614C205.783 49.6614 257.345 101.165 257.345 164.469C257.345 197.926 230.099 225.141 196.604 225.141H88.2114Z" fill="white"/>
<path d="M142.407 50.5204C205.413 50.5204 256.491 101.541 256.491 164.475C256.491 197.511 229.677 224.295 196.604 224.295H88.2105C55.1371 224.295 28.3234 197.511 28.3234 164.475C28.3234 101.541 79.4015 50.5204 142.407 50.5204V50.5204ZM142.407 48.8152C126.775 48.8152 111.61 51.8732 97.3381 57.9041C83.5499 63.7303 71.1673 72.0689 60.5317 82.6925C49.8962 93.316 41.5481 105.685 35.7154 119.457C29.6777 133.719 26.6162 148.861 26.6162 164.475C26.6162 180.908 33.0237 196.357 44.6552 207.981C56.2866 219.6 71.7592 226 88.2105 226H196.598C213.049 226 228.516 219.6 240.153 207.981C251.785 196.363 258.192 180.908 258.192 164.475C258.192 148.043 255.131 133.713 249.093 119.457C243.26 105.685 234.912 93.316 224.277 82.6925C213.641 72.0689 201.258 63.7303 187.47 57.9041C173.193 51.8732 158.028 48.8152 142.401 48.8152H142.407Z" fill="black"/>
<path fill-rule="evenodd" clip-rule="evenodd" d="M242.585 161.178C242.585 175.684 236.701 188.808 227.186 198.324C217.66 207.827 204.515 213.705 189.998 213.705H94.8244C80.6721 213.705 67.8115 208.123 58.3595 199.023C55.7874 196.545 53.46 193.822 51.4342 190.86C49.1352 187.518 47.2118 183.88 45.7266 180.032C43.4731 174.178 42.2383 167.828 42.2383 161.178C42.2383 133.548 53.4486 108.532 71.5729 90.4279C89.6973 72.3127 114.741 61.115 142.403 61.115C158.206 61.115 173.137 64.7642 186.425 71.2839C187.352 71.7215 188.252 72.1819 189.151 72.6708C195.177 75.8482 200.833 79.6168 206.057 83.9139C208.55 85.9659 210.945 88.1429 213.233 90.4336C231.369 108.537 242.579 133.553 242.579 161.184L242.585 161.178Z" fill="url(#paint0_linear_324_94)"/>
<path d="M88.8201 175.099C99.0028 175.099 107.257 166.853 107.257 156.682C107.257 146.511 99.0028 138.266 88.8201 138.266C78.6375 138.266 70.3828 146.511 70.3828 156.682C70.3828 166.853 78.6375 175.099 88.8201 175.099Z" fill="#FFD2D2"/>
<path d="M197.158 175.099C207.341 175.099 215.595 166.853 215.595 156.682C215.595 146.511 207.341 138.266 197.158 138.266C186.975 138.266 178.721 146.511 178.721 156.682C178.721 166.853 186.975 175.099 197.158 175.099Z" fill="#FFD2D2"/>
<path d="M133.735 138.385C134.367 143.125 138.629 146.416 142.982 145.933C146.806 145.513 149.987 142.256 150.363 138.118" stroke="black" stroke-width="3" stroke-miterlimit="10" stroke-linecap="round"/>
<path d="M108.84 77.7068C104.065 78.7242 96.6165 82.22 91.7227 87.2106" stroke="white" stroke-width="5" stroke-linecap="round" stroke-linejoin="round"/>
<path d="M85.8733 95.4755C87.5044 95.4755 88.8267 94.1548 88.8267 92.5255C88.8267 90.8962 87.5044 89.5754 85.8733 89.5754C84.2422 89.5754 82.9199 90.8962 82.9199 92.5255C82.9199 94.1548 84.2422 95.4755 85.8733 95.4755Z" fill="white"/>
<path d="M107.629 135.498H104.419C103.552 135.498 102.849 136.199 102.849 137.064C102.849 137.928 103.552 138.629 104.419 138.629H107.629C108.496 138.629 109.199 137.928 109.199 137.064C109.199 136.199 108.496 135.498 107.629 135.498Z" fill="white"/>
<path d="M187.601 135.498H184.392C183.524 135.498 182.821 136.199 182.821 137.064C182.821 137.928 183.524 138.629 184.392 138.629H187.601C188.469 138.629 189.172 137.928 189.172 137.064C189.172 136.199 188.469 135.498 187.601 135.498Z" fill="white"/>
<path d="M111.159 117.281C109.845 116.939 101.998 115.024 95.664 119.77C93.6553 121.271 92.3521 123.033 91.5156 124.471" stroke="black" stroke-width="5" stroke-linecap="round" stroke-linejoin="round"/>
<path d="M172.937 117.281C174.251 116.939 182.098 115.024 188.432 119.77C190.441 121.271 191.744 123.033 192.58 124.471" stroke="black" stroke-width="5" stroke-linecap="round" stroke-linejoin="round"/>
<path d="M104.526 156.682C111.598 156.682 117.33 150.957 117.33 143.893C117.33 136.83 111.598 131.104 104.526 131.104C97.4551 131.104 91.7227 136.83 91.7227 143.893C91.7227 150.957 97.4551 156.682 104.526 156.682Z" fill="black"/>
<path d="M107.981 145.752C110.815 145.752 113.113 143.456 113.113 140.625C113.113 137.793 110.815 135.498 107.981 135.498C105.146 135.498 102.848 137.793 102.848 140.625C102.848 143.456 105.146 145.752 107.981 145.752Z" fill="white"/>
<path d="M179.784 156.682C186.855 156.682 192.588 150.956 192.588 143.893C192.588 136.83 186.855 131.104 179.784 131.104C172.713 131.104 166.98 136.83 166.98 143.893C166.98 150.956 172.713 156.682 179.784 156.682Z" fill="black"/>
<path d="M183.232 145.752C186.067 145.752 188.365 143.456 188.365 140.625C188.365 137.793 186.067 135.498 183.232 135.498C180.398 135.498 178.1 137.793 178.1 140.625C178.1 143.456 180.398 145.752 183.232 145.752Z" fill="white"/>
<defs>
<linearGradient id="paint0_linear_324_94" x1="133.213" y1="1.46598" x2="143.983" y2="188.048" gradientUnits="userSpaceOnUse">
<stop stop-color="white"/>
<stop offset="1" stop-color="#FF2C2C"/>
</linearGradient>
</defs>
</svg>
