<svg width="67" height="49" viewBox="0 0 67 49" fill="none" xmlns="http://www.w3.org/2000/svg">
<path fill-rule="evenodd" clip-rule="evenodd" d="M24.4973 48.135C11.4644 48.135 0.859375 37.5357 0.859375 24.5029C0.859375 23.5052 0.922819 22.4903 1.04969 21.4926C1.7071 16.3372 4.09452 11.47 7.78524 7.79085C12.2429 3.32739 18.1769 0.86499 24.4973 0.86499H41.9359C53.8096 0.86499 63.8899 9.73424 65.3835 21.4926C65.5103 22.4903 65.5738 23.5052 65.5738 24.5029C65.5738 30.8117 63.1114 36.7514 58.6479 41.2149C54.1845 45.6783 48.2505 48.135 41.9359 48.135H24.4973Z" fill="white"/>
<path d="M41.9358 1.73002C53.5327 1.73002 63.0997 10.3974 64.5241 21.6022C64.6452 22.5537 64.7086 23.5225 64.7086 24.5029C64.7086 30.7886 62.1597 36.4804 58.0365 40.6036C53.919 44.7211 48.2273 47.27 41.9358 47.27H24.4971C11.9199 47.27 1.72425 37.0744 1.72425 24.5029C1.72425 23.5225 1.78769 22.5537 1.90879 21.6022C2.56043 16.4756 4.91903 11.8737 8.39638 8.40214C12.5138 4.27892 18.2056 1.73002 24.4971 1.73002H41.9358ZM41.9358 0H24.4971C17.9461 0 11.793 2.5489 7.17383 7.1796C3.35048 10.9914 0.870776 16.0373 0.196067 21.3831C0.0634321 22.4153 0 23.4649 0 24.5029C0 38.0086 10.9914 49 24.5029 49H41.9415C48.4868 49 54.6399 46.4511 59.2648 41.8262C63.8955 37.1955 66.4444 31.0424 66.4444 24.5029C66.4444 23.4649 66.3752 22.4153 66.2483 21.3831C64.6971 9.19219 54.2478 0 41.9415 0H41.9358Z" fill="black"/>
<path fill-rule="evenodd" clip-rule="evenodd" d="M64.709 24.503C64.709 30.7887 62.1601 36.4805 58.0369 40.6037C53.9194 44.7212 48.2276 47.2701 41.9361 47.2701H24.4975C11.9202 47.2701 1.72461 37.0745 1.72461 24.503C1.72461 23.5226 1.78805 22.5538 1.90915 21.6023H64.5244C64.6455 22.5538 64.709 23.5226 64.709 24.503V24.503Z" fill="#FF2C2C"/>
</svg>
