<svg width="431" height="523" viewBox="0 0 431 523" fill="none" xmlns="http://www.w3.org/2000/svg">
<path fill-rule="evenodd" clip-rule="evenodd" d="M333.395 160.398C332.705 160.398 332.093 159.98 331.822 159.346C331.562 158.712 331.709 157.976 332.195 157.501L344.678 145.019C336.292 136.045 331.697 124.4 331.697 112.053C331.697 85.3915 353.391 63.7087 380.053 63.7087C406.715 63.7087 428.398 85.4028 428.398 112.053C428.398 138.704 406.704 160.398 380.053 160.398H333.395V160.398Z" fill="white"/>
<path d="M380.042 65.395C405.81 65.395 426.69 86.2855 426.69 112.042C426.69 137.799 405.799 158.69 380.042 158.69H333.395L347.054 145.03C338.612 136.588 333.395 124.921 333.395 112.042C333.395 86.2742 354.274 65.395 380.042 65.395ZM380.042 62C352.441 62 330 84.4522 330 112.042C330 124.276 334.357 135.83 342.335 144.951L330.996 156.29C330.023 157.264 329.74 158.723 330.26 159.991C330.781 161.258 332.026 162.085 333.395 162.085H380.042C407.644 162.085 430.085 139.632 430.085 112.042C430.096 84.4522 407.644 62 380.042 62Z" fill="black"/>
<path fill-rule="evenodd" clip-rule="evenodd" d="M418.429 111.816C418.429 123.778 412.951 134.483 404.373 141.499C397.742 146.943 389.311 150.179 380.065 150.179C370.819 150.179 362.377 146.931 355.757 141.499C347.179 134.483 341.702 123.778 341.702 111.816C341.702 90.6084 358.858 73.4524 380.065 73.4524C401.261 73.4524 418.429 90.6084 418.429 111.816Z" fill="url(#paint0_linear_213_26)"/>
<path d="M380.054 109.202C385.11 109.202 389.209 105.103 389.209 100.047C389.209 94.9903 385.11 90.8914 380.054 90.8914C374.997 90.8914 370.898 94.9903 370.898 100.047C370.898 105.103 374.997 109.202 380.054 109.202Z" fill="white"/>
<path fill-rule="evenodd" clip-rule="evenodd" d="M401.408 133.601C401.408 134.121 401.374 134.642 401.318 135.151C395.524 139.915 388.134 142.744 380.054 142.744C371.974 142.744 364.584 139.904 358.79 135.151C358.733 134.63 358.699 134.11 358.699 133.601C358.699 121.797 368.25 112.246 380.054 112.246C391.868 112.246 401.408 121.797 401.408 133.601Z" fill="white"/>
<path d="M158.297 522.906C210.994 522.906 253.714 515.54 253.714 506.453C253.714 497.366 210.994 490 158.297 490C105.6 490 62.8799 497.366 62.8799 506.453C62.8799 515.54 105.6 522.906 158.297 522.906Z" fill="#830000" fill-opacity="0.2"/>
<path fill-rule="evenodd" clip-rule="evenodd" d="M30.2456 305.812C27.3497 303.575 25.0638 300.599 23.6371 297.207C21.4183 291.946 21.3845 286.139 23.5384 280.862C25.6872 275.581 29.7705 271.459 35.0269 269.251L37.8444 268.074L81.5515 249.692L84.0809 248.629C91.1638 245.655 99.3511 246.729 105.449 251.441C107.823 253.275 109.752 255.55 111.176 258.188C111.514 258.809 111.805 259.418 112.066 260.044C115.049 267.129 113.978 275.309 109.276 281.395C109.094 281.63 108.884 281.901 108.658 282.142C106.502 284.704 103.798 286.689 100.668 288.002L68.5654 301.499L63.128 303.774L51.6075 308.612C51.5565 308.636 51.4621 308.675 51.3666 308.706L51.2888 308.734C44.2842 311.544 36.2207 310.413 30.2433 305.794L30.2456 305.812Z" fill="#E2E2E2"/>
<path d="M104.868 252.193C107.071 253.895 108.951 256.068 110.34 258.638C110.649 259.213 110.932 259.801 111.187 260.414C114.144 267.438 112.873 275.183 108.519 280.818C108.341 281.049 108.155 281.289 107.957 281.504C105.945 283.889 103.364 285.85 100.294 287.137L68.1918 300.634L62.7544 302.909L51.2339 307.747C51.1279 307.801 51.0185 307.828 50.9202 307.873C43.9756 310.657 36.3685 309.351 30.8176 305.062C28.1275 302.983 25.9163 300.202 24.507 296.839C20.1261 286.44 24.9997 274.49 35.3887 270.131L38.2063 268.954L81.9134 250.573L84.4428 249.509C91.4658 246.561 99.219 247.844 104.855 252.199L104.868 252.193ZM106.017 250.695C99.6483 245.774 91.0978 244.651 83.6973 247.756L81.164 248.825L37.4569 267.206L34.6444 268.387C29.152 270.693 24.8887 274.996 22.639 280.512C20.3892 286.027 20.4335 292.09 22.7455 297.583C24.2322 301.126 26.6164 304.233 29.6428 306.572C35.8863 311.396 44.308 312.571 51.6186 309.645L51.6835 309.623C51.7868 309.583 51.8901 309.543 51.9972 309.497L63.4883 304.677L68.9257 302.402L101.028 288.905C104.287 287.54 107.09 285.478 109.377 282.778C109.623 282.512 109.832 282.241 110.018 282C114.93 275.644 116.047 267.092 112.93 259.695C112.651 259.039 112.348 258.404 112.002 257.753C110.512 254.992 108.498 252.619 106.018 250.704L106.017 250.695Z" fill="black"/>
<path fill-rule="evenodd" clip-rule="evenodd" d="M24.5158 296.838C28.8362 307.117 40.6192 312.003 50.9328 307.866C51.0311 307.822 51.1405 307.795 51.2465 307.74L62.767 302.903C74.7986 287.228 81.0687 268.927 81.921 250.563L38.2139 268.944L35.3963 270.121C25.0073 274.48 20.1387 286.434 24.5146 296.829L24.5158 296.838Z" fill="white"/>
<path fill-rule="evenodd" clip-rule="evenodd" d="M24.516 296.838C28.8365 307.118 40.6195 312.003 50.9331 307.866L38.2103 268.949L35.3927 270.127C25.0037 274.485 20.1351 286.439 24.511 296.834L24.516 296.838Z" fill="#FF2C2C"/>
<path fill-rule="evenodd" clip-rule="evenodd" d="M287.967 308.06C281.835 312.471 273.738 313.324 266.842 310.277L266.753 310.24C266.664 310.203 266.565 310.164 266.474 310.113L255.167 304.909L249.811 302.449L218.19 287.86C215.107 286.441 212.481 284.365 210.379 281.694C210.192 281.477 209.992 281.2 209.818 280.958C205.327 274.714 204.534 266.497 207.766 259.521C208.049 258.904 208.36 258.305 208.719 257.696C210.234 255.1 212.239 252.901 214.674 251.149C220.93 246.649 229.145 245.851 236.122 249.065L238.617 250.22L281.669 270.088L284.445 271.361C289.622 273.747 293.562 278.008 295.534 283.355C297.501 288.707 297.268 294.509 294.87 299.691C293.333 303.029 290.947 305.924 287.971 308.065L287.967 308.06Z" fill="#E2E2E2"/>
<path d="M215.22 251.919C221.007 247.756 228.795 246.743 235.713 249.93L238.204 251.08L281.256 270.947L284.032 272.221C294.265 276.932 298.722 289.046 293.992 299.285C292.465 302.592 290.169 305.298 287.404 307.287C281.709 311.383 274.058 312.423 267.217 309.407C267.12 309.36 267.011 309.329 266.907 309.271L255.559 304.042L250.203 301.581L218.582 286.993C215.563 285.598 213.045 283.554 211.117 281.101C210.926 280.879 210.749 280.632 210.578 280.396C206.42 274.615 205.415 266.832 208.61 259.913C208.892 259.305 209.19 258.731 209.519 258.167C210.994 255.646 212.947 253.538 215.208 251.912L215.22 251.919ZM214.098 250.37C211.554 252.199 209.46 254.502 207.877 257.21C207.505 257.844 207.18 258.468 206.883 259.119C203.514 266.404 204.339 274.981 209.034 281.507C209.211 281.754 209.415 282.037 209.648 282.306C211.837 285.078 214.572 287.24 217.782 288.715L249.403 303.304L254.759 305.765L266.079 310.975C266.179 311.028 266.281 311.072 266.384 311.107L266.431 311.128C273.653 314.314 282.11 313.428 288.515 308.821C291.62 306.587 294.109 303.564 295.721 300.07C298.22 294.659 298.472 288.602 296.412 283.012C294.353 277.423 290.245 272.972 284.835 270.48L282.059 269.207L239.007 249.339L236.521 248.186C229.231 244.829 220.647 245.658 214.113 250.358L214.098 250.37Z" fill="black"/>
<path fill-rule="evenodd" clip-rule="evenodd" d="M293.996 299.29C289.326 309.416 277.382 313.895 267.216 309.408C267.12 309.36 267.011 309.329 266.907 309.271L255.559 304.042C244.072 287.964 238.432 269.459 238.209 251.076L281.261 270.943L284.037 272.217C294.27 276.928 298.727 289.043 293.997 299.281L293.996 299.29Z" fill="white"/>
<path fill-rule="evenodd" clip-rule="evenodd" d="M293.996 299.29C289.326 309.416 277.383 313.895 267.217 309.407L281.265 270.949L284.041 272.222C294.274 276.934 298.731 289.048 294.001 299.286L293.996 299.29Z" fill="#FF2C2C"/>
<path fill-rule="evenodd" clip-rule="evenodd" d="M160.675 369.08C140.462 369.08 121.453 361.212 107.157 346.932C92.8672 332.645 84.9961 313.665 84.9961 293.486C84.9961 289.71 85.2752 285.941 85.827 282.279C88.2181 266.187 95.5945 251.578 107.157 240.028C121.459 225.755 140.468 217.893 160.675 217.893C178.929 217.893 196.561 224.475 210.318 236.424C223.942 248.258 232.891 264.54 235.524 282.279C236.075 285.941 236.354 289.71 236.354 293.486C236.354 313.665 228.483 332.645 214.194 346.932C199.897 361.212 180.889 369.08 160.675 369.08V369.08Z" fill="#E2E2E2"/>
<path d="M160.675 218.843C198.185 218.843 229.245 246.446 234.585 282.419C235.13 286.023 235.403 289.723 235.403 293.486C235.403 314.102 227.031 332.747 213.521 346.26C199.993 359.774 181.314 368.13 160.675 368.13C140.037 368.13 121.352 359.767 107.829 346.26C94.3198 332.747 85.9477 314.102 85.9477 293.486C85.9477 289.723 86.2268 286.023 86.7659 282.419C89.1697 266.238 96.7744 251.743 107.829 240.7C121.358 227.206 140.037 218.843 160.675 218.843V218.843ZM160.675 216.942C140.214 216.942 120.965 224.9 106.485 239.357C94.7765 251.052 87.3113 265.845 84.8885 282.14C84.3303 285.846 84.0449 289.666 84.0449 293.486C84.0449 313.918 92.0112 333.133 106.485 347.603C120.965 362.067 140.208 370.031 160.675 370.031C181.143 370.031 200.386 362.067 214.866 347.603C229.333 333.133 237.306 313.918 237.306 293.486C237.306 289.666 237.021 285.846 236.462 282.14C233.799 264.179 224.729 247.688 210.94 235.708C197.012 223.607 179.158 216.942 160.675 216.942V216.942Z" fill="black"/>
<path fill-rule="evenodd" clip-rule="evenodd" d="M235.403 293.487C235.403 314.102 227.031 332.747 213.522 346.26C209.025 350.739 203.976 354.661 198.464 357.898C185.836 360.445 172.536 361.807 158.773 361.807C147.058 361.807 135.661 360.819 124.751 358.956C118.51 355.523 112.827 351.246 107.83 346.267C94.3199 332.753 85.9478 314.108 85.9478 293.493C85.9478 289.73 86.2268 286.03 86.7659 282.425C108.54 273.074 133.783 267.74 160.676 267.74C187.568 267.74 212.805 273.074 234.585 282.425C235.131 286.03 235.403 289.73 235.403 293.493V293.487Z" fill="white"/>
<path fill-rule="evenodd" clip-rule="evenodd" d="M162.794 299.904H180.705C188.76 299.904 195.287 306.423 195.287 314.469C195.287 322.515 188.76 329.034 180.705 329.034H148.212C140.157 329.034 133.631 322.515 133.631 314.469V254.442C133.631 246.396 140.157 239.876 148.212 239.876C156.267 239.876 162.794 246.396 162.794 254.442V299.904Z" fill="url(#paint1_linear_213_26)"/>
<path d="M131.906 22.0408C146.538 28.8513 159.769 49.7834 160.079 71.2413" stroke="black" stroke-width="3" stroke-linecap="round" stroke-linejoin="round"/>
<path fill-rule="evenodd" clip-rule="evenodd" d="M128.563 30.9356C120.286 30.9356 113.557 24.2074 113.557 15.946C113.557 7.68471 120.292 0.950195 128.563 0.950195C136.834 0.950195 143.57 7.67837 143.57 15.9397C143.57 24.201 136.834 30.9292 128.563 30.9292V30.9356Z" fill="#FF2C2C"/>
<path d="M128.563 1.90061C136.327 1.90061 142.618 8.18531 142.618 15.9398C142.618 23.6943 136.327 29.979 128.563 29.979C120.8 29.979 114.508 23.6943 114.508 15.9398C114.508 8.18531 120.8 1.90061 128.563 1.90061ZM128.563 0C119.76 0 112.605 7.15265 112.605 15.9398C112.605 24.727 119.766 31.8796 128.563 31.8796C137.36 31.8796 144.521 24.727 144.521 15.9398C144.521 7.15265 137.367 0 128.563 0Z" fill="black"/>
<path d="M128.563 12.5947C131.891 12.5947 134.589 10.8701 134.589 8.74278C134.589 6.61543 131.891 4.89087 128.563 4.89087C125.236 4.89087 122.538 6.61543 122.538 8.74278C122.538 10.8701 125.236 12.5947 128.563 12.5947Z" fill="white"/>
<path fill-rule="evenodd" clip-rule="evenodd" d="M39.4123 213.502C39.0191 213.502 38.6132 213.502 38.2072 213.471C24.5074 213.065 11.9491 205.285 5.47974 193.159C2.51778 187.629 0.951172 181.382 0.951172 175.078V163.903C0.951172 154.59 4.3254 145.612 10.4523 138.618C17.7526 130.268 28.3129 125.485 39.4123 125.485H277.587C288.3 125.485 298.619 130.008 305.894 137.89C312.446 144.991 316.048 154.228 316.048 163.903V175.078C316.048 181.711 314.33 188.237 311.082 193.958C304.473 205.64 292.537 212.926 279.154 213.458C278.646 213.483 278.114 213.496 277.581 213.496H39.4123V213.502Z" fill="white"/>
<path d="M277.587 126.448C288.509 126.448 298.334 131.111 305.197 138.542C311.342 145.213 315.097 154.115 315.097 163.909V175.085C315.097 181.781 313.34 188.066 310.258 193.495C304.055 204.456 292.499 211.982 279.122 212.514C278.621 212.539 278.108 212.552 277.587 212.552H39.4125C39.032 212.552 38.6451 212.552 38.2772 212.527C24.4188 212.115 12.4567 204.208 6.32351 192.716C3.50742 187.458 1.9091 181.464 1.9091 175.085V163.909C1.9091 154.469 5.41018 145.828 11.1756 139.252C18.0509 131.396 28.1545 126.442 39.4189 126.442H277.587V126.448ZM277.587 124.541H39.4125C28.0404 124.541 17.22 129.445 9.7358 138.004C3.45668 145.169 0 154.368 0 163.909V175.085C0 181.54 1.60466 187.946 4.64274 193.609C11.2707 206.02 24.1207 213.99 38.1821 214.421C38.607 214.446 39.0129 214.446 39.4125 214.446H277.587C278.139 214.446 278.691 214.434 279.224 214.402C292.917 213.864 305.146 206.394 311.92 194.42C315.243 188.56 317.006 181.87 317.006 175.078V163.903C317.006 153.994 313.309 144.523 306.598 137.243C299.146 129.166 288.573 124.535 277.594 124.535L277.587 124.541Z" fill="black"/>
<path fill-rule="evenodd" clip-rule="evenodd" d="M315.097 163.915V175.091C315.097 181.788 313.341 188.072 310.258 193.502C306.307 183.726 303.884 170.669 303.884 156.326C303.884 150.104 304.334 144.124 305.19 138.549C311.336 145.22 315.091 154.121 315.091 163.915H315.097Z" fill="#E2E2E2"/>
<path fill-rule="evenodd" clip-rule="evenodd" d="M12.3744 156.319C12.3744 170.276 10.0847 183.036 6.31724 192.716C3.50115 187.458 1.90283 181.464 1.90283 175.085V163.909C1.90283 154.469 5.40391 145.828 11.1693 139.252C11.9494 144.624 12.3744 150.358 12.3744 156.313V156.319Z" fill="#E2E2E2"/>
<path fill-rule="evenodd" clip-rule="evenodd" d="M98.2901 250.938C60.9579 250.938 30.5898 220.604 30.5898 183.314C30.5898 112.757 88.0596 55.3523 158.696 55.3523C229.333 55.3523 286.803 112.757 286.803 183.314C286.803 220.604 256.435 250.938 219.103 250.938H98.2901Z" fill="white"/>
<path d="M158.697 56.3088C228.921 56.3088 285.852 113.175 285.852 183.321C285.852 220.142 255.966 249.994 219.103 249.994H98.2903C61.4275 249.994 31.5414 220.142 31.5414 183.321C31.5414 113.175 88.472 56.3088 158.697 56.3088V56.3088ZM158.697 54.4082C141.274 54.4082 124.371 57.8166 108.464 64.5385C93.0958 71.0322 79.2944 80.3262 67.4402 92.1671C55.586 104.008 46.2815 117.794 39.7804 133.144C33.051 149.04 29.6387 165.917 29.6387 183.321C29.6387 201.636 36.7804 218.856 49.7445 231.812C62.7087 244.761 79.954 251.895 98.2903 251.895H219.097C237.433 251.895 254.672 244.761 267.642 231.812C280.607 218.862 287.748 201.636 287.748 183.321C287.748 165.005 284.336 149.033 277.606 133.144C271.105 117.794 261.801 104.008 249.947 92.1671C238.092 80.3262 224.291 71.0322 208.923 64.5385C193.01 57.8166 176.107 54.4082 158.69 54.4082H158.697Z" fill="black"/>
<path fill-rule="evenodd" clip-rule="evenodd" d="M270.351 179.646C270.351 195.814 263.792 210.442 253.188 221.048C242.57 231.64 227.919 238.191 211.739 238.191H105.66C89.8863 238.191 75.5522 231.97 65.0172 221.827C62.1504 219.065 59.5563 216.03 57.2984 212.729C54.736 209.004 52.5922 204.95 50.9368 200.66C48.4252 194.135 47.0488 187.058 47.0488 179.646C47.0488 148.85 59.5436 120.968 79.7446 100.789C99.9456 80.5986 127.859 68.1179 158.69 68.1179C176.303 68.1179 192.946 72.1852 207.756 79.4519C208.79 79.9397 209.792 80.4529 210.794 80.9978C217.511 84.5392 223.815 88.7396 229.638 93.5291C232.416 95.8162 235.086 98.2427 237.636 100.796C257.849 120.974 270.344 148.856 270.344 179.652L270.351 179.646Z" fill="url(#paint2_linear_213_26)"/>
<path d="M98.9688 195.161C110.318 195.161 119.519 185.971 119.519 174.635C119.519 163.298 110.318 154.108 98.9688 154.108C87.6194 154.108 78.4189 163.298 78.4189 174.635C78.4189 185.971 87.6194 195.161 98.9688 195.161Z" fill="#FFD2D2"/>
<path d="M219.718 195.161C231.068 195.161 240.268 185.971 240.268 174.635C240.268 163.298 231.068 154.108 219.718 154.108C208.369 154.108 199.168 163.298 199.168 174.635C199.168 185.971 208.369 195.161 219.718 195.161Z" fill="#FFD2D2"/>
<path d="M149.03 154.241C149.734 159.525 154.485 163.193 159.337 162.654C163.599 162.186 167.145 158.556 167.563 153.943" stroke="black" stroke-width="3" stroke-miterlimit="10" stroke-linecap="round"/>
<path d="M121.282 86.6108C115.961 87.7449 107.658 91.6411 102.204 97.2036" stroke="white" stroke-width="5" stroke-linecap="round" stroke-linejoin="round"/>
<path d="M95.6834 106.415C97.5014 106.415 98.9752 104.943 98.9752 103.127C98.9752 101.311 97.5014 99.8391 95.6834 99.8391C93.8654 99.8391 92.3916 101.311 92.3916 103.127C92.3916 104.943 93.8654 106.415 95.6834 106.415Z" fill="white"/>
<path d="M119.931 151.023H116.354C115.387 151.023 114.603 151.804 114.603 152.768C114.603 153.732 115.387 154.513 116.354 154.513H119.931C120.898 154.513 121.681 153.732 121.681 152.768C121.681 151.804 120.898 151.023 119.931 151.023Z" fill="white"/>
<path d="M209.069 151.023H205.492C204.525 151.023 203.741 151.804 203.741 152.768C203.741 153.732 204.525 154.513 205.492 154.513H209.069C210.036 154.513 210.819 153.732 210.819 152.768C210.819 151.804 210.036 151.023 209.069 151.023Z" fill="white"/>
<path d="M123.87 130.718C122.404 130.338 113.658 128.203 106.599 133.493C104.36 135.165 102.907 137.129 101.975 138.732" stroke="black" stroke-width="5" stroke-linecap="round" stroke-linejoin="round"/>
<path d="M192.724 130.718C194.189 130.338 202.936 128.203 209.995 133.493C212.234 135.165 213.686 137.129 214.619 138.732" stroke="black" stroke-width="5" stroke-linecap="round" stroke-linejoin="round"/>
<path d="M116.474 174.635C124.356 174.635 130.745 168.253 130.745 160.38C130.745 152.507 124.356 146.125 116.474 146.125C108.593 146.125 102.204 152.507 102.204 160.38C102.204 168.253 108.593 174.635 116.474 174.635Z" fill="black"/>
<path d="M120.324 162.452C123.484 162.452 126.045 159.893 126.045 156.737C126.045 153.581 123.484 151.023 120.324 151.023C117.165 151.023 114.604 153.581 114.604 156.737C114.604 159.893 117.165 162.452 120.324 162.452Z" fill="white"/>
<path d="M200.354 174.635C208.236 174.635 214.625 168.253 214.625 160.38C214.625 152.507 208.236 146.125 200.354 146.125C192.473 146.125 186.083 152.507 186.083 160.38C186.083 168.253 192.473 174.635 200.354 174.635Z" fill="black"/>
<path d="M204.198 162.452C207.358 162.452 209.919 159.893 209.919 156.737C209.919 153.581 207.358 151.023 204.198 151.023C201.038 151.023 198.477 153.581 198.477 156.737C198.477 159.893 201.038 162.452 204.198 162.452Z" fill="white"/>
<path fill-rule="evenodd" clip-rule="evenodd" d="M290.133 308.824C289.51 308.824 288.899 308.637 288.376 308.3L257.931 288.249C257.221 287.776 256.735 287.053 256.56 286.218C256.386 285.383 256.548 284.523 257.022 283.813L296.825 223.36C297.423 222.463 298.42 221.915 299.504 221.915C300.127 221.915 300.738 222.101 301.261 222.438L331.706 242.489C332.416 242.963 332.902 243.685 333.076 244.52C333.251 245.355 333.089 246.215 332.615 246.926L292.812 307.378C292.214 308.288 291.217 308.824 290.133 308.824Z" fill="white"/>
<path d="M299.492 223.797C299.754 223.797 300.003 223.872 300.215 224.021L330.659 244.072C331.27 244.471 331.444 245.306 331.033 245.917L291.23 306.369C290.98 306.743 290.569 306.968 290.108 306.968C289.846 306.968 289.597 306.893 289.385 306.743L258.941 286.692C258.542 286.43 258.405 286.044 258.368 285.845C258.33 285.645 258.293 285.246 258.555 284.848L298.358 224.395C298.62 224.021 299.031 223.797 299.492 223.797ZM299.492 220.058C297.847 220.058 296.227 220.856 295.255 222.339L255.452 282.792C253.906 285.134 254.554 288.275 256.897 289.82L287.342 309.859C288.201 310.42 289.173 310.694 290.121 310.694C291.766 310.694 293.386 309.896 294.358 308.413L334.161 247.961C335.706 245.618 335.058 242.477 332.715 240.932L302.271 220.881C301.411 220.32 300.439 220.058 299.492 220.058Z" fill="black"/>
<path fill-rule="evenodd" clip-rule="evenodd" d="M282.73 306.818L252.285 286.766C249.942 285.221 249.294 282.081 250.84 279.738L290.643 219.285C292.188 216.943 295.329 216.294 297.672 217.84L328.116 237.891C330.459 239.436 331.107 242.577 329.562 244.919L289.758 305.372C288.213 307.703 285.06 308.35 282.73 306.818Z" fill="black"/>
<path fill-rule="evenodd" clip-rule="evenodd" d="M288.175 299.154L257.158 278.742C256.323 278.193 256.098 277.084 256.647 276.249L289.097 226.963C289.646 226.128 290.755 225.903 291.59 226.452L322.607 246.864C323.442 247.413 323.667 248.522 323.118 249.357L290.655 298.643C290.119 299.466 288.998 299.703 288.175 299.154Z" fill="white"/>
<path fill-rule="evenodd" clip-rule="evenodd" d="M310.956 234.277L304.314 229.903C303.878 229.616 303.753 229.03 304.04 228.594C304.327 228.158 304.912 228.033 305.349 228.32L311.991 232.694C312.427 232.981 312.552 233.567 312.265 234.003C311.978 234.439 311.393 234.563 310.956 234.277Z" fill="url(#paint3_linear_213_26)"/>
<path fill-rule="evenodd" clip-rule="evenodd" d="M314.384 236.533L313.549 235.985C313.113 235.698 312.988 235.112 313.275 234.676C313.562 234.24 314.147 234.115 314.583 234.402L315.418 234.95C315.855 235.237 315.979 235.823 315.693 236.259C315.418 236.695 314.833 236.819 314.384 236.533Z" fill="url(#paint4_linear_213_26)"/>
<path fill-rule="evenodd" clip-rule="evenodd" d="M296.824 273.195L276.249 259.649C274.916 258.777 274.555 256.982 275.427 255.649L276.549 253.942C277.421 252.608 279.215 252.247 280.549 253.119L301.123 266.665C302.457 267.538 302.818 269.332 301.946 270.666L300.824 272.373C299.952 273.706 298.157 274.08 296.824 273.195Z" fill="#E2E2E2"/>
<path fill-rule="evenodd" clip-rule="evenodd" d="M291.091 281.906L270.517 268.36C269.183 267.488 268.822 265.693 269.694 264.36L270.816 262.652C271.688 261.319 273.483 260.958 274.816 261.83L295.391 275.376C296.724 276.248 297.085 278.043 296.213 279.376L295.091 281.083C294.219 282.417 292.425 282.791 291.091 281.906Z" fill="#E2E2E2"/>
<path fill-rule="evenodd" clip-rule="evenodd" d="M302.482 255.138C301.31 256.907 299.453 257.967 297.497 258.166C295.989 258.328 294.419 257.979 293.048 257.082C291.677 256.185 290.742 254.876 290.294 253.418C289.708 251.536 289.945 249.418 291.104 247.648C293.173 244.508 297.397 243.635 300.537 245.704C303.678 247.773 304.55 251.985 302.482 255.138Z" fill="url(#paint5_linear_213_26)"/>
<path d="M297.945 251.262C298.84 251.262 299.565 250.537 299.565 249.642C299.565 248.748 298.84 248.022 297.945 248.022C297.05 248.022 296.325 248.748 296.325 249.642C296.325 250.537 297.05 251.262 297.945 251.262Z" fill="white"/>
<path fill-rule="evenodd" clip-rule="evenodd" d="M297.834 256.695C297.784 256.77 297.734 256.845 297.672 256.92C296.351 257.057 294.98 256.758 293.784 255.973C292.588 255.188 291.765 254.041 291.379 252.77C291.416 252.683 291.466 252.608 291.516 252.533C292.662 250.789 295.018 250.303 296.762 251.449C298.507 252.596 298.981 254.951 297.834 256.695Z" fill="white"/>
<defs>
<linearGradient id="paint0_linear_213_26" x1="342.492" y1="-4.08477" x2="391.382" y2="146.874" gradientUnits="userSpaceOnUse">
<stop stop-color="white"/>
<stop offset="1" stop-color="#FF2C2C"/>
</linearGradient>
<linearGradient id="paint1_linear_213_26" x1="56.1377" y1="281.715" x2="192.331" y2="285.785" gradientUnits="userSpaceOnUse">
<stop stop-color="white"/>
<stop offset="1" stop-color="#FF2C2C"/>
</linearGradient>
<linearGradient id="paint2_linear_213_26" x1="148.447" y1="1.63442" x2="160.452" y2="209.595" gradientUnits="userSpaceOnUse">
<stop stop-color="white"/>
<stop offset="1" stop-color="#FF2C2C"/>
</linearGradient>
<linearGradient id="paint3_linear_213_26" x1="308.009" y1="225.49" x2="308.247" y2="233.555" gradientUnits="userSpaceOnUse">
<stop stop-color="white"/>
<stop offset="0.3809" stop-color="#FCFCFC"/>
<stop offset="0.6691" stop-color="#F2F3F3"/>
<stop offset="0.9262" stop-color="#E2E3E3"/>
<stop offset="1" stop-color="#DCDDDD"/>
</linearGradient>
<linearGradient id="paint4_linear_213_26" x1="314.451" y1="233.229" x2="314.542" y2="236.309" gradientUnits="userSpaceOnUse">
<stop stop-color="white"/>
<stop offset="0.3809" stop-color="#FCFCFC"/>
<stop offset="0.6691" stop-color="#F2F3F3"/>
<stop offset="0.9262" stop-color="#E2E3E3"/>
<stop offset="1" stop-color="#DCDDDD"/>
</linearGradient>
<linearGradient id="paint5_linear_213_26" x1="302.573" y1="230.563" x2="295.088" y2="257.717" gradientUnits="userSpaceOnUse">
<stop stop-color="white"/>
<stop offset="1" stop-color="#FF2C2C"/>
</linearGradient>
</defs>
</svg>
