<svg width="24" height="24" viewBox="0 0 24 24" fill="none" xmlns="http://www.w3.org/2000/svg">
<path d="M6.89044 16.7846L7.46096 17.2715C7.70885 16.981 7.69888 16.5506 7.43779 16.2719L6.89044 16.7846ZM5 19L4.42949 18.5132C4.23955 18.7357 4.1964 19.0484 4.31896 19.3141C4.44152 19.5798 4.7074 19.75 5 19.75V19ZM18.25 12C18.25 15.4518 15.4518 18.25 12 18.25V19.75C16.2802 19.75 19.75 16.2802 19.75 12H18.25ZM12 5.75C15.4518 5.75 18.25 8.54822 18.25 12H19.75C19.75 7.71979 16.2802 4.25 12 4.25V5.75ZM5.75 12C5.75 8.54822 8.54822 5.75 12 5.75V4.25C7.71979 4.25 4.25 7.71979 4.25 12H5.75ZM7.43779 16.2719C6.39031 15.1537 5.75 13.6525 5.75 12H4.25C4.25 14.0482 5.04556 15.9123 6.3431 17.2974L7.43779 16.2719ZM6.31993 16.2978L4.42949 18.5132L5.57051 19.4868L7.46096 17.2715L6.31993 16.2978ZM5 19.75H12V18.25H5V19.75Z" fill="black"/>
<circle cx="9" cy="12" r="1" fill="black"/>
<circle cx="15" cy="12" r="1" fill="black"/>
<circle cx="12" cy="12" r="1" fill="black"/>
</svg>
