<svg width="20" height="19" viewBox="0 0 20 19" fill="none" xmlns="http://www.w3.org/2000/svg">
<path fill-rule="evenodd" clip-rule="evenodd" d="M18.2499 7.5C18.2499 4.32436 15.6756 1.75 12.4999 1.75C10.2193 1.75 8.24875 3.07777 7.31919 5.00247C6.72074 5.0188 6.14249 5.11603 5.59497 5.2836C6.5315 2.3636 9.26888 0.25 12.4999 0.25C16.504 0.25 19.7499 3.49594 19.7499 7.5C19.7499 9.17336 19.1823 10.7154 18.2299 11.9423L19.5704 13.5132C19.7604 13.7357 19.8035 14.0484 19.681 14.3141C19.5584 14.5798 19.2925 14.75 18.9999 14.75H13.1303C13.4002 14.2835 13.6137 13.7804 13.7616 13.25H17.374L16.674 12.4297C16.4261 12.1392 16.4361 11.7088 16.6972 11.4301C17.6609 10.4014 18.2499 9.0203 18.2499 7.5Z" fill="black"/>
<path d="M2.75541 15.9429L3.32593 16.4297C3.57382 16.1392 3.56384 15.7088 3.30276 15.4301L2.75541 15.9429ZM1 18L0.429485 17.5132C0.239554 17.7357 0.196404 18.0484 0.31896 18.3141C0.441517 18.5798 0.707401 18.75 1 18.75L1 18ZM13.25 11.5C13.25 14.6756 10.6756 17.25 7.5 17.25V18.75C11.5041 18.75 14.75 15.5041 14.75 11.5H13.25ZM7.5 5.75C10.6756 5.75 13.25 8.32436 13.25 11.5H14.75C14.75 7.49594 11.5041 4.25 7.5 4.25V5.75ZM1.75 11.5C1.75 8.32436 4.32436 5.75 7.5 5.75V4.25C3.49594 4.25 0.25 7.49594 0.25 11.5H1.75ZM3.30276 15.4301C2.33903 14.4014 1.75 13.0203 1.75 11.5H0.25C0.25 13.4161 0.994279 15.1599 2.20806 16.4556L3.30276 15.4301ZM2.1849 15.456L0.429485 17.5132L1.57051 18.4868L3.32593 16.4297L2.1849 15.456ZM1 18.75H7.5V17.25H1V18.75Z" fill="black"/>
<path d="M5 11.2857L7 13L10 10" stroke="black" stroke-width="1.5" stroke-linecap="round" stroke-linejoin="round"/>
</svg>
