<svg width="16" height="16" viewBox="0 0 16 16" fill="none" xmlns="http://www.w3.org/2000/svg">
<path d="M2.89044 12.7846L3.46096 13.2715C3.70885 12.981 3.69888 12.5506 3.43779 12.2719L2.89044 12.7846ZM1 15L0.429485 14.5132C0.239554 14.7357 0.196404 15.0484 0.31896 15.3141C0.441517 15.5798 0.707401 15.75 1 15.75V15ZM14.25 8C14.25 11.4518 11.4518 14.25 8 14.25V15.75C12.2802 15.75 15.75 12.2802 15.75 8H14.25ZM8 1.75C11.4518 1.75 14.25 4.54822 14.25 8H15.75C15.75 3.71979 12.2802 0.25 8 0.25V1.75ZM1.75 8C1.75 4.54822 4.54822 1.75 8 1.75V0.25C3.71979 0.25 0.25 3.71979 0.25 8H1.75ZM3.43779 12.2719C2.39031 11.1537 1.75 9.65247 1.75 8H0.25C0.25 10.0482 1.04556 11.9123 2.3431 13.2974L3.43779 12.2719ZM2.31993 12.2978L0.429485 14.5132L1.57051 15.4868L3.46096 13.2715L2.31993 12.2978ZM1 15.75H8V14.25H1V15.75Z" fill="black"/>
<circle cx="5" cy="8" r="1" fill="black"/>
<circle cx="11" cy="8" r="1" fill="black"/>
<circle cx="8" cy="8" r="1" fill="black"/>
</svg>
