<svg width="24" height="24" viewBox="0 0 24 24" fill="none" xmlns="http://www.w3.org/2000/svg">
<path fill-rule="evenodd" clip-rule="evenodd" d="M6.75 5C5.23122 5 4 6.23122 4 7.75V14.7475C4 16.2163 5.1514 17.4161 6.60081 17.4936C6.589 17.3993 6.58291 17.3032 6.58291 17.2058C6.58291 16.7623 6.70889 16.3483 6.92702 15.9975H6.75C6.05964 15.9975 5.5 15.4379 5.5 14.7475V7.75C5.5 7.05965 6.05965 6.5 6.75 6.5H11.9146C12.605 6.5 13.1646 7.05964 13.1646 7.75V9.41005L13.1646 9.41584L13.1646 9.42164V14.7475C13.1646 15.4374 12.6058 15.9967 11.9162 15.9975L11.9146 15.9975H10.8211C10.4168 15.3474 9.696 14.9146 8.87408 14.9146C7.60871 14.9146 6.58292 15.9404 6.58292 17.2058C6.58292 18.4711 7.60871 19.4969 8.87408 19.4969C10.0406 19.4969 11.0035 18.6251 11.1468 17.4975H11.9146L11.9179 17.4975H13.0166C13.0045 17.402 12.9982 17.3046 12.9982 17.2058C12.9982 16.9468 13.0412 16.6978 13.1204 16.4657C13.0412 16.6978 12.9982 16.9468 12.9982 17.2058C12.9982 18.4711 14.024 19.4969 15.2894 19.4969C16.4573 19.4969 17.4211 18.6231 17.5626 17.4936C19.012 17.416 20.1634 16.2162 20.1634 14.7475V11.4158C20.1634 9.89706 18.9321 8.66584 17.4134 8.66584H14.6646V7.75C14.6646 6.23122 13.4334 5 11.9146 5H6.75ZM15.2894 14.9146C15.0685 14.9146 14.8549 14.9459 14.6528 15.0042C14.6606 14.9197 14.6646 14.8341 14.6646 14.7475V10.1658H17.4134C18.1037 10.1658 18.6634 10.7255 18.6634 11.4158V14.7475C18.6634 15.4379 18.1037 15.9975 17.4134 15.9975H17.2364C16.8321 15.3474 16.1113 14.9146 15.2894 14.9146ZM15.2894 17.9969C15.7263 17.9969 16.0805 17.6427 16.0805 17.2058C16.0805 16.7688 15.7263 16.4146 15.2894 16.4146C14.8524 16.4146 14.4982 16.7688 14.4982 17.2058C14.4982 17.6427 14.8524 17.9969 15.2894 17.9969ZM9.66523 17.2058C9.66523 17.6427 9.31102 17.9969 8.87408 17.9969C8.43713 17.9969 8.08292 17.6427 8.08292 17.2058C8.08292 16.7688 8.43713 16.4146 8.87408 16.4146C9.31102 16.4146 9.66523 16.7688 9.66523 17.2058Z" fill="black"/>
</svg>
