<svg width="24" height="24" viewBox="0 0 24 24" fill="none" xmlns="http://www.w3.org/2000/svg">
<path fill-rule="evenodd" clip-rule="evenodd" d="M14.9551 6.99499L10.2684 11.8502C10.2172 11.9032 10.1916 11.9297 10.1704 11.9593C10.1516 11.9855 10.1353 12.0136 10.1219 12.043C10.1068 12.0761 10.0965 12.1114 10.0759 12.1822L10.0759 12.1822L9.76313 13.2564C9.63171 13.7078 9.566 13.9336 9.62341 14.0885C9.67347 14.2235 9.77931 14.3304 9.91384 14.3818C10.0682 14.4407 10.2945 14.3773 10.7472 14.2503L11.86 13.9383L11.86 13.9383L11.8601 13.9383C11.9336 13.9176 11.9703 13.9073 12.0047 13.8918C12.0352 13.8781 12.0643 13.8613 12.0914 13.8417C12.122 13.8196 12.1493 13.7929 12.2038 13.7395L17.0006 9.04054L14.9551 6.99499ZM18.0722 7.99081L18.6085 7.46543L18.6085 7.46543C18.8121 7.26597 18.9139 7.16623 18.952 7.05075C18.9855 6.9492 18.9856 6.83958 18.9522 6.73799C18.9142 6.62248 18.8125 6.52265 18.6091 6.323L18.6091 6.323L18.609 6.32299L17.6415 5.3734C17.4401 5.17579 17.3395 5.07698 17.2242 5.04104C17.1229 5.00944 17.0141 5.01091 16.9137 5.04524C16.7995 5.08428 16.7015 5.18577 16.5055 5.38876L15.997 5.9156L18.0722 7.99081Z" fill="black"/>
<path d="M12.9355 5.70209H7.78589C6.68132 5.70209 5.78589 6.59752 5.78589 7.70209V16.214C5.78589 17.3185 6.68132 18.214 7.78589 18.214H16.2978C17.4023 18.214 18.2978 17.3185 18.2978 16.214V11.0643" stroke="black" stroke-width="1.5" stroke-linecap="round" stroke-linejoin="round"/>
</svg>
