<svg width="24" height="24" viewBox="0 0 24 24" fill="none" xmlns="http://www.w3.org/2000/svg">
<path d="M6.89044 16.7846L7.46096 17.2715C7.70885 16.981 7.69888 16.5506 7.43779 16.2719L6.89044 16.7846ZM5 19L4.42949 18.5132C4.23955 18.7357 4.1964 19.0484 4.31896 19.3141C4.44152 19.5798 4.7074 19.75 5 19.75V19ZM18.25 12C18.25 15.4518 15.4518 18.25 12 18.25V19.75C16.2802 19.75 19.75 16.2802 19.75 12H18.25ZM12 5.75C15.4518 5.75 18.25 8.54822 18.25 12H19.75C19.75 7.71979 16.2802 4.25 12 4.25V5.75ZM5.75 12C5.75 8.54822 8.54822 5.75 12 5.75V4.25C7.71979 4.25 4.25 7.71979 4.25 12H5.75ZM7.43779 16.2719C6.39031 15.1537 5.75 13.6525 5.75 12H4.25C4.25 14.0482 5.04556 15.9123 6.3431 17.2974L7.43779 16.2719ZM6.31993 16.2978L4.42949 18.5132L5.57051 19.4868L7.46096 17.2715L6.31993 16.2978ZM5 19.75H12V18.25H5V19.75Z" fill="black"/>
<path d="M13.7868 9.51631L14 8H13.0102C12.6013 7.9999 12.2061 8.15312 11.8969 8.4316C11.5877 8.71008 11.3853 9.09517 11.3268 9.51631L11.1807 10.5546C11.1722 10.6145 11.1433 10.6692 11.0994 10.7089C11.0554 10.7486 10.9993 10.7707 10.9411 10.771H10.2119L10 12.2859H10.7397C10.7644 12.286 10.7888 12.2917 10.8112 12.3025C10.8336 12.3132 10.8535 12.3289 10.8696 12.3484C10.8857 12.3678 10.8976 12.3907 10.9045 12.4154C10.9114 12.44 10.9131 12.466 10.9095 12.4914L10.283 16.9842C10.4722 17.0129 10.6649 17.0025 10.8503 16.9537C11.0356 16.9048 11.2099 16.8185 11.3632 16.6996C11.5164 16.5806 11.6457 16.4315 11.7436 16.2605C11.8414 16.0896 11.906 15.9003 11.9335 15.7034L12.3889 12.4873C12.3965 12.4315 12.4232 12.3804 12.4641 12.3434C12.5049 12.3064 12.5572 12.286 12.6114 12.2859H13.4011L13.613 10.771H12.8233C12.7985 10.7706 12.7741 10.7648 12.7516 10.7539C12.7291 10.743 12.7091 10.7272 12.693 10.7077C12.6768 10.6881 12.6648 10.6652 12.6578 10.6405C12.6507 10.6157 12.6488 10.5897 12.6522 10.5642L12.7654 9.76423C12.7749 9.69537 12.8079 9.63239 12.8585 9.58685C12.909 9.54131 12.9736 9.51626 13.0405 9.51631H13.7868Z" fill="black"/>
</svg>
