<svg width="24" height="24" viewBox="0 0 24 24" fill="none" xmlns="http://www.w3.org/2000/svg">
<path fill-rule="evenodd" clip-rule="evenodd" d="M14.8546 7.75C14.9484 7.51839 15 7.26523 15 7C15 6.73477 14.9484 6.48161 14.8546 6.25H19C19.4142 6.25 19.75 6.58579 19.75 7C19.75 7.41421 19.4142 7.75 19 7.75H14.8546ZM11.1454 7.75H5C4.58579 7.75 4.25 7.41421 4.25 7C4.25 6.58579 4.58579 6.25 5 6.25H11.1454C11.0516 6.48161 11 6.73477 11 7C11 7.26523 11.0516 7.51839 11.1454 7.75Z" fill="black"/>
<path fill-rule="evenodd" clip-rule="evenodd" d="M10.8546 12.75C10.9484 12.5184 11 12.2652 11 12C11 11.7348 10.9484 11.4816 10.8546 11.25H19C19.4142 11.25 19.75 11.5858 19.75 12C19.75 12.4142 19.4142 12.75 19 12.75H10.8546ZM7.14538 12.75H5C4.58579 12.75 4.25 12.4142 4.25 12C4.25 11.5858 4.58579 11.25 5 11.25H7.14538C7.05163 11.4816 7 11.7348 7 12C7 12.2652 7.05163 12.5184 7.14538 12.75Z" fill="black"/>
<path fill-rule="evenodd" clip-rule="evenodd" d="M16.8546 17.75C16.9484 17.5184 17 17.2652 17 17C17 16.7348 16.9484 16.4816 16.8546 16.25H19C19.4142 16.25 19.75 16.5858 19.75 17C19.75 17.4142 19.4142 17.75 19 17.75H16.8546ZM13.1454 17.75H5C4.58579 17.75 4.25 17.4142 4.25 17C4.25 16.5858 4.58579 16.25 5 16.25H13.1454C13.0516 16.4816 13 16.7348 13 17C13 17.2652 13.0516 17.5184 13.1454 17.75Z" fill="black"/>
<circle cx="13" cy="7" r="1.25" stroke="black" stroke-width="1.5"/>
<circle cx="9" cy="12" r="1.25" stroke="black" stroke-width="1.5"/>
<circle cx="15" cy="17" r="1.25" stroke="black" stroke-width="1.5"/>
</svg>
