<?xml version="1.0" encoding="utf-8"?>
<!-- Generator: Adobe Illustrator 26.3.1, SVG Export Plug-In . SVG Version: 6.00 Build 0)  -->
<svg version="1.1" id="圖層_1" xmlns="http://www.w3.org/2000/svg" xmlns:xlink="http://www.w3.org/1999/xlink" x="0px" y="0px"
	 viewBox="0 0 200 200" style="enable-background:new 0 0 200 200;" xml:space="preserve">
<style type="text/css">
	.st0{fill:none;stroke:#FFFFFF;stroke-width:2.042;stroke-linecap:round;stroke-linejoin:round;stroke-miterlimit:10;}
	.st1{fill:url(#SVGID_1_);}
	.st2{fill:#FFFFFF;}
</style>
<g>
	<path class="st0" d="M81.99,105.32"/>
	<g>
		<linearGradient id="SVGID_1_" gradientUnits="userSpaceOnUse" x1="5.4731" y1="14.8014" x2="162.3763" y2="156.2208">
			<stop  offset="0" style="stop-color:#FFAADB"/>
			<stop  offset="0.3436" style="stop-color:#D42AFF"/>
			<stop  offset="1" style="stop-color:#510094"/>
		</linearGradient>
		<path class="st1" d="M100,144.72L100,144.72c-24.7,0-44.72-20.02-44.72-44.72v0c0-24.7,20.02-44.72,44.72-44.72h0
			c24.7,0,44.72,20.02,44.72,44.72v0C144.72,124.7,124.7,144.72,100,144.72z"/>
		<circle class="st2" cx="100" cy="86.1" r="12.44"/>
		<path class="st2" d="M100,134.72c11.66,0,22-5.79,28.29-14.64c-4.98-10.64-15.77-18.01-28.29-18.01s-23.31,7.37-28.29,18.01
			C78,128.93,88.34,134.72,100,134.72z"/>
	</g>
</g>
</svg>
