<svg width="14" height="14" viewBox="0 0 14 14" fill="none" xmlns="http://www.w3.org/2000/svg">
<path fill-rule="evenodd" clip-rule="evenodd" d="M4 0C1.79086 0 0 1.79086 0 4V10C0 12.2091 1.79086 14 4 14H10C12.2091 14 14 12.2091 14 10V4C14 1.79086 12.2091 0 10 0H4ZM5 1C2.79086 1 1 2.79086 1 5V9C1 11.2091 2.79086 13 5 13H9C11.2091 13 13 11.2091 13 9V5C13 2.79086 11.2091 1 9 1H5Z" fill="black"/>
<circle cx="7" cy="7" r="2" fill="black"/>
<path fill-rule="evenodd" clip-rule="evenodd" d="M2 5C2 3.34315 3.34315 2 5 2H9C10.6569 2 12 3.34315 12 5V9C12 10.6569 10.6569 12 9 12H5C3.34315 12 2 10.6569 2 9V5ZM10 7C10 8.65685 8.65685 10 7 10C5.34315 10 4 8.65685 4 7C4 5.34315 5.34315 4 7 4C8.65685 4 10 5.34315 10 7ZM10 4.5C10.2761 4.5 10.5 4.27614 10.5 4C10.5 3.72386 10.2761 3.5 10 3.5C9.72386 3.5 9.5 3.72386 9.5 4C9.5 4.27614 9.72386 4.5 10 4.5Z" fill="black"/>
</svg>
