<svg width="24" height="24" viewBox="0 0 24 24" fill="none" xmlns="http://www.w3.org/2000/svg">
<path d="M6.89044 16.7846L7.46096 17.2715C7.70885 16.981 7.69888 16.5506 7.43779 16.2719L6.89044 16.7846ZM5 19L4.42949 18.5132C4.23955 18.7357 4.1964 19.0484 4.31896 19.3141C4.44152 19.5798 4.7074 19.75 5 19.75V19ZM18.25 12C18.25 15.4518 15.4518 18.25 12 18.25V19.75C16.2802 19.75 19.75 16.2802 19.75 12H18.25ZM12 5.75C15.4518 5.75 18.25 8.54822 18.25 12H19.75C19.75 7.71979 16.2802 4.25 12 4.25V5.75ZM5.75 12C5.75 8.54822 8.54822 5.75 12 5.75V4.25C7.71979 4.25 4.25 7.71979 4.25 12H5.75ZM7.43779 16.2719C6.39031 15.1537 5.75 13.6525 5.75 12H4.25C4.25 14.0482 5.04556 15.9123 6.3431 17.2974L7.43779 16.2719ZM6.31993 16.2978L4.42949 18.5132L5.57051 19.4868L7.46096 17.2715L6.31993 16.2978ZM5 19.75H12V18.25H5V19.75Z" fill="black"/>
<path d="M15.3238 14.4667C16.714 12.5891 16.2813 9.96381 14.3572 8.60308C12.4332 7.24235 9.74646 7.66141 8.35627 9.53907C6.96608 11.4167 7.39886 14.042 9.3229 15.4027C11.2469 16.7634 13.9337 16.3444 15.3238 14.4667Z" fill="black"/>
<path d="M12.0732 14.1069C11.6269 14.1542 11.1766 14.065 10.7844 13.8516C10.3922 13.6383 10.0774 13.3112 9.88349 12.9155C9.68955 12.5199 9.62603 12.0751 9.70167 11.6427C9.77731 11.2103 9.98839 10.8114 10.3058 10.5012C10.6232 10.191 11.0313 9.98467 11.4738 9.91074C11.9162 9.83681 12.3712 9.8989 12.7761 10.0884C13.1809 10.278 13.5156 10.5856 13.7339 10.969C13.9522 11.3523 14.0435 11.7924 13.995 12.2285C13.9411 12.7086 13.7213 13.1564 13.3719 13.4979C13.0225 13.8394 12.5644 14.0542 12.0732 14.1069Z" fill="white"/>
<path d="M14.0512 10.0465C13.9752 10.058 13.8973 10.0455 13.8289 10.011C13.7606 9.97643 13.7052 9.92157 13.6707 9.85428C13.6363 9.78699 13.6246 9.71076 13.6373 9.63657C13.6501 9.56237 13.6866 9.49404 13.7416 9.44141C13.7966 9.38878 13.8673 9.35458 13.9434 9.34373C14.0196 9.33288 14.0973 9.34593 14.1654 9.38102C14.2335 9.4161 14.2885 9.47141 14.3223 9.53896C14.3562 9.60652 14.3673 9.68284 14.3539 9.75693C14.3408 9.83006 14.3045 9.89732 14.2502 9.94926C14.1959 10.0012 14.1263 10.0352 14.0512 10.0465Z" fill="white"/>
</svg>
