<svg width="24" height="24" viewBox="0 0 24 24" fill="none" xmlns="http://www.w3.org/2000/svg">
<path fill-rule="evenodd" clip-rule="evenodd" d="M5.75 11.5C5.75 8.04822 8.54822 5.25 12 5.25C15.4518 5.25 18.25 8.04822 18.25 11.5C18.25 14.3164 16.3871 16.6977 13.8263 17.4789L14.3009 18.9027C17.4576 17.9226 19.75 14.979 19.75 11.5C19.75 7.21979 16.2802 3.75 12 3.75C7.71979 3.75 4.25 7.21979 4.25 11.5C4.25 14.982 6.54632 17.9277 9.70718 18.9052L10.1873 17.4831C7.61949 16.7061 5.75 14.3214 5.75 11.5Z" fill="black"/>
<path d="M12 3V6" stroke="black" stroke-width="1.5" stroke-linecap="round" stroke-linejoin="round"/>
<circle cx="12" cy="12" r="2" stroke="black" stroke-width="1.5"/>
<path d="M12.6326 13.8979L13.3441 13.6607C13.2132 13.2678 12.7885 13.0554 12.3956 13.1863L12.6326 13.8979ZM11.3946 13.9068L11.6214 13.1919C11.2317 13.0682 10.8148 13.2795 10.684 13.6669L11.3946 13.9068ZM9 21L8.2894 20.7601C8.21213 20.989 8.24985 21.2411 8.39073 21.4374C8.53161 21.6336 8.75841 21.75 9 21.75V21ZM15 21V21.75C15.2411 21.75 15.4675 21.6341 15.6084 21.4385C15.7494 21.243 15.7877 20.9915 15.7115 20.7628L15 21ZM12.3956 13.1863C12.2722 13.2274 12.1395 13.25 12 13.25V14.75C12.3027 14.75 12.5954 14.7008 12.8697 14.6094L12.3956 13.1863ZM12 13.25C11.8668 13.25 11.7399 13.2294 11.6214 13.1919L11.1679 14.6217C11.4313 14.7052 11.7111 14.75 12 14.75V13.25ZM10.684 13.6669L8.2894 20.7601L9.7106 21.2399L12.1052 14.1466L10.684 13.6669ZM9 21.75H15V20.25H9V21.75ZM15.7115 20.7628L13.3441 13.6607L11.9211 14.1351L14.2885 21.2372L15.7115 20.7628Z" fill="black"/>
</svg>
