<svg width="24" height="24" viewBox="0 0 24 24" fill="none" xmlns="http://www.w3.org/2000/svg">
<path fill-rule="evenodd" clip-rule="evenodd" d="M6 3.78333C4.48122 3.78333 3.25 5.01454 3.25 6.53332V17.4667C3.25 18.9854 4.48122 20.2167 6 20.2167H15.7333C16.1475 20.2167 16.4833 19.8809 16.4833 19.4667V19.4009C16.2398 19.4441 15.9891 19.4667 15.7332 19.4667C14.836 19.4667 14.0035 19.1897 13.3164 18.7167H6C5.30964 18.7167 4.75 18.157 4.75 17.4667V6.53332C4.75 5.84297 5.30964 5.28333 6 5.28333H12.5296C12.9476 5.28333 13.3379 5.4922 13.5697 5.83995L14.7734 7.6455C14.9103 7.85084 14.9833 8.0921 14.9833 8.33888V10.999C15.2268 10.9558 15.4774 10.9333 15.7332 10.9333C15.9891 10.9333 16.2398 10.9559 16.4833 10.999V8.33888C16.4833 7.79596 16.3226 7.26519 16.0215 6.81345L14.8178 5.0079C14.3077 4.24285 13.4491 3.78333 12.5296 3.78333H6Z" fill="black"/>
<circle cx="16.2667" cy="15.2667" r="4.26667" stroke="black" stroke-width="1.5"/>
<path d="M7.19995 8.79999H12.5333" stroke="black" stroke-width="1.5" stroke-linecap="round" stroke-linejoin="round"/>
<path d="M7.19995 12H9.33328" stroke="black" stroke-width="1.5" stroke-linecap="round" stroke-linejoin="round"/>
<path d="M15 15.5L16 16.5L18 14" stroke="black" stroke-width="1.5" stroke-linecap="round" stroke-linejoin="round"/>
</svg>
