<svg width="18" height="16" viewBox="0 0 18 16" fill="none" xmlns="http://www.w3.org/2000/svg">
<path d="M3.70588 6.29412V9.18678C3.70588 9.63186 3.50903 10.0541 3.16815 10.3403C2.09133 11.2443 2.73058 13 4.13655 13H13.8635C15.2694 13 15.9087 11.2443 14.8319 10.3403C14.491 10.0541 14.2941 9.63186 14.2941 9.18678V6.29412C14.2941 6.02103 14.2941 5.88448 14.2888 5.76908C14.1695 3.18916 12.105 1.12461 9.52504 1.00534C9.40964 1 9.27309 1 9 1C8.72691 1 8.59036 1 8.47497 1.00534C5.89504 1.12461 3.83049 3.18916 3.71122 5.76908C3.70588 5.88448 3.70588 6.02103 3.70588 6.29412Z" stroke="black" stroke-width="1.5" stroke-linecap="round" stroke-linejoin="round"/>
<path d="M8 15C8 15.5523 8.44772 16 9 16C9.55228 16 10 15.5523 10 15C10 14.4477 9.55228 14 9 14C8.44772 14 8 14.4477 8 15Z" fill="black"/>
</svg>
