<svg width="14" height="16" viewBox="0 0 14 16" fill="none" xmlns="http://www.w3.org/2000/svg">
<path d="M11 4H3C1.89543 4 1 4.89543 1 6V13C1 14.1046 1.89543 15 3 15H11C12.1046 15 13 14.1046 13 13V6C13 4.89543 12.1046 4 11 4Z" stroke="black" stroke-width="1.5"/>
<path d="M5 4V3C5 1.89543 5.89543 1 7 1V1C8.10457 1 9 1.89543 9 3V4" stroke="black" stroke-width="1.5"/>
<path d="M5 6.00003V7.00003C5 8.1046 5.89543 9.00003 7 9.00003V9.00003C8.10457 9.00003 9 8.1046 9 7.00003V6.00003" stroke="black" stroke-width="1.5"/>
</svg>
