<svg width="24" height="24" viewBox="0 0 24 24" fill="none" xmlns="http://www.w3.org/2000/svg">
<path d="M17.2792 5H6.72076C6.29033 5 5.90819 5.27543 5.77208 5.68377L4.43874 9.68377C4.2229 10.3313 4.70487 11 5.38743 11H18.6126C19.2951 11 19.7771 10.3313 19.5613 9.68377L18.2279 5.68377C18.0918 5.27543 17.7097 5 17.2792 5Z" stroke="black" stroke-width="1.5" stroke-linecap="square" stroke-linejoin="round"/>
<path d="M6 11V18C6 18.5523 6.44772 19 7 19H17C17.5523 19 18 18.5523 18 18V11" stroke="black" stroke-width="1.5" stroke-linecap="square" stroke-linejoin="round"/>
<path d="M8.5 5V11" stroke="black" stroke-width="1.5" stroke-linecap="square" stroke-linejoin="round"/>
<path d="M15.5 5V11" stroke="black" stroke-width="1.5" stroke-linecap="square" stroke-linejoin="round"/>
<path d="M12 5V11" stroke="black" stroke-width="1.5" stroke-linecap="square" stroke-linejoin="round"/>
<path d="M10 19V15C10 13.8954 10.8954 13 12 13V13C13.1046 13 14 13.8954 14 15V19" stroke="black" stroke-width="1.5" stroke-linecap="square" stroke-linejoin="round"/>
</svg>
