<svg width="17" height="18" viewBox="0 0 17 18" fill="none" xmlns="http://www.w3.org/2000/svg">
<path d="M15.1965 13L14.547 12.625L15.1965 13ZM14.4644 10.268L14.0894 10.9175L14.4644 10.268ZM15.1247 4.73206L14.4752 5.10706L15.1247 4.73206ZM12.3926 4.00001L12.0176 3.35049V3.35049L12.3926 4.00001ZM1.34009 5L0.690572 4.625H0.690572L1.34009 5ZM2.00033 10L1.62533 9.35049H1.62533L2.00033 10ZM1.26828 12.7321L0.618764 13.1071H0.618764L1.26828 12.7321ZM12.1965 4.11325L11.8215 3.46373L12.1965 4.11325ZM14.3926 10.2265L14.0176 10.876L14.3926 10.2265ZM14.547 12.625C14.2018 13.2229 13.4373 13.4277 12.8394 13.0825L12.0894 14.3816C13.4048 15.141 15.0866 14.6903 15.846 13.375L14.547 12.625ZM14.0894 10.9175C14.6873 11.2627 14.8922 12.0271 14.547 12.625L15.846 13.375C16.6054 12.0597 16.1548 10.3778 14.8394 9.61843L14.0894 10.9175ZM14.0176 10.876L14.0894 10.9175L14.8394 9.61843L14.7676 9.57698L14.0176 10.876ZM14.7676 8.11363C16.0829 7.35424 16.5336 5.67236 15.7742 4.35706L14.4752 5.10706C14.8203 5.70493 14.6155 6.46941 14.0176 6.81459L14.7676 8.11363ZM15.7742 4.35706C15.0148 3.04175 13.3329 2.5911 12.0176 3.35049L12.7676 4.64953C13.3655 4.30435 14.13 4.50919 14.4752 5.10706L15.7742 4.35706ZM12.0176 3.35049L11.8215 3.46373L12.5715 4.76277L12.7676 4.64953L12.0176 3.35049ZM8.26828 1.75C8.95864 1.75 9.51828 2.30964 9.51828 3H11.0183C11.0183 1.48122 9.78707 0.25 8.26828 0.25V1.75ZM7.01828 3C7.01828 2.30964 7.57793 1.75 8.26828 1.75V0.25C6.7495 0.25 5.51828 1.48122 5.51828 3H7.01828ZM1.98961 5.375C2.33479 4.77714 3.09928 4.57229 3.69714 4.91747L4.44714 3.61843C3.13184 2.85904 1.44996 3.3097 0.690572 4.625L1.98961 5.375ZM2.44714 7.08254C1.84928 6.73736 1.64443 5.97287 1.98961 5.375L0.690572 4.625C-0.0688194 5.94031 0.381837 7.62218 1.69714 8.38157L2.44714 7.08254ZM1.69714 9.30903L1.62533 9.35049L2.37533 10.6495L2.44714 10.6081L1.69714 9.30903ZM1.62533 9.35049C0.310029 10.1099 -0.140628 11.7918 0.618764 13.1071L1.9178 12.3571C1.57262 11.7592 1.77747 10.9947 2.37533 10.6495L1.62533 9.35049ZM0.618764 13.1071C1.37816 14.4224 3.06003 14.873 4.37533 14.1136L3.62533 12.8146C3.02747 13.1598 2.26298 12.9549 1.9178 12.3571L0.618764 13.1071ZM7.01828 15V14.7735H5.51828V15H7.01828ZM8.26828 16.25C7.57793 16.25 7.01828 15.6904 7.01828 15H5.51828C5.51828 16.5188 6.7495 17.75 8.26828 17.75V16.25ZM9.51828 15C9.51828 15.6904 8.95864 16.25 8.26828 16.25V17.75C9.78707 17.75 11.0183 16.5188 11.0183 15H9.51828ZM4.37533 14.1136C4.88331 13.8203 5.51828 14.1869 5.51828 14.7735H7.01828C7.01828 13.0322 5.13331 11.944 3.62533 12.8146L4.37533 14.1136ZM1.69714 8.38157C2.05412 8.58768 2.05412 9.10293 1.69714 9.30903L2.44714 10.6081C3.80412 9.82462 3.80412 7.86599 2.44714 7.08254L1.69714 8.38157ZM5.51828 3C5.51828 3.54972 4.9232 3.89329 4.44714 3.61843L3.69714 4.91747C5.17321 5.76968 7.01828 4.7044 7.01828 3H5.51828ZM11.8215 3.46373C11.4645 3.66984 11.0183 3.41221 11.0183 3H9.51828C9.51828 4.56691 11.2145 5.54623 12.5715 4.76277L11.8215 3.46373ZM14.7676 9.57698C14.2044 9.25179 14.2044 8.43882 14.7676 8.11363L14.0176 6.81459C12.4544 7.71713 12.4544 9.97348 14.0176 10.876L14.7676 9.57698ZM11.0183 15C11.0183 14.4503 11.6134 14.1067 12.0894 14.3816L12.8394 13.0825C11.3634 12.2303 9.51828 13.2956 9.51828 15H11.0183Z" fill="black"/>
<circle cx="8.26831" cy="9" r="2.25" stroke="black" stroke-width="1.5"/>
</svg>
