<svg width="28" height="19" viewBox="0 0 28 19" fill="none" xmlns="http://www.w3.org/2000/svg">
<g clip-path="url(#clip0_281_19)">
<path d="M14.5826 9.68315C12.2596 9.654 9.85254 9.654 7.427 9.68315C5.99039 9.69971 4.73145 11.0083 4.67796 12.5434C4.66008 12.949 4.72132 13.3541 4.85799 13.7344C4.99465 14.1147 5.20392 14.4623 5.47317 14.7562C5.74242 15.0501 6.06608 15.2842 6.42463 15.4444C6.78319 15.6046 7.16922 15.6877 7.55945 15.6885C7.95553 15.6925 8.37645 15.6945 8.88461 15.6945H9.86527H9.92004H10.9943H11.7769C12.6048 15.6945 13.46 15.6945 14.3082 15.6945C14.5096 15.6942 14.7107 15.6785 14.9099 15.6474C16.3605 15.4169 17.3966 14.0666 17.3189 12.5063C17.2431 10.9645 16.0135 9.70104 14.5826 9.68315ZM8.9381 10.9261H9.97862C10.688 10.9261 11.3923 10.9261 12.1144 10.9261C12.8786 10.9261 13.6746 10.9261 14.4534 10.9301C14.8354 10.9334 15.2048 11.0726 15.5002 11.3246C15.7956 11.5767 15.9992 11.9263 16.0772 12.3155C16.2389 13.1463 15.8435 13.9506 15.1156 14.272C14.8939 14.3701 14.656 14.4223 14.4152 14.4257C12.4118 14.4369 10.2391 14.4389 7.57728 14.431C7.35563 14.4336 7.1357 14.3904 6.93021 14.304C6.72473 14.2175 6.53778 14.0894 6.38022 13.9272C6.22266 13.765 6.09761 13.5719 6.01233 13.359C5.92705 13.1461 5.88323 12.9178 5.88341 12.6871C5.88341 11.7079 6.63291 10.9367 7.5932 10.9314C8.03959 10.9268 8.49044 10.9261 8.9381 10.9261Z" fill="black"/>
<path d="M21.9994 12.719C21.9994 12.1107 21.7338 11.6397 21.2352 11.3607C21.0413 11.232 20.8185 11.1582 20.5887 11.1466C20.359 11.135 20.1303 11.186 19.9253 11.2945C19.1032 9.2916 17.9895 7.73195 16.614 6.65664C15.073 5.45345 13.1874 4.8439 11.0102 4.8439H11.0026C8.82095 4.8439 6.93287 5.45477 5.39119 6.65597C4.05393 7.69684 2.97138 9.19089 2.1582 11.0997V11.097C2.17476 9.47579 2.17093 7.82869 2.16711 6.2293V5.31299V5.26661L2.18303 5.258C2.46916 5.0979 2.69403 4.84079 2.82029 4.52935C2.94656 4.21791 2.96661 3.87091 2.87714 3.54597C2.79255 3.22433 2.60891 2.94044 2.35436 2.73783C2.09981 2.53521 1.78841 2.42506 1.46792 2.42427H1.45773C1.13572 2.42832 0.823977 2.54267 0.570729 2.74963C0.31748 2.95659 0.13685 3.24463 0.0567864 3.56916C-0.0260501 3.89478 -0.00030567 4.24001 0.129815 4.54845C0.259936 4.85688 0.486741 5.11029 0.773177 5.26727V5.27986C0.769357 7.20125 0.76872 9.1889 0.773177 11.3554C0.540785 11.4774 0.345954 11.6647 0.21086 11.8962C0.075766 12.1276 0.00583621 12.3939 0.00902703 12.6646C0.00138552 13.677 0.00138552 14.7252 0.00902703 15.8694C0.00917267 16.2109 0.121532 16.5421 0.327468 16.8081C0.533403 17.0741 0.820538 17.2588 1.14124 17.3316C1.33667 17.3844 1.54094 17.3912 1.7392 17.3515C1.93747 17.3119 2.12476 17.2268 2.28747 17.1024C3.1274 18.3241 4.24624 18.9476 5.61534 18.9575C7.25572 18.9668 8.93749 18.9714 10.7555 18.9714C12.4392 18.9714 14.2834 18.9675 16.3924 18.9595C17.6399 18.9549 18.697 18.4182 19.5331 17.3641C19.6006 17.2793 19.6604 17.1912 19.7209 17.1064C20.1495 17.4217 20.6328 17.4701 21.1219 17.2442C21.695 16.9792 22 16.4789 22 15.7958V14.9027C21.9996 14.1766 21.9994 13.4487 21.9994 12.719ZM21.0168 12.6395V15.9131C21.0127 16.0195 20.9692 16.12 20.8954 16.1938C20.8217 16.2675 20.7233 16.3087 20.621 16.3087C20.5187 16.3087 20.4204 16.2675 20.3466 16.1938C20.2729 16.12 20.2294 16.0195 20.2253 15.9131V12.6395C20.2294 12.5331 20.2729 12.4325 20.3466 12.3588C20.4204 12.2851 20.5187 12.2439 20.621 12.2439C20.7233 12.2439 20.8217 12.2851 20.8954 12.3588C20.9692 12.4325 21.0127 12.5331 21.0168 12.6395V12.6395ZM12.6201 17.5099H12.6137H10.9892C10.5078 17.5099 10.0181 17.5059 9.54435 17.5019H9.42845C8.27395 17.4913 7.07996 17.48 5.90063 17.5258C5.49126 17.5451 5.0826 17.4741 4.70153 17.3173C4.32045 17.1605 3.97561 16.9215 3.68968 16.6161C3.29233 16.1841 2.83766 15.4169 2.93126 14.2157C3.1223 11.7351 4.09023 9.73352 5.80129 8.26464C7.3748 6.91437 9.07694 6.22995 10.8593 6.22995C11.8482 6.23884 12.8278 6.42857 13.7535 6.79047C16.5796 7.86446 18.3244 10.0184 18.9396 13.1934C19.0631 13.832 19.1656 14.5847 18.9918 15.338C18.8523 15.9522 18.5185 16.4999 18.044 16.893C17.5695 17.2862 16.9818 17.502 16.3752 17.5059C15.122 17.5125 13.8484 17.5112 12.6201 17.5099ZM1.47619 4.37681C1.42273 4.37794 1.3696 4.36778 1.32002 4.34694C1.27044 4.3261 1.22543 4.29501 1.18773 4.25556C1.1471 4.21726 1.11419 4.17095 1.09091 4.11932C1.06762 4.06768 1.05443 4.01175 1.05209 3.95476C1.05193 3.84087 1.09379 3.73126 1.16903 3.64854C1.24427 3.56582 1.34715 3.5163 1.45645 3.51019H1.46919C1.5735 3.51239 1.67306 3.55601 1.74747 3.6321C1.82899 3.70931 1.87777 3.817 1.88311 3.93157C1.88055 4.04511 1.83747 4.15361 1.76225 4.23591C1.68703 4.31822 1.58506 4.36844 1.47619 4.37681V4.37681ZM1.03044 12.6779C1.03454 12.5715 1.07803 12.471 1.1518 12.3972C1.22558 12.3235 1.32391 12.2823 1.42621 12.2823C1.5285 12.2823 1.62684 12.3235 1.70061 12.3972C1.77438 12.471 1.81787 12.5715 1.82197 12.6779V15.9515C1.81787 16.0579 1.77438 16.1585 1.70061 16.2322C1.62684 16.3059 1.5285 16.3471 1.42621 16.3471C1.32391 16.3471 1.22558 16.3059 1.1518 16.2322C1.07803 16.1585 1.03454 16.0579 1.03044 15.9515V12.6779Z" fill="black"/>
<path d="M9.47494 12.6759C9.47581 12.9126 9.40898 13.1441 9.28297 13.3412C9.15696 13.5382 8.97746 13.6917 8.76731 13.7823C8.55716 13.8728 8.32587 13.8963 8.10287 13.8497C7.87987 13.803 7.67525 13.6884 7.51505 13.5204C7.35484 13.3524 7.2463 13.1386 7.20323 12.9063C7.16016 12.6739 7.18452 12.4334 7.27319 12.2155C7.36187 11.9976 7.51087 11.812 7.70121 11.6825C7.89155 11.5529 8.11464 11.4852 8.34208 11.488C8.64299 11.4916 8.93044 11.6182 9.14239 11.8405C9.35435 12.0627 9.47379 12.3628 9.47494 12.6759ZM8.33508 12.2823C8.25928 12.2812 8.18485 12.3035 8.12127 12.3464C8.05769 12.3894 8.00783 12.451 7.97803 12.5236C7.94823 12.5961 7.93984 12.6762 7.95393 12.7537C7.96802 12.8312 8.00395 12.9026 8.05715 12.9588C8.11035 13.015 8.17841 13.0534 8.25268 13.0693C8.32694 13.0851 8.40406 13.0776 8.47421 13.0477C8.54436 13.0178 8.60437 12.9668 8.64661 12.9013C8.68886 12.8358 8.71141 12.7588 8.71142 12.6799C8.71143 12.5755 8.67197 12.4753 8.60155 12.4009C8.53113 12.3265 8.43542 12.2839 8.33508 12.2823V12.2823Z" fill="black"/>
<path d="M14.8151 12.6673C14.8176 12.9039 14.7524 13.136 14.6278 13.334C14.5031 13.5319 14.3247 13.6869 14.1152 13.779C13.9057 13.8711 13.6746 13.8963 13.4513 13.8514C13.2279 13.8065 13.0225 13.6934 12.8612 13.5266C12.6998 13.3599 12.5897 13.1469 12.545 12.9148C12.5004 12.6828 12.523 12.4422 12.6102 12.2236C12.6973 12.005 12.845 11.8183 13.0345 11.6873C13.2239 11.5563 13.4465 11.4869 13.674 11.4879C13.9749 11.4893 14.2632 11.6138 14.4767 11.8344C14.6902 12.055 14.8117 12.3542 14.8151 12.6673V12.6673ZM14.0509 12.6878C14.0533 12.609 14.0331 12.5313 13.9929 12.4644C13.9527 12.3976 13.8944 12.3447 13.8252 12.3125C13.756 12.2803 13.6792 12.2702 13.6046 12.2835C13.5299 12.2968 13.4607 12.3329 13.4058 12.3872C13.3509 12.4415 13.3127 12.5116 13.2962 12.5886C13.2796 12.6655 13.2855 12.7458 13.3129 12.8193C13.3404 12.8928 13.3882 12.9561 13.4503 13.0013C13.5125 13.0464 13.5861 13.0713 13.6619 13.0728C13.7624 13.0747 13.8597 13.0353 13.9326 12.9631C14.0054 12.8909 14.0479 12.7918 14.0509 12.6872V12.6878Z" fill="black"/>
<path d="M25.8894 2.35139C25.7002 1.67099 25.2923 1.07179 24.7287 0.646321C24.165 0.220855 23.477 -0.00720842 22.7708 -0.00264901H22.7403C22.0042 0.00397649 21.2549 0.00265187 20.53 0.00198932C19.8814 0.00198932 19.2102 0.00198932 18.5497 0.00198932C18.2487 0.000201108 17.9487 0.0371682 17.6572 0.111975C16.0485 0.54727 15.0733 2.06517 15.3383 3.71956C15.5689 5.15332 16.8211 6.28495 18.2535 6.35187C18.7127 6.37373 19.1778 6.37108 19.627 6.36843H20.0808L19.9046 7.24498C19.8862 7.32072 19.8835 7.39942 19.8968 7.47622C19.91 7.55302 19.9388 7.6263 19.9814 7.69154C20.0174 7.74323 20.0636 7.78697 20.1171 7.82002C20.1707 7.85308 20.2305 7.87475 20.2928 7.88368C20.3174 7.88712 20.3422 7.88889 20.367 7.88898C20.4836 7.88719 20.5977 7.85523 20.6983 7.79622C21.4404 7.35695 22.1957 6.90377 22.943 6.45059C23.0416 6.3895 23.152 6.34998 23.267 6.33464C23.7136 6.27133 24.1416 6.11376 24.5226 5.87238C24.9036 5.63101 25.2289 5.31136 25.4769 4.93465C25.7249 4.55794 25.8899 4.13278 25.961 3.6874C26.0322 3.24202 26.0077 2.78661 25.8894 2.35139ZM21.1853 6.32271L21.1111 6.3671C21.1323 6.26043 21.1535 6.15509 21.1773 6.04908C21.1939 5.96957 21.2436 5.72576 21.0925 5.54024C20.9415 5.35473 20.695 5.35606 20.6162 5.35539H19.7919C19.3646 5.35539 18.9373 5.35539 18.5106 5.35539C17.4505 5.35142 16.5819 4.65706 16.354 3.6268C16.2885 3.32045 16.2912 3.00347 16.3617 2.69825C16.4322 2.39303 16.5689 2.10703 16.7621 1.86044C16.9477 1.61433 17.1852 1.41203 17.4577 1.26788C17.7302 1.12373 18.0311 1.04125 18.339 1.02629C18.8028 1.00708 19.2831 1.01039 19.7456 1.0137C19.9152 1.0137 20.0841 1.0137 20.2537 1.0137C20.5048 1.0137 20.756 1.0137 21.0071 1.0137C21.6557 1.0137 22.3262 1.00774 22.9828 1.02894C23.9362 1.05942 24.822 1.87303 24.9565 2.84367C25.1301 4.08793 24.3297 5.15729 23.0961 5.33088C22.8623 5.36401 22.6382 5.44595 22.4382 5.57138C22.0234 5.8258 21.5994 6.08022 21.1886 6.32669L21.1853 6.32271Z" fill="black"/>
<path d="M19.4233 3.38521C19.4233 3.33071 19.4275 3.26572 19.4317 3.20353C19.4359 3.14133 19.4414 3.06936 19.4414 3.00787C19.4414 2.77447 19.3387 2.38385 18.6546 2.38385C17.9705 2.38385 17.5631 2.8178 17.5631 3.57179C17.5631 4.01132 17.8014 4.4851 18.3241 4.4851C18.4048 4.48547 18.4847 4.46985 18.5593 4.43915C18.6339 4.40844 18.7017 4.36326 18.7587 4.30621C18.7926 4.36223 18.8407 4.40829 18.8982 4.4397C18.9556 4.47112 19.0203 4.48678 19.0858 4.4851C19.308 4.4851 19.4631 4.34534 19.4631 4.15178C19.462 4.10108 19.4582 4.05047 19.4519 4.00014C19.4313 3.79583 19.4218 3.59056 19.4233 3.38521ZM18.5784 3.05469C18.7182 3.05469 18.7343 3.07914 18.7343 3.31953C18.7343 3.4523 18.6875 3.7954 18.4729 3.7954C18.3115 3.7954 18.2878 3.63119 18.2878 3.53405C18.2878 3.38941 18.3157 3.05469 18.5784 3.05469Z" fill="black"/>
<path d="M20.9215 2.4448C20.7904 2.4446 20.6602 2.46653 20.5364 2.50967C20.5364 2.49725 20.5364 2.48483 20.5364 2.47241C20.5447 2.3682 20.5523 2.27021 20.5523 2.2081C20.5523 1.82234 20.3011 1.76437 20.1513 1.76437C19.916 1.76437 19.758 1.93965 19.758 2.2012C19.758 2.32748 19.7663 2.47723 19.7739 2.61525C19.7814 2.75327 19.7904 2.90095 19.7904 3.02172C19.7948 3.33701 19.7833 3.65232 19.7559 3.96645C19.7511 4.02235 19.7469 4.06306 19.7469 4.10447C19.7438 4.15332 19.7508 4.20229 19.7674 4.24833C19.784 4.29437 19.8099 4.33651 19.8435 4.37211C19.8771 4.40771 19.9177 4.43602 19.9627 4.45527C20.0077 4.47452 20.0562 4.48431 20.1051 4.48402C20.1572 4.48229 20.2085 4.47017 20.2559 4.44836C20.3033 4.42656 20.3459 4.39551 20.3811 4.35704C20.508 4.44299 20.6585 4.48736 20.8118 4.48402C21.3707 4.48402 21.7461 4.04236 21.7461 3.3847C21.7523 2.83263 21.4108 2.4448 20.9215 2.4448ZM21.0057 3.39437C21.0057 3.80842 20.7793 3.80842 20.7048 3.80842C20.4978 3.80842 20.4639 3.57517 20.4639 3.43577C20.4639 3.28188 20.5171 3.09831 20.769 3.09831C20.9912 3.10038 21.0057 3.32536 21.0057 3.39437Z" fill="black"/>
<path d="M23.5077 3.58778C23.4453 3.59049 23.3841 3.60554 23.3275 3.63206C23.271 3.65858 23.2202 3.69605 23.1782 3.7423C23.1034 3.81285 23.0569 3.84813 22.9729 3.84813C22.7613 3.84813 22.6794 3.62447 22.6794 3.47419C22.6794 3.33309 22.7359 3.07415 22.9475 3.07415C22.9876 3.07285 23.0273 3.08255 23.0622 3.1022C23.0972 3.12185 23.1261 3.15071 23.1458 3.18563C23.1746 3.23074 23.2139 3.26818 23.2603 3.29473C23.3068 3.32128 23.359 3.33614 23.4125 3.33803C23.4613 3.34136 23.5102 3.33451 23.5562 3.31793C23.6022 3.30134 23.6442 3.27537 23.6797 3.24167C23.7151 3.20797 23.7431 3.16727 23.762 3.12216C23.7808 3.07704 23.7901 3.0285 23.7892 2.97962C23.7892 2.62262 23.4626 2.40108 22.9362 2.40108C22.364 2.40108 21.9485 2.84768 21.9485 3.45938C21.9492 4.112 22.3401 4.53532 22.9475 4.53532C23.2961 4.53532 23.8485 4.37446 23.8485 3.94196C23.8467 3.85088 23.8106 3.76381 23.7474 3.69816C23.6843 3.63251 23.5987 3.59309 23.5077 3.58778Z" fill="black"/>
</g>
<defs>
<clipPath id="clip0_281_19">
<rect width="28" height="18.9714" fill="white"/>
</clipPath>
</defs>
</svg>
