<svg width="16" height="16" viewBox="0 0 16 16" fill="none" xmlns="http://www.w3.org/2000/svg">
<path fill-rule="evenodd" clip-rule="evenodd" d="M7.75001 1.5C4.29823 1.5 1.50001 4.29822 1.50001 7.75C1.50001 9.40247 2.14032 10.9037 3.1878 12.0219C3.44889 12.3006 3.45886 12.731 3.21097 13.0215L2.37596 14H7.75001C11.2018 14 14 11.2018 14 7.75C14 4.29822 11.2018 1.5 7.75001 1.5ZM1.05057e-05 7.75C1.05057e-05 3.46979 3.4698 0 7.75001 0C12.0302 0 15.5 3.46979 15.5 7.75C15.5 12.0302 12.0302 15.5 7.75001 15.5H0.75001C0.457412 15.5 0.191528 15.3298 0.068971 15.0641C-0.0535857 14.7984 -0.0104359 14.4857 0.179496 14.2632L1.65369 12.5356C0.618284 11.2182 1.05057e-05 9.55565 1.05057e-05 7.75Z" fill="black"/>
<path d="M11.4286 5.88528V7.10052C10.7479 7.10052 10.1464 6.8812 9.58136 6.45601C9.58136 6.52498 9.58136 6.56808 9.58136 6.61222C9.58437 7.45951 9.5904 8.3068 9.58973 9.1541C9.58973 10.2028 8.97679 11.079 8.02336 11.407C6.63861 11.8832 5.17713 10.9287 5.01359 9.44135C4.87485 8.17748 5.81588 6.98983 7.0478 6.88224C7.23782 6.86568 7.43018 6.87983 7.63159 6.87983V8.09196C7.42683 8.10196 7.21872 8.08231 7.02501 8.12645C6.5049 8.2468 6.15134 8.78821 6.22071 9.31859C6.29645 9.89931 6.76831 10.3242 7.32227 10.3104C7.58607 10.3042 7.83864 10.1993 8.03257 10.0151C8.2265 9.83102 8.34846 9.5804 8.37557 9.31031C8.38261 9.23341 8.38529 9.15548 8.38529 9.07823C8.38663 7.44411 8.38741 5.80964 8.38764 4.17484C8.38764 4.11966 8.38764 4.06414 8.38764 4H9.56762C9.6085 5.09524 10.455 5.86011 11.4286 5.88528Z" fill="black"/>
</svg>
