<svg width="14" height="14" viewBox="0 0 14 14" fill="none" xmlns="http://www.w3.org/2000/svg">
<path fill-rule="evenodd" clip-rule="evenodd" d="M4 14H10C12.2091 14 14 12.2091 14 10V4C14 1.79086 12.2091 0 10 0H4C1.79086 0 0 1.79086 0 4V10C0 12.2091 1.79086 14 4 14ZM11 6.70562V5.25321C9.78848 5.22312 8.73502 4.30898 8.68414 3H7.21573V3.20896C7.21545 5.16282 7.21448 7.11626 7.21281 9.0693C7.21281 9.16162 7.20947 9.25476 7.20071 9.34667C7.16697 9.66947 7.0152 9.969 6.77386 10.1891C6.53253 10.4091 6.21822 10.5346 5.88994 10.5419C5.20056 10.5584 4.61336 10.0506 4.51911 9.35656C4.43278 8.72268 4.87276 8.0756 5.52002 7.93176C5.68459 7.89575 5.85752 7.89527 6.03178 7.89479C6.11276 7.89457 6.19403 7.89434 6.27487 7.89055V6.44185C6.19494 6.44185 6.11615 6.44013 6.03824 6.43843C5.87184 6.4348 5.70943 6.43126 5.54838 6.44473C4.01532 6.57332 2.84425 7.99276 3.01691 9.50329C3.22043 11.2809 5.03916 12.4217 6.7624 11.8525C7.94889 11.4606 8.71167 10.4133 8.71167 9.15997C8.71224 8.46158 8.70885 7.7632 8.70546 7.06481C8.70393 6.75055 8.70241 6.43629 8.70124 6.12202V5.93532C9.40438 6.4435 10.153 6.70562 11 6.70562Z" fill="black"/>
</svg>
