<svg width="14" height="14" viewBox="0 0 14 14" fill="none" xmlns="http://www.w3.org/2000/svg">
<path fill-rule="evenodd" clip-rule="evenodd" d="M4 14H10C12.2091 14 14 12.2091 14 10V4C14 1.79086 12.2091 0 10 0H4C1.79086 0 0 1.79086 0 4V10C0 12.2091 1.79086 14 4 14ZM3 3H11.2967L11.2979 3.12981C11.2969 4.97712 11.2975 6.82454 11.2997 8.67205C11.3015 8.71054 11.2951 8.74895 11.281 8.78455C11.2669 8.82015 11.2455 8.85205 11.2183 8.87799C10.6833 9.43389 10.1507 9.99189 9.62055 10.552C9.59588 10.5806 9.56551 10.6031 9.53159 10.618C9.49767 10.6329 9.46104 10.6398 9.42429 10.6382C9.00314 10.636 8.58199 10.636 8.16084 10.636C7.73969 10.636 7.31853 10.636 6.89738 10.6338C6.85515 10.6322 6.8131 10.6404 6.77423 10.6577C6.73536 10.6751 6.70062 10.7012 6.67249 10.7342C6.41999 11.0025 6.16534 11.2692 5.91062 11.536L5.91052 11.5361C5.72856 11.7267 5.54658 11.9173 5.36532 12.1085C5.34473 12.1288 5.33328 12.1566 5.32184 12.1844L5.32184 12.1844C5.31653 12.1973 5.31124 12.2101 5.30503 12.2222L5.2583 12.1856V10.6411H3V3ZM8.83769 4.84549H9.94524V8.30468H8.83769V4.84549ZM6.86648 8.30641V4.84444H5.76664V8.30641H6.86648Z" fill="black"/>
</svg>
