<svg width="16" height="16" viewBox="0 0 16 16" fill="none" xmlns="http://www.w3.org/2000/svg">
<path fill-rule="evenodd" clip-rule="evenodd" d="M7.75001 1.5C4.29823 1.5 1.50001 4.29822 1.50001 7.75C1.50001 9.40247 2.14032 10.9037 3.1878 12.0219C3.44889 12.3006 3.45886 12.731 3.21097 13.0215L2.37596 14H7.75001C11.2018 14 14 11.2018 14 7.75C14 4.29822 11.2018 1.5 7.75001 1.5ZM1.05057e-05 7.75C1.05057e-05 3.46979 3.4698 0 7.75001 0C12.0302 0 15.5 3.46979 15.5 7.75C15.5 12.0302 12.0302 15.5 7.75001 15.5H0.75001C0.457412 15.5 0.191528 15.3298 0.068971 15.0641C-0.0535857 14.7984 -0.0104359 14.4857 0.179496 14.2632L1.65369 12.5356C0.618284 11.2182 1.05057e-05 9.55565 1.05057e-05 7.75Z" fill="black"/>
<path fill-rule="evenodd" clip-rule="evenodd" d="M12.2967 4H4V11.6411H6.2583V13.1856L6.30503 13.2222C6.31124 13.2101 6.31654 13.1972 6.32184 13.1844C6.33328 13.1566 6.34473 13.1288 6.36532 13.1085C6.5465 12.9174 6.72841 12.7268 6.91029 12.5363L6.91049 12.5361L6.91054 12.5361C7.16528 12.2693 7.41996 12.0025 7.67249 11.7342C7.70062 11.7012 7.73536 11.6751 7.77423 11.6577C7.8131 11.6404 7.85515 11.6322 7.89738 11.6338C8.31852 11.636 8.73966 11.636 9.1608 11.636H9.16107C9.58215 11.636 10.0032 11.636 10.4243 11.6382C10.461 11.6398 10.4977 11.6329 10.5316 11.618C10.5655 11.6031 10.5959 11.5806 10.6205 11.552C11.1507 10.9919 11.6833 10.4339 12.2183 9.87799C12.2455 9.85205 12.2669 9.82015 12.281 9.78455C12.2951 9.74895 12.3015 9.71054 12.2997 9.67205C12.2975 7.82454 12.2969 5.97712 12.2979 4.12981L12.2967 4ZM9.83765 5.84552H10.9452V9.30471H9.83765V5.84552ZM7.86645 9.30639V5.84442H6.7666V9.30639H7.86645Z" fill="black"/>
</svg>
