<svg width="24" height="24" viewBox="0 0 24 24" fill="none" xmlns="http://www.w3.org/2000/svg">
<path d="M6.89044 16.7846L7.46096 17.2715C7.70885 16.981 7.69888 16.5506 7.43779 16.2719L6.89044 16.7846ZM5 19L4.42949 18.5132C4.23955 18.7357 4.1964 19.0484 4.31896 19.3141C4.44152 19.5798 4.7074 19.75 5 19.75V19ZM18.25 12C18.25 15.4518 15.4518 18.25 12 18.25V19.75C16.2802 19.75 19.75 16.2802 19.75 12H18.25ZM12 5.75C15.4518 5.75 18.25 8.54822 18.25 12H19.75C19.75 7.71979 16.2802 4.25 12 4.25V5.75ZM5.75 12C5.75 8.54822 8.54822 5.75 12 5.75V4.25C7.71979 4.25 4.25 7.71979 4.25 12H5.75ZM7.43779 16.2719C6.39031 15.1537 5.75 13.6525 5.75 12H4.25C4.25 14.0482 5.04556 15.9123 6.3431 17.2974L7.43779 16.2719ZM6.31993 16.2978L4.42949 18.5132L5.57051 19.4868L7.46096 17.2715L6.31993 16.2978ZM5 19.75H12V18.25H5V19.75Z" fill="black"/>
<path d="M14.5451 11.4709L10.7862 9.34995C10.6912 9.29597 10.5832 9.26744 10.4733 9.26726C10.3634 9.26708 10.2554 9.29524 10.1602 9.34892C10.065 9.40259 9.98595 9.47987 9.93107 9.57294C9.8762 9.66602 9.84742 9.7716 9.84766 9.87902V14.121C9.84763 14.2283 9.87651 14.3338 9.93138 14.4268C9.98626 14.5199 10.0652 14.5971 10.1603 14.6509C10.2554 14.7047 10.3633 14.733 10.4731 14.7332C10.583 14.7333 10.691 14.7052 10.7862 14.6516L14.5451 12.5291C14.6402 12.4755 14.7192 12.3985 14.7742 12.3056C14.8291 12.2127 14.8581 12.1073 14.8581 12C14.8581 11.8927 14.8291 11.7873 14.7742 11.6944C14.7192 11.6015 14.6402 11.5245 14.5451 11.4709Z" fill="black"/>
</svg>
